<?xml version="1.0" standalone="no"?>
<!DOCTYPE svg PUBLIC "-//W3C//DTD SVG 1.1//EN" "http://www.w3.org/Graphics/SVG/1.1/DTD/svg11.dtd" >
<svg xmlns="http://www.w3.org/2000/svg" xmlns:xlink="http://www.w3.org/1999/xlink" version="1.1">
<metadata></metadata>
<defs>
<font id="outwardblock" horiz-adv-x="158" >
<font-face units-per-em="1000" ascent="800" descent="-200" />
<missing-glyph horiz-adv-x="79" />
<glyph unicode="VTF" horiz-adv-x="395" d="M304 0h-67v621h67v-238h79v-67h-79v-316zM225 0h-67v633h-79v67h225v-67h-79v-633zM146 0h-94l-52 105v595h67v-580l12 -53v554h67v-621zM383 396h-67v304h67v-304z" />
<glyph horiz-adv-x="0" />
<glyph unicode=" "  horiz-adv-x="79" />
<glyph unicode="&#x09;" horiz-adv-x="79" />
<glyph unicode="&#xa0;" horiz-adv-x="79" />
<glyph unicode="!" horiz-adv-x="79" d="M0 0v146h67v-146h-67zM0 158v542h67v-542h-67z" />
<glyph unicode="&#x22;" d="M0 554v146h67v-146h-67zM79 554v146h67v-146h-67z" />
<glyph unicode="#" horiz-adv-x="237" d="M225 356h-40v-12h40v-67h-40v-277h-67v277h-12v-277h-67v277h-39v67h39v12h-39v67h39v277h67v-277h12v277h67v-277h40v-67zM118 344v12h-12v-12h12z" />
<glyph unicode="$" horiz-adv-x="237" d="M192 621q14 0 23.5 -10t9.5 -24v-191h-67v158h-12v-170h46q14 0 23.5 -10t9.5 -24v-237q0 -14 -9.5 -24t-23.5 -10h-46v-79h-67v79h-46q-14 0 -23.5 10t-9.5 24v191h67v-158h12v171h-46q-14 0 -23.5 9.5t-9.5 23.5v237q0 14 9.5 24t23.5 10h46v79h67v-79h46zM146 317 v-171h12v171h-12zM79 554h-12v-170h12v170z" />
<glyph unicode="%" horiz-adv-x="237" d="M192 0h-79q-14 0 -24 9.5t-10 23.5v238q0 14 10 23.5t24 9.5h79q14 0 23.5 -9.5t9.5 -23.5v-238q0 -14 -9.5 -23.5t-23.5 -9.5zM146 67h12v170h-12v-170zM67 0h-67v350q0 14 9.5 23.5t23.5 9.5h125v317h67v-350q0 -14 -9.5 -24t-23.5 -10h-125v-316zM113 396h-80 q-14 0 -23.5 9.5t-9.5 23.5v237q0 14 9.5 24t23.5 10h80q14 0 23.5 -10t9.5 -24v-237q0 -14 -9.5 -23.5t-23.5 -9.5zM67 463h12v170h-12v-170z" />
<glyph unicode="&#x26;" horiz-adv-x="198" d="M113 0h-80q-14 0 -23.5 9.5t-9.5 23.5v317q0 14 10 24l16 16l-16 15q-10 10 -10 24v237q0 14 9.5 24t23.5 10h80q14 0 23.5 -10t9.5 -24v-237q0 -14 -10 -24l-63 -63l-6 -6v-269h12v243q0 14 10 24t24 10h73v-67h-40v-244q0 -14 -9.5 -23.5t-23.5 -9.5zM67 443l6 -6l6 6 v190h-12v-190z" />
<glyph unicode="'" horiz-adv-x="79" d="M0 554v146h67v-146h-67v0z" />
<glyph unicode="(" horiz-adv-x="119" d="M0 667q0 14 9.5 23.5t23.5 9.5h74v-67h-40v-566h40v-67h-74q-14 0 -23.5 9.5t-9.5 23.5v634v0z" />
<glyph unicode=")" horiz-adv-x="119" d="M74 700q14 0 23.5 -9.5t9.5 -23.5v-634q0 -14 -9.5 -23.5t-23.5 -9.5h-74v67h40v566h-40v67h74v0z" />
<glyph unicode="*" horiz-adv-x="237" d="M146 475h-67v79h-79v67h79v79h67v-79h79v-67h-79v-79v0z" />
<glyph unicode="+" horiz-adv-x="237" d="M146 384v-80h79v-67h-79v-79h-67v79h-79v67h79v80h67v0z" />
<glyph unicode="," horiz-adv-x="79" d="M0 146h67v-192q0 -14 -9.5 -23.5t-23.5 -9.5h-73v67h39v158z" />
<glyph unicode="-" d="M0 238v67h146v-67h-146v0z" />
<glyph unicode="." horiz-adv-x="79" d="M0 0v146h67v-146h-67v0z" />
<glyph unicode="/" d="M146 700v-192q0 -5 -1 -8l-78 -312v-188h-67v192q0 5 1 8l78 312v188h67z" />
<glyph unicode="0" d="M113 700q14 0 23.5 -9.5t9.5 -23.5v-634q0 -14 -9.5 -23.5t-23.5 -9.5h-80q-14 0 -23.5 9.5t-9.5 23.5v634q0 14 9.5 23.5t23.5 9.5h80zM79 633h-12v-566h12v566z" />
<glyph unicode="1" horiz-adv-x="119" d="M107 0h-67v633h-40v67h107v-700v0z" />
<glyph unicode="2" d="M146 0h-146v350q0 14 10 23.5t24 9.5h45v250h-12v-238h-67v271q0 14 10 24t24 10h79q14 0 23.5 -10t9.5 -24v-316q0 -14 -9.5 -24t-23.5 -10h-46v-249h12v237h67v-304z" />
<glyph unicode="3" d="M113 700q14 0 23.5 -9.5t9.5 -23.5v-283v-67v-284q0 -14 -9.5 -23.5t-23.5 -9.5h-80q-14 0 -23.5 9.5t-9.5 23.5v271h67v-237h12v250h-79v67h79v249h-12v-237h-67v271q0 14 9.5 23.5t23.5 9.5h80v0z" />
<glyph unicode="4" d="M146 0h-67v316h-79v384h67v-317h12v317h67v-700v0z" />
<glyph unicode="5" d="M113 0h-79q-14 0 -24 9.5t-10 23.5v271h67v-237h12v249h-45q-14 0 -24 10t-10 24v350h146v-305h-67v238h-12v-250h46q14 0 23.5 -9.5t9.5 -23.5v-317q0 -14 -9.5 -23.5t-23.5 -9.5z" />
<glyph unicode="6" d="M113 700q14 0 23.5 -9.5t9.5 -23.5v-271h-67v237h-12v-249h46q14 0 23.5 -10t9.5 -24v-317q0 -14 -9.5 -23.5t-23.5 -9.5h-80q-14 0 -23.5 9.5t-9.5 23.5v634q0 14 9.5 23.5t23.5 9.5h80zM67 317v-250h12v250h-12z" />
<glyph unicode="7" d="M146 0h-67v316h-79v67h79v250h-12v-238h-67v305h146v-700v0z" />
<glyph unicode="8" d="M113 700q14 0 23.5 -9.5t9.5 -23.5v-277q0 -15 -10 -24l-16 -16l16 -16q10 -9 10 -24v-277q0 -14 -9.5 -23.5t-23.5 -9.5h-80q-14 0 -23.5 9.5t-9.5 23.5v277q0 14 10 24l16 16l-16 16q-10 10 -10 24v277q0 14 9.5 23.5t23.5 9.5h80zM67 403l6 -6l6 6v230h-12v-230z M79 297l-6 6l-6 -6v-230h12v230z" />
<glyph unicode="9" d="M113 700q14 0 23.5 -9.5t9.5 -23.5v-634q0 -14 -9.5 -23.5t-23.5 -9.5h-80q-14 0 -23.5 9.5t-9.5 23.5v271h67v-237h12v250h-46q-14 0 -23.5 9.5t-9.5 23.5v317q0 14 9.5 23.5t23.5 9.5h80zM79 633h-12v-249h12v249z" />
<glyph unicode=":" horiz-adv-x="79" d="M67 225v-146h-67v146h67zM67 463v-146h-67v146h67z" />
<glyph unicode=";" horiz-adv-x="119" d="M40 225h67v-192q0 -14 -9.5 -23.5t-23.5 -9.5h-74v67h40v158zM107 463v-146h-67v146h67z" />
<glyph unicode="&#x3c;" horiz-adv-x="198" d="M186 158h-73q-14 0 -24 10l-79 79q-10 10 -10 23.5t10 24.5l79 79q9 9 24 9h73v-67h-60l-45 -45l45 -46h60v-67z" />
<glyph unicode="=" horiz-adv-x="198" d="M0 198v67h186v-67h-186zM0 277v67h186v-67h-186z" />
<glyph unicode="&#x3e;" horiz-adv-x="198" d="M73 383q13 0 24 -9l79 -79q10 -11 10 -24.5t-10 -23.5l-79 -79q-12 -10 -24 -10h-73v67h59l46 46l-46 45h-59v67h73z" />
<glyph unicode="?" d="M113 700q14 0 23.5 -9.5t9.5 -23.5v-317q0 -14 -9.5 -23.5t-23.5 -9.5h-46v-159h-67v192q0 14 9.5 24t23.5 10h46v249h-12v-237h-67v271q0 14 9.5 23.5t23.5 9.5h80zM0 146h67v-146h-67v146z" />
<glyph unicode="@" horiz-adv-x="237" d="M158 225v250h-12v-250h12zM225 79h-191q-14 0 -24 10t-10 24v474q0 14 10 24t24 10h158q14 0 23.5 -10t9.5 -24v-429h-112q-14 0 -24 10t-10 24v316q0 14 10 24t24 10h45v12h-91v-408h158v-67z" />
<glyph unicode="A" d="M113 700q14 0 23.5 -10t9.5 -24v-283v-67v-316h-67v316h-12v-316h-67v316v67v283q0 14 9.5 24t23.5 10h80zM79 383v250h-12v-250h12z" />
<glyph unicode="B" d="M113 0h-113v700h113q14 0 23.5 -10t9.5 -24v-277q0 -14 -9.5 -23.5t-23.5 -9.5h-46v-13h46q14 0 23.5 -9.5t9.5 -23.5v-277q0 -14 -9.5 -23.5t-23.5 -9.5zM67 67h12v209h-12v-209zM67 423h12v210h-12v-210z" />
<glyph unicode="C" d="M33 0q-14 0 -23.5 9.5t-9.5 23.5v633q0 14 9.5 24t23.5 10h80q14 0 23.5 -10t9.5 -24v-310h-67v277h-12v-566h12v277h67v-311q0 -14 -9.5 -23.5t-23.5 -9.5h-80v0z" />
<glyph unicode="D" d="M113 700q14 0 23.5 -10t9.5 -24v-632q0 -14 -9.5 -24t-23.5 -10h-113v700h113zM79 67v566h-12v-566h12z" />
<glyph unicode="E" d="M146 0h-146v700h146v-304h-67v237h-12v-249h79v-67h-79v-250h12v237h67v-304v0z" />
<glyph unicode="F" d="M67 0h-67v700h146v-304h-67v237h-12v-249h79v-67h-79v-317v0z" />
<glyph unicode="G" horiz-adv-x="198" d="M146 0h-112q-14 0 -24 10t-10 24v633q0 14 10 23.5t24 9.5h79q14 0 23.5 -9.5t9.5 -23.5v-311h-67v277h-12v-566h12v277h107v-67h-40v-277z" />
<glyph unicode="H" d="M67 316v-316h-67v316v67v317h67v-317h12v317h67v-317v-67v-316h-67v316h-12v0z" />
<glyph unicode="I" horiz-adv-x="79" d="M0 700h67v-700h-67v700z" />
<glyph unicode="J" d="M113 0h-79q-14 0 -24 10t-10 24v310h67v-277h12v566h-12v-79h-67v146h146v-666q0 -14 -9.5 -24t-23.5 -10z" />
<glyph unicode="K" d="M67 0h-67v277v67v12v67v277h67v-277h12v277h67v-310q0 -14 -9.5 -24t-23.5 -10h-46v-12h46q14 0 23.5 -10t9.5 -24v-310h-67v277h-12v-277z" />
<glyph unicode="L" d="M146 0h-146v700h67v-633h12v277h67v-344v0z" />
<glyph unicode="M" horiz-adv-x="237" d="M225 0h-67v633h-12v-633h-67v633h-12v-633h-67v700h192q14 0 23.5 -9.5t9.5 -23.5v-667z" />
<glyph unicode="N" horiz-adv-x="237" d="M225 0h-112q-14 0 -24 10t-10 24v599h-12v-633h-67v700h113q14 0 23.5 -9.5t9.5 -23.5v-600h12v633h67v-700z" />
<glyph unicode="O" d="M33 0q-14 0 -23.5 9.5t-9.5 23.5v634q0 14 9.5 23.5t23.5 9.5h80q14 0 23.5 -9.5t9.5 -23.5v-634q0 -14 -9.5 -23.5t-23.5 -9.5h-80zM67 67h12v566h-12v-566z" />
<glyph unicode="P" d="M67 0h-67v700h113q14 0 23.5 -9.5t9.5 -23.5v-317q0 -14 -9.5 -23.5t-23.5 -9.5h-46v-317zM67 384h12v249h-12v-249z" />
<glyph unicode="Q" horiz-adv-x="198" d="M33 0q-14 0 -23.5 9.5t-9.5 23.5v634q0 14 9.5 23.5t23.5 9.5h80q14 0 23.5 -9.5t9.5 -23.5v-600h40v-67h-153zM67 67h12v566h-12v-566z" />
<glyph unicode="R" d="M146 0h-67v277h-12v-277h-67v700h113q14 0 23.5 -9.5t9.5 -23.5v-277q0 -14 -9.5 -24t-23.5 -10h-46v-12h46q14 0 23.5 -10t9.5 -24v-310zM67 423h12v210h-12v-210z" />
<glyph unicode="S" d="M33 0q-14 0 -23.5 9.5t-9.5 23.5v271h67v-237h12v250h-46q-14 0 -23.5 9.5t-9.5 23.5v317q0 14 9.5 23.5t23.5 9.5h80q14 0 23.5 -9.5t9.5 -23.5v-271h-67v237h-12v-249h46q14 0 23.5 -10t9.5 -24v-317q0 -14 -9.5 -23.5t-23.5 -9.5h-80v0z" />
<glyph unicode="T" horiz-adv-x="237" d="M146 0h-67v633h-12v-277h-67v344h225v-344h-67v277h-12v-633v0z" />
<glyph unicode="U" d="M33 0q-14 0 -23.5 9.5t-9.5 23.5v667h67v-633h12v633h67v-667q0 -14 -9.5 -23.5t-23.5 -9.5h-80v0z" />
<glyph unicode="V" d="M146 0h-94l-52 104v596h67v-580l12 -53v633h67v-700v0z" />
<glyph unicode="W" horiz-adv-x="237" d="M33 0q-14 0 -23.5 10t-9.5 24v666h67v-633h12v633h67v-633h12v633h67v-700h-192z" />
<glyph unicode="X" d="M79 700h67v-310q0 -14 -9.5 -24t-23.5 -10h-6v-12h6q14 0 23.5 -10t9.5 -24v-310h-67v277h-12v-277h-67v310q0 14 9.5 24t23.5 10h7v12h-7q-14 0 -23.5 10t-9.5 24v310h67v-277h12v277z" />
<glyph unicode="Y" d="M79 700h67v-350q0 -14 -9.5 -23.5t-23.5 -9.5h-6v-317h-67v317h-7q-14 0 -23.5 9.5t-9.5 23.5v350h67v-316h12v316z" />
<glyph unicode="Z" d="M146 0h-146v310q0 14 10 24l69 69v230h-12v-198h-67v265h146v-310q0 -15 -10 -24l-69 -70v-229h12v198h67v-265z" />
<glyph unicode="[" d="M146 0h-146v700h146v-67h-79v-566h79v-67v0z" />
<glyph unicode="\" d="M67 700v-188l78 -312q1 -3 1 -8v-192h-67v188l-78 312q-1 3 -1 8v192h67z" />
<glyph unicode="]" d="M146 0h-146v67h79v566h-79v67h146v-700v0z" />
<glyph unicode="^" d="M146 554h-67v59l-6 6l-6 -6v-59h-67v73q0 14 10 24l39 39q10 10 24 10t24 -10l39 -39q10 -10 10 -24v-73z" />
<glyph unicode="_" d="M146 -79h-146v67h146v-67v0z" />
<glyph unicode="`" d="M146 554h-113q-14 0 -23.5 9.5t-9.5 23.5v113h67v-79h79v-67z" />
<glyph unicode="a" d="M146 0h-113q-14 0 -23.5 9.5t-9.5 23.5v238q0 14 9.5 23.5t23.5 9.5h46v171h-12v-159h-67v192q0 14 9.5 24t23.5 10h80q14 0 23.5 -10t9.5 -24v-508zM67 67h12v170h-12v-170z" />
<glyph unicode="b" d="M113 0h-113v700h67v-158h46q14 0 23.5 -10t9.5 -24v-475q0 -14 -9.5 -23.5t-23.5 -9.5zM67 67h12v408h-12v-408z" />
<glyph unicode="c" d="M113 0h-80q-14 0 -23.5 9.5t-9.5 23.5v475q0 14 9.5 24t23.5 10h80q14 0 23.5 -10t9.5 -24v-231h-67v198h-12v-408h12v198h67v-232q0 -14 -9.5 -23.5t-23.5 -9.5z" />
<glyph unicode="d" d="M33 0q-14 0 -23.5 9.5t-9.5 23.5v475q0 14 9.5 24t23.5 10h46v158h67v-700h-113zM79 475h-12v-408h12v408z" />
<glyph unicode="e" d="M113 0h-80q-14 0 -23.5 9.5t-9.5 23.5v475q0 14 9.5 24t23.5 10h80q14 0 23.5 -10t9.5 -24v-271h-79v-170h12v158h67v-192q0 -14 -9.5 -23.5t-23.5 -9.5zM67 304h12v171h-12v-171z" />
<glyph unicode="f" d="M67 396v-396h-67v396v67v204q0 14 9.5 23.5t23.5 9.5h80q14 0 23.5 -9.5t9.5 -23.5v-192h-67v158h-12v-170h79v-67h-79z" />
<glyph unicode="g" d="M113 -158h-80q-14 0 -23.5 9.5t-9.5 23.5v113h67v-79h12v91h-46q-14 0 -23.5 9.5t-9.5 23.5v475q0 14 9.5 24t23.5 10h113v-667q0 -14 -9.5 -23.5t-23.5 -9.5zM67 67h12v408h-12v-408z" />
<glyph unicode="h" d="M146 0h-67v475h-12v-475h-67v700h67v-158h46q14 0 23.5 -10t9.5 -24v-508z" />
<glyph unicode="i" horiz-adv-x="79" d="M0 0v542h67v-542h-67zM67 700v-146h-67v146h67z" />
<glyph unicode="j" horiz-adv-x="79" d="M67 -124q0 -14 -9.5 -24t-23.5 -10h-80q-14 0 -23.5 10t-9.5 24v112h67v-79h12v633h67v-666zM0 700h67v-145h-67v145z" />
<glyph unicode="k" d="M146 0h-67v198h-12v-198h-67v700h67v-356h12v198h67v-232q0 -14 -9.5 -23.5t-23.5 -9.5h-46v-12h46q14 0 23.5 -10t9.5 -24v-231z" />
<glyph unicode="l" horiz-adv-x="79" d="M0 0v700h67v-700h-67v0z" />
<glyph unicode="m" horiz-adv-x="237" d="M225 0h-67v475h-12v-475h-67v475h-12v-475h-67v542h192q14 0 23.5 -9.5t9.5 -23.5v-509z" />
<glyph unicode="n" d="M146 0h-67v475h-12v-475h-67v542h113q14 0 23.5 -9.5t9.5 -23.5v-509z" />
<glyph unicode="o" d="M146 33q0 -14 -10 -23.5t-24 -9.5h-79q-14 0 -23.5 9.5t-9.5 23.5v475q0 14 9.5 24t23.5 10h79q14 0 24 -10t10 -24v-475zM79 475h-12v-408h12v408z" />
<glyph unicode="p" d="M67 -158h-67v700h113q14 0 23.5 -10t9.5 -24v-475q0 -14 -9.5 -23.5t-23.5 -9.5h-46v-158zM67 67h12v408h-12v-408z" />
<glyph unicode="q" d="M146 -158h-67v158h-45q-14 0 -24 9.5t-10 23.5v475q0 14 10 24t24 10h112v-700zM67 67h12v408h-12v-408z" />
<glyph unicode="r" d="M67 0h-67v542h113q14 0 23.5 -10t9.5 -24v-192h-67v159h-12v-475z" />
<glyph unicode="s" d="M113 0h-80q-14 0 -23.5 9.5t-9.5 23.5v192h67v-158h12v170h-46q-14 0 -23.5 10t-9.5 24v237q0 14 9.5 24t23.5 10h80q14 0 23.5 -10t9.5 -24v-192h-67v159h-12v-171h46q14 0 23.5 -9.5t9.5 -23.5v-238q0 -14 -9.5 -23.5t-23.5 -9.5z" />
<glyph unicode="t" horiz-adv-x="119" d="M67 542h40v-67h-40v-475h-67v700h67v-158v0z" />
<glyph unicode="u" d="M79 542h67v-509q0 -14 -10 -23.5t-24 -9.5h-79q-14 0 -23.5 9.5t-9.5 23.5v509h67v-475h12v475z" />
<glyph unicode="v" d="M146 0h-94l-52 104v438h67v-422l12 -53v475h67v-542v0z" />
<glyph unicode="w" horiz-adv-x="237" d="M33 0q-14 0 -23.5 9.5t-9.5 23.5v509h67v-475h12v475h67v-475h12v475h67v-542h-192z" />
<glyph unicode="x" d="M146 0h-67v198h-12v-198h-67v231q0 14 9.5 24t23.5 10h7v12h-7q-14 0 -23.5 9.5t-9.5 23.5v232h67v-198h12v198h67v-232q0 -14 -9.5 -23.5t-23.5 -9.5h-6v-12h6q14 0 23.5 -10t9.5 -24v-231z" />
<glyph unicode="y" d="M79 542h67v-667q0 -14 -10 -23.5t-24 -9.5h-79q-14 0 -23.5 9.5t-9.5 23.5v113h67v-79h12v91h-46q-14 0 -23.5 9.5t-9.5 23.5v509h67v-475h12v475z" />
<glyph unicode="z" d="M146 0h-146v231q0 15 10 24l69 69v151h-12v-119h-67v186h146v-232q0 -14 -10 -23l-69 -70v-150h12v119h67v-186z" />
<glyph unicode="{" d="M40 667q0 14 9.5 23.5t23.5 9.5h73v-67h-39v-243q0 -14 -10 -24t-24 -10h-6v-12h6q14 0 24 -10t10 -24v-243h39v-67h-73q-14 0 -23.5 9.5t-9.5 23.5v244h-7q-14 0 -23.5 9.5t-9.5 23.5v80q0 14 9.5 23.5t23.5 9.5h7v244v0z" />
<glyph unicode="|" horiz-adv-x="79" d="M0 -79v858h67v-858h-67v0z" />
<glyph unicode="}" d="M107 667v-244h6q14 0 23.5 -9.5t9.5 -23.5v-80q0 -14 -9.5 -23.5t-23.5 -9.5h-6v-244q0 -14 -10 -23.5t-24 -9.5h-73v67h40v243q0 14 9.5 24t23.5 10h6v12h-6q-14 0 -23.5 10t-9.5 24v243h-40v67h73q14 0 24 -9.5t10 -23.5z" />
<glyph unicode="~" horiz-adv-x="198" d="M119 344h67v-73q0 -14 -10 -24t-24 -10h-85v-39h-67v73q0 14 9.5 23.5t23.5 9.5h86v40z" />
<glyph horiz-adv-x="0" />
<glyph unicode="&#xa1;" horiz-adv-x="79" d="M0 700v-145.991h67v145.991h-67zM0 542.01v-541.967h67v541.967h-67z" />
<glyph unicode="&#xa2;" horiz-adv-x="237" d="M146 -79h-67v79h-46q-14 0 -23.5 9.5t-9.5 23.5v475q0 14 9.5 24t23.5 10h46v79h67v-79h46q14 0 23.5 -10t9.5 -24v-231h-67v198h-12v-408h12v198h67v-232q0 -14 -9.5 -23.5t-23.5 -9.5h-46v-79zM67 67h12v408h-12v-408z" />
<glyph unicode="&#xa3;" horiz-adv-x="237" d="M225 0h-225v112q0 14 10 24t24 10h45v170h-79v67h79v283q0 14 10 24t24 10h79q14 0 23.5 -10t9.5 -24v-271h-67v238h-12v-250h79v-67h-79v-204q0 -14 -9.5 -23.5t-23.5 -9.5h-46v-12h158v-67z" />
<glyph unicode="&#xa4;" horiz-adv-x="237" d="M146 80h-67v79h-6q-14 0 -23.5 10t-9.5 24v124h-40v67h40v125q0 14 9.5 24t23.5 10h6v79h67v-79h6q14 0 24 -10t10 -24v-125h39v-67h-39v-124q0 -14 -10 -24t-24 -10h-6v-79zM107 226h12v250h-12v-250z" />
<glyph unicode="&#xa5;" d="M107 356v-12h39v-67h-39v-12h39v-67h-39v-198h-67v198h-40v67h40v12h-40v67h40v12h-7q-14 0 -23.5 10t-9.5 24v310h67v-277h12v277h67v-310q0 -14 -9.5 -24t-23.5 -10h-6z" />
<glyph unicode="&#xa6;" horiz-adv-x="79" d="M67 -79h-67v384h67v-384v0zM67 396h-67v383h67v-383v0z" />
<glyph unicode="&#xa7;" d="M113 0h-113v225h67v-158h12v170h-46q-14 0 -23.5 10t-9.5 24v395q0 14 9.5 24t23.5 10h113v-226h-67v159h-12v-171h46q14 0 23.5 -9.5t9.5 -23.5v-396q0 -14 -9.5 -23.5t-23.5 -9.5zM67 304h12v91h-12v-91z" />
<glyph unicode="&#xa8;" d="M146 700v-146h-67v0v0v146h67zM67 700v-146h-67v146h67v0v0z" />
<glyph unicode="&#xa9;" horiz-adv-x="316" d="M192 158h-79q-14 0 -24 10t-10 24v316q0 14 10 24t24 10h79q14 0 23.5 -10t9.5 -24v-152h-67v119h-12v-250h12v119h67v-152q0 -14 -9.5 -24t-23.5 -10zM271 79h-238q-14 0 -23.5 10t-9.5 24v474q0 14 9.5 24t23.5 10h238q14 0 23.5 -10t9.5 -24v-474q0 -14 -9.5 -24 t-23.5 -10zM67 146h170v408h-170v-408z" />
<glyph unicode="&#xaa;" d="M146 396h-113q-14 0 -23.5 9.5t-9.5 23.5v119q0 14 9.5 23.5t23.5 9.5h46v52h-12v-39h-67v73q0 14 9.5 23.5t23.5 9.5h80q14 0 23.5 -9.5t9.5 -23.5v-271zM67 463h12v51h-12v-51z" />
<glyph unicode="&#xab;" horiz-adv-x="237" d="M225 159h-73q-14 0 -23.5 9.5t-9.5 23.5v158q0 14 9.5 24t23.5 10h73v-67h-39v-91h39v-67zM107 159h-74q-14 0 -23.5 9.5t-9.5 23.5v158q0 14 9.5 24t23.5 10h74v-67h-40v-91h40v-67z" />
<glyph unicode="&#xac;" horiz-adv-x="237" d="M225 159h-67v79h-158v67h225v-146v0z" />
<glyph unicode="&#xad;" d="M0 238v67h146v-67h-146v0z" />
<glyph unicode="&#xae;" d="M146 317h-67v118h-12v-118h-67v383h113q14 0 23.5 -9.5t9.5 -23.5v-119q0 -14 -9.5 -23.5t-23.5 -9.5h-46v-13h46q14 0 23.5 -9.5t9.5 -23.5v-152zM67 582h12v51h-12v-51z" />
<glyph unicode="&#xaf;" d="M146 554h-146v67h146v-67v0z" />
<glyph unicode="&#xb0;" d="M113 700q14 0 23.5 -9.5t9.5 -23.5v-238q0 -14 -9.5 -23.5t-23.5 -9.5h-80q-14 0 -23.5 9.5t-9.5 23.5v238q0 14 9.5 23.5t23.5 9.5h80zM79 633h-12v-170h12v170z" />
<glyph unicode="&#xb1;" horiz-adv-x="237" d="M225 119h-225v67h225v-67v0zM146 198h-67v79h-79v67h79v80h67v-80h79v-67h-79v-79v0z" />
<glyph unicode="&#xb4;" d="M146 700v-113q0 -14 -9.5 -23.5t-23.5 -9.5h-113v67h79v79h67z" />
<glyph unicode="&#xb7;" horiz-adv-x="79" d="M67 198h-67v146h67v-146v0z" />
<glyph unicode="&#xb8;" horiz-adv-x="79" d="M67 67v-79h6q14 0 24 -10t10 -24v-79q0 -14 -10 -23.5t-24 -9.5h-73v67h40v12h-7q-14 0 -23.5 9.5t-9.5 23.5v113h67z" />
<glyph unicode="&#xba;" d="M113 396h-79q-14 0 -24 9.5t-10 23.5v237q0 14 10 24t24 10h79q14 0 23.5 -10t9.5 -24v-237q0 -14 -9.5 -23.5t-23.5 -9.5zM67 463h12v170h-12v-170z" />
<glyph unicode="&#xbb;" horiz-adv-x="237" d="M0 226h39v91h-39v67h73q14 0 23.5 -10t9.5 -24v-158q0 -14 -9.5 -23.5t-23.5 -9.5h-73v67zM118 226h40v91h-40v67h74q14 0 23.5 -10t9.5 -24v-158q0 -14 -9.5 -23.5t-23.5 -9.5h-74v67z" />
<glyph unicode="&#xbf;" d="M33.0068 0.0429688q-13.999 0 -23.498 9.49902q-9.5 9.5 -9.5 23.499v316.98q0 13.999 9.5 23.498q9.49902 9.5 23.498 9.5h45.9971v158.99h66.9961v-191.988q0 -13.999 -9.49902 -23.999q-9.5 -9.99902 -23.499 -9.99902h-45.9971v-248.984h11.999v236.985h66.9961 v-270.983q0 -13.999 -9.49902 -23.499q-9.5 -9.49902 -23.499 -9.49902h-79.9951zM146 554.009h-66.9961v145.991h66.9961v-145.991z" />
<glyph unicode="&#xc0;" d="M146 0h-67v237h-12v-237h-67v508q0 14 9.5 24t23.5 10h80q14 0 23.5 -10t9.5 -24v-508zM67 304h12v171h-12v-171zM146 554h-113q-14 0 -23.5 9.5t-9.5 23.5v113h67v-79h79v-67z" />
<glyph unicode="&#xc1;" d="M113 542q14 0 23.5 -10t9.5 -24v-508h-67v237h-12v-237h-67v508q0 14 9.5 24t23.5 10h80zM79 304v171h-12v-171h12zM146 700v-113q0 -14 -9.5 -23.5t-23.5 -9.5h-113v67h79v79h67z" />
<glyph unicode="&#xc2;" d="M113 542h-80q-14 0 -23.5 -10t-9.5 -24v-508h67v237h12v-237h67v508q0 14 -9.5 24t-23.5 10zM67 304v171h12v-171h-12zM146 554h-67v60l-6 6l-6 -6v-60h-67v73q0 15 10 24l39 40q10 10 24 10t24 -10l39 -40q10 -9 10 -24v-73z" />
<glyph unicode="&#xc3;" d="M113 542q14 0 23.5 -10t9.5 -24v-508h-67v237h-12v-237h-67v508q0 14 9.5 24t23.5 10h80zM79 304v171h-12v-171h12zM146 700v-73q0 -14 -9.5 -24t-23.5 -10h-46v-39h-67v73q0 14 9.5 23.5t23.5 9.5h46v40h67z" />
<glyph unicode="&#xc4;" d="M113 542q14 0 23.5 -10t9.5 -24v-508h-67v237h-12v-237h-67v508q0 14 9.5 24t23.5 10h80zM79 304v171h-12v-171h12zM146 554h-67v146h67v-146zM67 554h-67v146h67v-146z" />
<glyph unicode="&#xc5;" d="M113 542q14 0 23.5 -10t9.5 -24v-508h-67v237h-12v-237h-67v508q0 14 9.5 24t23.5 10h80zM79 304v171h-12v-171h12zM112 700q14 0 24 -10t10 -24v-79q0 -14 -10 -23.5t-24 -9.5h-79q-14 0 -23.5 9.5t-9.5 23.5v79q0 14 9.5 24t23.5 10h79zM79 633h-12v-12h12v12z" />
<glyph unicode="&#xc6;" horiz-adv-x="237" d="M225 0h-146v316h-12v-316h-67v666q0 14 9.5 24t23.5 10h192v-304h-67v237h-12v-250h79v-67h-79v-249h12v237h67v-304zM67 383h12v250h-12v-250z" />
<glyph unicode="&#xc7;" d="M33 0q-14 0 -23.5 9.5t-9.5 23.5v633q0 14 9.5 24t23.5 10h80q14 0 23.5 -10t9.5 -24v-310h-67v277h-12v-566h12v277h67v-311q0 -14 -9.5 -23.5t-23.5 -9.5h-7v-12h6q14 0 24 -10t10 -24v-79q0 -14 -10 -23.5t-24 -9.5h-73v67h40v12h-7q-14 0 -23.5 9.5t-9.5 23.5v46h-6 v0z" />
<glyph unicode="&#xc8;" d="M146 0h-146v542h146v-225h-67v158h-12v-170h79v-67h-79v-171h12v159h67v-226zM146 554h-113q-14 0 -23.5 9.5t-9.5 23.5v113h67v-79h79v-67z" />
<glyph unicode="&#xc9;" d="M146 0h-146v542h146v-225h-67v158h-12v-170h79v-67h-79v-171h12v159h67v-226zM146 700v-113q0 -14 -9.5 -23.5t-23.5 -9.5h-113v67h79v79h67z" />
<glyph unicode="&#xca;" d="M146 0h-146v542h146v-225h-67v158h-12v-170h79v-67h-79v-171h12v159h67v-226zM146 554h-67v60l-6 6l-6 -6v-60h-67v73q0 15 10 24l39 40q10 10 24 10t24 -10l39 -40q10 -9 10 -24v-73z" />
<glyph unicode="&#xcb;" d="M146 0h-146v542h146v-225h-67v158h-12v-170h79v-67h-79v-171h12v159h67v-226v0zM146 700v-146h-67v0v0v146h67zM67 700v-146h-67v146h67v0v0z" />
<glyph unicode="&#xcc;" horiz-adv-x="237" d="M225 0h-225v265h67v-198h12v408h-12v-198h-67v265h225v-265h-67v198h-12v-408h12v198h67v-265zM185 554h-113q-14 0 -23.5 9.5t-9.5 23.5v113h67v-79h79v-67z" />
<glyph unicode="&#xcd;" horiz-adv-x="237" d="M225 0h-225v265h67v-198h12v408h-12v-198h-67v265h225v-265h-67v198h-12v-408h12v198h67v-265zM185 700v-113q0 -14 -9.5 -23.5t-23.5 -9.5h-113v67h79v79h67z" />
<glyph unicode="&#xce;" horiz-adv-x="237" d="M225 0h-225v265h67v-198h12v408h-12v-198h-67v265h225v-265h-67v198h-12v-408h12v198h67v-265zM185 554h-67v60l-6 6l-6 -6v-60h-67v73q0 15 10 24l39 40q10 10 24 10t24 -10l39 -40q10 -9 10 -24v-73z" />
<glyph unicode="&#xcf;" horiz-adv-x="237" d="M225 0h-225v265h67v-198h12v408h-12v-198h-67v265h225v-265h-67v198h-12v-408h12v198h67v-265zM185 700v-146h-67v0v0v146h67zM106 700v-146h-67v146h67v0v0z" />
<glyph unicode="&#xd0;" horiz-adv-x="237" d="M192 0h-192v304h67v-237h12v249h-79v67h79v250h-12v-237h-67v304h192q14 0 23.5 -10t9.5 -24v-633q0 -14 -9.5 -23.5t-23.5 -9.5zM146 67h12v249h-12v-249zM146 383h12v250h-12v-250z" />
<glyph unicode="&#xd1;" horiz-adv-x="237" d="M225 0h-112q-14 0 -24 10t-10 24v441h-12v-475h-67v542h113q14 0 23.5 -9.5t9.5 -23.5v-442h12v475h67v-542zM191 700v-73q0 -14 -9.5 -24t-23.5 -10h-46v-39h-67v73q0 14 9.5 23.5t23.5 9.5h46v40h67z" />
<glyph unicode="&#xd2;" d="M112 542q14 0 24 -10t10 -24v-475q0 -14 -10 -23.5t-24 -9.5h-79q-14 0 -23.5 9.5t-9.5 23.5v475q0 14 9.5 24t23.5 10h79zM79 475h-12v-408h12v408zM146 554h-113q-14 0 -23.5 9.5t-9.5 23.5v113h67v-79h79v-67z" />
<glyph unicode="&#xd3;" d="M112 542q14 0 24 -10t10 -24v-475q0 -14 -10 -23.5t-24 -9.5h-79q-14 0 -23.5 9.5t-9.5 23.5v475q0 14 9.5 24t23.5 10h79zM79 475h-12v-408h12v408zM146 700v-113q0 -14 -9.5 -23.5t-23.5 -9.5h-113v67h79v79h67z" />
<glyph unicode="&#xd4;" d="M112 542h-79q-14 0 -23.5 -10t-9.5 -24v-475q0 -14 9.5 -23.5t23.5 -9.5h79q14 0 24 9.5t10 23.5v475q0 14 -10 24t-24 10zM79 67h-12v408h12v-408zM146 554h-67v60l-6 6l-6 -6v-60h-67v73q0 15 10 24l39 40q10 10 24 10t24 -10l39 -40q10 -9 10 -24v-73z" />
<glyph unicode="&#xd5;" d="M112 542q14 0 24 -10t10 -24v-475q0 -14 -10 -23.5t-24 -9.5h-79q-14 0 -23.5 9.5t-9.5 23.5v475q0 14 9.5 24t23.5 10h79zM79 475h-12v-408h12v408zM146 700v-73q0 -14 -9.5 -24t-23.5 -10h-46v-39h-67v73q0 14 9.5 23.5t23.5 9.5h46v40h67z" />
<glyph unicode="&#xd6;" d="M112 542q14 0 24 -10t10 -24v-475q0 -14 -10 -23.5t-24 -9.5h-79q-14 0 -23.5 9.5t-9.5 23.5v475q0 14 9.5 24t23.5 10h79zM79 475h-12v-408h12v408zM146 554h-67v146h67v-146zM67 554h-67v146h67v-146z" />
<glyph unicode="&#xd8;" horiz-adv-x="237" d="M192 621q14 0 23.5 -10t9.5 -24v-474q0 -14 -9.5 -24t-23.5 -10h-46v-79h-67v79h-46q-14 0 -23.5 10t-9.5 24v474q0 14 9.5 24t23.5 10h46v79h67v-79h46zM79 146v408h-12v-408h12zM158 554h-12v-408h12v408z" />
<glyph unicode="&#xd9;" d="M79 542h67v-509q0 -14 -10 -23.5t-24 -9.5h-79q-14 0 -23.5 9.5t-9.5 23.5v509h67v-475h12v475zM146 554h-113q-14 0 -23.5 9.5t-9.5 23.5v113h67v-79h79v-67z" />
<glyph unicode="&#xda;" d="M79 542h67v-509q0 -14 -10 -23.5t-24 -9.5h-79q-14 0 -23.5 9.5t-9.5 23.5v509h67v-475h12v475zM146 700v-113q0 -14 -9.5 -23.5t-23.5 -9.5h-113v67h79v79h67z" />
<glyph unicode="&#xdb;" d="M79 67h-12v475h-67v-509q0 -14 9.5 -23.5t23.5 -9.5h79q14 0 24 9.5t10 23.5v509h-67v-475zM146 554h-67v60l-6 6l-6 -6v-60h-67v73q0 15 10 24l39 40q10 10 24 10t24 -10l39 -40q10 -9 10 -24v-73z" />
<glyph unicode="&#xdc;" d="M79 542h67v-509q0 -14 -10 -23.5t-24 -9.5h-79q-14 0 -23.5 9.5t-9.5 23.5v509h67v-475h12v475zM146 554h-67v146h67v-146zM67 554h-67v146h67v-146z" />
<glyph unicode="&#xdd;" d="M146 542v-271q0 -14 -10 -24t-24 -10h-6v-237h-67v237h-6q-14 0 -23.5 10t-9.5 24v271h67v-238h12v238h67zM146 700v-113q0 -14 -9.5 -23.5t-23.5 -9.5h-113v67h79v79h67z" />
<glyph unicode="&#xde;" d="M67 0h-67v700h67v-79h46q14 0 23.5 -9.5t9.5 -23.5v-475q0 -14 -9.5 -23.5t-23.5 -9.5h-46v-80zM67 147h12v407h-12v-407z" />
<glyph unicode="&#xdf;" horiz-adv-x="198" d="M152 344q14 0 24 -10t10 -24v-277q0 -14 -10 -23.5t-24 -9.5h-73v67h40v210h-52v-277h-67v667q0 14 9.5 23.5t23.5 9.5h80q14 0 23.5 -9.5t9.5 -23.5v-277q0 -14 -9.5 -24t-23.5 -10h-46v-12h85zM67 423h12v210h-12v-210z" />
<glyph unicode="&#xe0;" d="M146 0h-113q-14 0 -23.5 9.5t-9.5 23.5v238q0 14 9.5 23.5t23.5 9.5h46v171h-12v-159h-67v192q0 14 9.5 24t23.5 10h80q14 0 23.5 -10t9.5 -24v-508zM67 67h12v170h-12v-170zM146 554h-113q-14 0 -23.5 9.5t-9.5 23.5v113h67v-79h79v-67z" />
<glyph unicode="&#xe1;" d="M146 0h-113q-14 0 -23.5 9.5t-9.5 23.5v238q0 14 9.5 23.5t23.5 9.5h46v171h-12v-159h-67v192q0 14 9.5 24t23.5 10h80q14 0 23.5 -10t9.5 -24v-508zM67 67h12v170h-12v-170zM146 700v-113q0 -14 -9.5 -23.5t-23.5 -9.5h-113v67h79v79h67z" />
<glyph unicode="&#xe2;" d="M146 0h-113q-14 0 -23.5 9.5t-9.5 23.5v238q0 14 9.5 23.5t23.5 9.5h46v171h-12v-159h-67v192q0 14 9.5 24t23.5 10h80q14 0 23.5 -10t9.5 -24v-508zM67 67h12v170h-12v-170zM146 554h-67v60l-6 6l-6 -6v-60h-67v73q0 15 10 24l39 40q10 10 24 10t24 -10l39 -40 q10 -9 10 -24v-73z" />
<glyph unicode="&#xe3;" d="M146 0h-113q-14 0 -23.5 9.5t-9.5 23.5v238q0 14 9.5 23.5t23.5 9.5h46v171h-12v-159h-67v192q0 14 9.5 24t23.5 10h80q14 0 23.5 -10t9.5 -24v-508zM67 67h12v170h-12v-170zM146 700v-73q0 -14 -9.5 -24t-23.5 -10h-46v-39h-67v73q0 14 9.5 23.5t23.5 9.5h46v40h67z" />
<glyph unicode="&#xe4;" d="M146 0h-113q-14 0 -23.5 9.5t-9.5 23.5v238q0 14 9.5 23.5t23.5 9.5h46v171h-12v-159h-67v192q0 14 9.5 24t23.5 10h80q14 0 23.5 -10t9.5 -24v-508zM67 67h12v170h-12v-170zM146 700v-146h-67v0v0v146h67zM67 700v-146h-67v146h67v0v0z" />
<glyph unicode="&#xe5;" d="M146 0h-113q-14 0 -23.5 9.5t-9.5 23.5v238q0 14 9.5 23.5t23.5 9.5h46v171h-12v-159h-67v192q0 14 9.5 24t23.5 10h80q14 0 23.5 -10t9.5 -24v-508zM67 67h12v170h-12v-170zM112 700q14 0 24 -10t10 -24v-79q0 -14 -10 -23.5t-24 -9.5h-79q-14 0 -23.5 9.5t-9.5 23.5v79 q0 14 9.5 24t23.5 10h79zM79 633h-12v-12h12v12z" />
<glyph unicode="&#xe6;" horiz-adv-x="237" d="M192 0h-159q-14 0 -23.5 9.5t-9.5 23.5v238q0 14 9.5 23.5t23.5 9.5h46v171h-12v-159h-67v192q0 14 9.5 24t23.5 10h159q14 0 23.5 -10t9.5 -24v-271h-79v-170h12v158h67v-192q0 -14 -9.5 -23.5t-23.5 -9.5zM146 304h12v171h-12v-171zM67 67h12v170h-12v-170z" />
<glyph unicode="&#xe7;" d="M113 0h-7v-12h6q14 0 24 -10t10 -24v-79q0 -14 -10 -23.5t-24 -9.5h-73v67h40v12h-7q-14 0 -23.5 9.5t-9.5 23.5v46h-6q-14 0 -23.5 9.5t-9.5 23.5v475q0 14 9.5 24t23.5 10h80q14 0 23.5 -10t9.5 -24v-231h-67v198h-12v-408h12v198h67v-232q0 -14 -9.5 -23.5t-23.5 -9.5 z" />
<glyph unicode="&#xe8;" d="M113 0h-80q-14 0 -23.5 9.5t-9.5 23.5v475q0 14 9.5 24t23.5 10h80q14 0 23.5 -10t9.5 -24v-271h-79v-170h12v158h67v-192q0 -14 -9.5 -23.5t-23.5 -9.5zM67 304h12v171h-12v-171zM146 554h-113q-14 0 -23.5 9.5t-9.5 23.5v113h67v-79h79v-67z" />
<glyph unicode="&#xe9;" d="M113 0h-80q-14 0 -23.5 9.5t-9.5 23.5v475q0 14 9.5 24t23.5 10h80q14 0 23.5 -10t9.5 -24v-271h-79v-170h12v158h67v-192q0 -14 -9.5 -23.5t-23.5 -9.5zM67 304h12v171h-12v-171zM146 700v-113q0 -14 -9.5 -23.5t-23.5 -9.5h-113v67h79v79h67z" />
<glyph unicode="&#xea;" d="M113 0h-80q-14 0 -23.5 9.5t-9.5 23.5v475q0 14 9.5 24t23.5 10h80q14 0 23.5 -10t9.5 -24v-271h-79v-170h12v158h67v-192q0 -14 -9.5 -23.5t-23.5 -9.5zM67 304h12v171h-12v-171zM146 554h-67v60l-6 6l-6 -6v-60h-67v73q0 15 10 24l39 40q10 10 24 10t24 -10l39 -40 q10 -9 10 -24v-73z" />
<glyph unicode="&#xeb;" d="M113 0h-80q-14 0 -23.5 9.5t-9.5 23.5v475q0 14 9.5 24t23.5 10h80q14 0 23.5 -10t9.5 -24v-271h-79v-170h12v158h67v-192q0 -14 -9.5 -23.5t-23.5 -9.5zM67 304h12v171h-12v-171zM146 700v-146h-67v0v0v146h67zM67 700v-146h-67v146h67v0v0z" />
<glyph unicode="&#xec;" d="M40 0v542h67v-542h-67v0zM146 554h-113q-14 0 -23.5 9.5t-9.5 23.5v113h67v-79h79v-67z" />
<glyph unicode="&#xed;" d="M40 0v542h67v-542h-67v0zM146 700v-113q0 -14 -9.5 -23.5t-23.5 -9.5h-113v67h79v79h67z" />
<glyph unicode="&#xee;" d="M40 0v542h67v-542h-67v0zM146 554h-67v60l-6 6l-6 -6v-60h-67v73q0 15 10 24l39 40q10 10 24 10t24 -10l39 -40q10 -9 10 -24v-73z" />
<glyph unicode="&#xef;" d="M40 0v542h67v-542h-67v0zM146 700v-146h-67v0v0v146h67zM67 700v-146h-67v146h67v0v0z" />
<glyph unicode="&#xf0;" horiz-adv-x="198" d="M146 0h-113q-14 0 -23.5 10t-9.5 24v475q0 14 9.5 23.5t23.5 9.5h46v12h-39v67h39v79h67v-79h40v-67h-40v-554zM67 67h12v408h-12v-408z" />
<glyph unicode="&#xf1;" d="M146 0h-67v475h-12v-475h-67v542h113q14 0 23.5 -9.5t9.5 -23.5v-509zM146 700v-73q0 -14 -9.5 -24t-23.5 -10h-46v-39h-67v73q0 14 9.5 23.5t23.5 9.5h46v40h67z" />
<glyph unicode="&#xf2;" d="M146 33q0 -14 -10 -23.5t-24 -9.5h-79q-14 0 -23.5 9.5t-9.5 23.5v475q0 14 9.5 24t23.5 10h79q14 0 24 -10t10 -24v-475zM79 475h-12v-408h12v408zM146 554h-113q-14 0 -23.5 9.5t-9.5 23.5v113h67v-79h79v-67z" />
<glyph unicode="&#xf3;" d="M146 33q0 -14 -10 -23.5t-24 -9.5h-79q-14 0 -23.5 9.5t-9.5 23.5v475q0 14 9.5 24t23.5 10h79q14 0 24 -10t10 -24v-475zM79 475h-12v-408h12v408zM146 700v-113q0 -14 -9.5 -23.5t-23.5 -9.5h-113v67h79v79h67z" />
<glyph unicode="&#xf4;" d="M146 33q0 -14 -10 -23.5t-24 -9.5h-79q-14 0 -23.5 9.5t-9.5 23.5v475q0 14 9.5 24t23.5 10h79q14 0 24 -10t10 -24v-475zM79 475h-12v-408h12v408zM146 554h-67v60l-6 6l-6 -6v-60h-67v73q0 15 10 24l39 40q10 10 24 10t24 -10l39 -40q10 -9 10 -24v-73z" />
<glyph unicode="&#xf5;" d="M146 33q0 -14 -10 -23.5t-24 -9.5h-79q-14 0 -23.5 9.5t-9.5 23.5v475q0 14 9.5 24t23.5 10h79q14 0 24 -10t10 -24v-475zM79 475h-12v-408h12v408zM146 700v-73q0 -14 -9.5 -24t-23.5 -10h-46v-39h-67v73q0 14 9.5 23.5t23.5 9.5h46v40h67z" />
<glyph unicode="&#xf6;" d="M146 33q0 -14 -10 -23.5t-24 -9.5h-79q-14 0 -23.5 9.5t-9.5 23.5v475q0 14 9.5 24t23.5 10h79q14 0 24 -10t10 -24v-475zM79 475h-12v-408h12v408zM146 700v-146h-67v0v0v146h67zM67 700v-146h-67v146h67v0v0z" />
<glyph unicode="&#xf8;" horiz-adv-x="238" d="M192 542q14 0 24 -10t10 -24v-475q0 -14 -10 -23.5t-24 -9.5h-45v-79h-67v79h-46q-14 0 -24 9.5t-10 23.5v475q0 14 10 24t24 10h46v79h67v-79h45zM80 67v408h-13v-408h13zM159 475h-12v-408h12v408z" />
<glyph unicode="&#xf9;" d="M79 542h67v-509q0 -14 -10 -23.5t-24 -9.5h-79q-14 0 -23.5 9.5t-9.5 23.5v509h67v-475h12v475zM146 554h-113q-14 0 -23.5 9.5t-9.5 23.5v113h67v-79h79v-67z" />
<glyph unicode="&#xfa;" d="M79 542h67v-509q0 -14 -10 -23.5t-24 -9.5h-79q-14 0 -23.5 9.5t-9.5 23.5v509h67v-475h12v475zM146 700v-113q0 -14 -9.5 -23.5t-23.5 -9.5h-113v67h79v79h67z" />
<glyph unicode="&#xfb;" d="M79 542h67v-509q0 -14 -10 -23.5t-24 -9.5h-79q-14 0 -23.5 9.5t-9.5 23.5v509h67v-475h12v475zM146 554h-67v60l-6 6l-6 -6v-60h-67v73q0 15 10 24l39 40q10 10 24 10t24 -10l39 -40q10 -9 10 -24v-73z" />
<glyph unicode="&#xfc;" d="M79 542h67v-509q0 -14 -10 -23.5t-24 -9.5h-79q-14 0 -23.5 9.5t-9.5 23.5v509h67v-475h12v475zM146 700v-146h-67v0v0v146h67zM67 700v-146h-67v146h67v0v0z" />
<glyph unicode="&#xfd;" d="M79 542h67v-667q0 -14 -10 -23.5t-24 -9.5h-79q-14 0 -23.5 9.5t-9.5 23.5v113h67v-79h12v91h-46q-14 0 -23.5 9.5t-9.5 23.5v509h67v-475h12v475zM146 700v-113q0 -14 -9.5 -23.5t-23.5 -9.5h-113v67h79v79h67z" />
<glyph unicode="&#xfe;" d="M67 -158h-67v858h67v-158h46q14 0 23.5 -10t9.5 -24v-475q0 -14 -9.5 -23.5t-23.5 -9.5h-46v-158zM67 67h12v408h-12v-408z" />
<glyph unicode="&#xff;" d="M79 542h67v-667q0 -14 -10 -23.5t-24 -9.5h-79q-14 0 -23.5 9.5t-9.5 23.5v113h67v-79h12v91h-46q-14 0 -23.5 9.5t-9.5 23.5v509h67v-475h12v475zM146 700v-146h-67v0v0v146h67zM67 700v-146h-67v146h67v0v0z" />
<glyph unicode="&#x100;" d="M113 621h-80q-14 0 -23.5 -10t-9.5 -24v-243v-67v-277h67v277h12v-277h67v277v67v243q0 14 -9.5 24t-23.5 10zM67 344v210h12v-210h-12zM146 633h-146v67h146v-67z" />
<glyph unicode="&#x101;" d="M146 0h-113q-14 0 -23.5 9.5t-9.5 23.5v238q0 14 9.5 23.5t23.5 9.5h46v171h-12v-159h-67v192q0 14 9.5 24t23.5 10h80q14 0 23.5 -10t9.5 -24v-508zM67 67h12v170h-12v-170zM146 554h-146v67h146v-67v0z" />
<glyph unicode="&#x102;" d="M113 542q14 0 23.5 -10t9.5 -24v-508h-67v237h-12v-237h-67v508q0 14 9.5 24t23.5 10h80zM79 304v171h-12v-171h12zM0 700h67v-79h12v79h67v-112q0 -14 -9.5 -24t-23.5 -10h-80q-14 0 -23.5 10t-9.5 24v112z" />
<glyph unicode="&#x103;" d="M146 0h-113q-14 0 -23.5 9.5t-9.5 23.5v238q0 14 9.5 23.5t23.5 9.5h46v171h-12v-159h-67v192q0 14 9.5 24t23.5 10h80q14 0 23.5 -10t9.5 -24v-508zM67 67h12v170h-12v-170zM0 700h67v-79h12v79h67v-112q0 -14 -9.5 -24t-23.5 -10h-80q-14 0 -23.5 10t-9.5 24v112z" />
<glyph unicode="&#x104;" d="M112 -79q-14 0 -23.5 9.5t-9.5 23.5v362h-12v-316h-67v666q0 14 9.5 24t23.5 10h80q14 0 23.5 -10t9.5 -24v-678h39v-67h-73zM79 383v250h-12v-250h12z" />
<glyph unicode="&#x105;" d="M112 -79q-14 0 -23.5 9.5t-9.5 23.5v46h-46q-14 0 -23.5 9.5t-9.5 23.5v238q0 14 9.5 23.5t23.5 9.5h46v171h-12v-159h-67v192q0 14 9.5 24t23.5 10h80q14 0 23.5 -10t9.5 -24v-520h39v-67h-73zM67 67h12v170h-12v-170z" />
<glyph unicode="&#x106;" d="M33 0q-14 0 -23.5 9.5t-9.5 23.5v475q0 14 9.5 24t23.5 10h79q14 0 24 -10t10 -24v-225h-67v192h-12v-408h12v204h67v-238q0 -14 -10 -23.5t-24 -9.5h-79zM146 700v-113q0 -14 -9.5 -23.5t-23.5 -9.5h-113v67h79v79h67z" />
<glyph unicode="&#x107;" d="M113 0h-80q-14 0 -23.5 9.5t-9.5 23.5v475q0 14 9.5 24t23.5 10h80q14 0 23.5 -10t9.5 -24v-231h-67v198h-12v-408h12v198h67v-232q0 -14 -9.5 -23.5t-23.5 -9.5zM146 700v-113q0 -14 -9.5 -23.5t-23.5 -9.5h-113v67h79v79h67z" />
<glyph unicode="&#x108;" d="M113 0h-80q-14 0 -23.5 9.5t-9.5 23.5v476q0 14 9.5 23.5t23.5 9.5h80q14 0 23.5 -9.5t9.5 -23.5v-233h-67v198h-12v-407h12v197h67v-231q0 -14 -9.5 -23.5t-23.5 -9.5zM146 554h-67v60l-6 6l-6 -6v-60h-67v73q0 15 10 24l39 40q10 10 24 10t24 -10l39 -40q10 -9 10 -24 v-73z" />
<glyph unicode="&#x109;" d="M113 0h-80q-14 0 -23.5 9.5t-9.5 23.5v475q0 14 9.5 24t23.5 10h80q14 0 23.5 -10t9.5 -24v-231h-67v198h-12v-408h12v198h67v-232q0 -14 -9.5 -23.5t-23.5 -9.5zM146 554h-67v60l-6 6l-6 -6v-60h-67v73q0 15 10 24l39 40q10 10 24 10t24 -10l39 -40q10 -9 10 -24v-73z " />
<glyph unicode="&#x10a;" d="M113 0h-80q-14 0 -23.5 9.5t-9.5 23.5v476q0 14 9.5 23.5t23.5 9.5h80q14 0 23.5 -9.5t9.5 -23.5v-232h-67v198h-12v-407h12v197h67v-232q0 -14 -9.5 -23.5t-23.5 -9.5zM40 700h67v-146h-67v146z" />
<glyph unicode="&#x10b;" d="M113 0h-80q-14 0 -23.5 9.5t-9.5 23.5v475q0 14 9.5 24t23.5 10h80q14 0 23.5 -10t9.5 -24v-231h-67v198h-12v-408h12v198h67v-232q0 -14 -9.5 -23.5t-23.5 -9.5zM40 700h67v-146h-67v146z" />
<glyph unicode="&#x10c;" d="M33 0h79q14 0 24 9.5t10 23.5v238h-67v-204h-12v408h12v-192h67v225q0 14 -10 24t-24 10h-79q-14 0 -23.5 -10t-9.5 -24v-475q0 -14 9.5 -23.5t23.5 -9.5zM0 700h67v-60l6 -6l6 6v60h67v-73q0 -15 -10 -24l-39 -40q-10 -10 -24 -10t-24 10l-39 40q-10 9 -10 24v73z" />
<glyph unicode="&#x10d;" d="M113 0h-80q-14 0 -23.5 9.5t-9.5 23.5v475q0 14 9.5 24t23.5 10h80q14 0 23.5 -10t9.5 -24v-231h-67v198h-12v-408h12v198h67v-232q0 -14 -9.5 -23.5t-23.5 -9.5zM0 700h67v-60l6 -6l6 6v60h67v-73q0 -15 -10 -24l-39 -40q-10 -10 -24 -10t-24 10l-39 40q-10 9 -10 24v73 z" />
<glyph unicode="&#x10e;" horiz-adv-x="237" d="M192 0h-192v265h67v-198h12v408h-12v-198h-67v265h192q14 0 23.5 -9.5t9.5 -23.5v-475q0 -14 -9.5 -24t-23.5 -10zM146 67h12v408h-12v-408zM39 700h67v-60l6 -6l6 6v60h67v-73q0 -15 -10 -24l-39 -40q-10 -10 -24 -10t-24 10l-39 40q-10 9 -10 24v73z" />
<glyph unicode="&#x10f;" horiz-adv-x="237" d="M33 0q-14 0 -23.5 9.5t-9.5 23.5v475q0 14 9.5 24t23.5 10h46v158h67v-700h-113zM79 475h-12v-408h12v408zM158 554v146h67v-146h-67v0z" />
<glyph unicode="&#x110;" horiz-adv-x="237" d="M192 0h-192v304h67v-237h12v249h-79v67h79v250h-12v-237h-67v304h192q14 0 23.5 -10t9.5 -24v-633q0 -14 -9.5 -23.5t-23.5 -9.5zM146 67h12v249h-12v-249zM146 383h12v250h-12v-250z" />
<glyph unicode="&#x111;" horiz-adv-x="198" d="M146 0h-113q-14 0 -23.5 10t-9.5 24v475q0 14 9.5 23.5t23.5 9.5h46v12h-39v67h39v79h67v-79h40v-67h-40v-554zM67 67h12v408h-12v-408z" />
<glyph unicode="&#x112;" d="M146 0h-146v621h146v-265h-67v198h-12v-210h79v-67h-79v-210h12v198h67v-265v0zM146 633h-146v67h146v-67v0z" />
<glyph unicode="&#x113;" d="M113 0h-80q-14 0 -23.5 9.5t-9.5 23.5v475q0 14 9.5 24t23.5 10h80q14 0 23.5 -10t9.5 -24v-271h-79v-170h12v158h67v-192q0 -14 -9.5 -23.5t-23.5 -9.5zM67 304h12v171h-12v-171zM146 554h-146v67h146v-67v0z" />
<glyph unicode="&#x114;" d="M146 0h-146v542h146v-225h-67v158h-12v-170h79v-67h-79v-171h12v159h67v-226zM0 700h67v-79h12v79h67v-112q0 -14 -9.5 -24t-23.5 -10h-80q-14 0 -23.5 10t-9.5 24v112z" />
<glyph unicode="&#x115;" d="M113 0h-80q-14 0 -23.5 9.5t-9.5 23.5v475q0 14 9.5 24t23.5 10h80q14 0 23.5 -10t9.5 -24v-271h-79v-170h12v158h67v-192q0 -14 -9.5 -23.5t-23.5 -9.5zM67 304h12v171h-12v-171zM0 700h67v-79h12v79h67v-112q0 -14 -9.5 -24t-23.5 -10h-80q-14 0 -23.5 10t-9.5 24v112z " />
<glyph unicode="&#x116;" d="M146 0h-146v542h146v-225h-67v158h-12v-170h79v-67h-79v-171h12v159h67v-226v0zM40 700h67v-146h-67v146z" />
<glyph unicode="&#x117;" d="M113 0h-80q-14 0 -23.5 9.5t-9.5 23.5v475q0 14 9.5 24t23.5 10h80q14 0 23.5 -10t9.5 -24v-271h-79v-170h12v158h67v-192q0 -14 -9.5 -23.5t-23.5 -9.5zM67 304h12v171h-12v-171zM40 700h67v-146h-67v146z" />
<glyph unicode="&#x118;" d="M146 -79h-73q-14 0 -23.5 10t-9.5 24v45h-40v700h146v-305h-67v238h-12v-250h79v-67h-79v-249h12v237h67v-304h-39v-12h39v-67z" />
<glyph unicode="&#x119;" d="M73 -79q-14 0 -23.5 9.5t-9.5 23.5v46h-7q-14 0 -23.5 9.5t-9.5 23.5v475q0 14 9.5 24t23.5 10h80q14 0 23.5 -10t9.5 -24v-271h-79v-170h12v158h67v-192q0 -14 -9.5 -23.5t-23.5 -9.5h-6v-12h39v-67h-73zM67 304h12v171h-12v-171z" />
<glyph unicode="&#x11a;" d="M146 0h-146v542h146v-225h-67v158h-12v-170h79v-67h-79v-171h12v159h67v-226zM0 700h67v-60l6 -6l6 6v60h67v-73q0 -15 -10 -24l-39 -40q-10 -10 -24 -10t-24 10l-39 40q-10 9 -10 24v73z" />
<glyph unicode="&#x11b;" d="M113 0h-80q-14 0 -23.5 9.5t-9.5 23.5v475q0 14 9.5 24t23.5 10h80q14 0 23.5 -10t9.5 -24v-271h-79v-170h12v158h67v-192q0 -14 -9.5 -23.5t-23.5 -9.5zM67 304h12v171h-12v-171zM0 700h67v-60l6 -6l6 6v60h67v-73q0 -15 -10 -24l-39 -40q-10 -10 -24 -10t-24 10l-39 40 q-10 9 -10 24v73z" />
<glyph unicode="&#x11c;" horiz-adv-x="198" d="M146 0h-113q-14 0 -23.5 9.5t-9.5 23.5v475q0 14 9.5 24t23.5 10h80q14 0 23.5 -10t9.5 -24v-231h-67v198h-12v-408h12v198h107v-67h-40v-198zM146 554h-67v60l-6 6l-6 -6v-60h-67v73q0 15 10 24l39 40q10 10 24 10t24 -10l39 -40q10 -9 10 -24v-73z" />
<glyph unicode="&#x11d;" d="M113 -158h-80q-14 0 -23.5 9.5t-9.5 23.5v113h67v-79h12v91h-46q-14 0 -23.5 9.5t-9.5 23.5v475q0 14 9.5 24t23.5 10h113v-667q0 -14 -9.5 -23.5t-23.5 -9.5zM67 67h12v408h-12v-408zM146 554h-67v60l-6 6l-6 -6v-60h-67v73q0 15 10 24l39 40q10 10 24 10t24 -10l39 -40 q10 -9 10 -24v-73z" />
<glyph unicode="&#x11e;" horiz-adv-x="198" d="M146 0h-113q-14 0 -23.5 9.5t-9.5 23.5v475q0 14 9.5 24t23.5 10h80q14 0 23.5 -10t9.5 -24v-231h-67v198h-12v-408h12v198h107v-67h-40v-198zM0 700h67v-79h12v79h67v-112q0 -14 -9.5 -24t-23.5 -10h-80q-14 0 -23.5 10t-9.5 24v112z" />
<glyph unicode="&#x11f;" d="M113 -158h-80q-14 0 -23.5 9.5t-9.5 23.5v113h67v-79h12v91h-46q-14 0 -23.5 9.5t-9.5 23.5v475q0 14 9.5 24t23.5 10h113v-667q0 -14 -9.5 -23.5t-23.5 -9.5zM67 67h12v408h-12v-408zM0 700h67v-79h12v79h67v-112q0 -14 -9.5 -24t-23.5 -10h-80q-14 0 -23.5 10t-9.5 24 v112z" />
<glyph unicode="&#x120;" horiz-adv-x="198" d="M146 0h-113q-14 0 -23.5 9.5t-9.5 23.5v475q0 14 9.5 24t23.5 10h80q14 0 23.5 -10t9.5 -24v-231h-67v198h-12v-408h12v198h107v-67h-40v-198zM40 700h67v-146h-67v146z" />
<glyph unicode="&#x121;" d="M113 -158h-80q-14 0 -23.5 9.5t-9.5 23.5v113h67v-79h12v91h-46q-14 0 -23.5 9.5t-9.5 23.5v475q0 14 9.5 24t23.5 10h113v-667q0 -14 -9.5 -23.5t-23.5 -9.5zM67 67h12v408h-12v-408zM40 700h67v-146h-67v146z" />
<glyph unicode="&#x122;" horiz-adv-x="198" d="M39 -91h-39v-67h73q14 0 23.5 9.5t9.5 23.5v113h-67v-79zM146 0h-112q-14 0 -24 10t-10 24v633q0 14 10 23.5t24 9.5h79q14 0 23.5 -9.5t9.5 -23.5v-311h-67v277h-12v-566h12v277h107v-67h-40v-277z" />
<glyph unicode="&#x123;" d="M106 554h-67v113q0 14 9.5 23.5t23.5 9.5h74v-67h-40v-79zM113 -158h-80q-14 0 -23.5 9.5t-9.5 23.5v113h67v-79h12v91h-46q-14 0 -23.5 9.5t-9.5 23.5v475q0 14 9.5 24t23.5 10h113v-667q0 -14 -9.5 -23.5t-23.5 -9.5zM67 67h12v408h-12v-408z" />
<glyph unicode="&#x124;" d="M146 0h-67v237h-12v-237h-67v542h67v-238h12v238h67v-542zM146 554h-67v60l-6 6l-6 -6v-60h-67v73q0 15 10 24l39 40q10 10 24 10t24 -10l39 -40q10 -9 10 -24v-73z" />
<glyph unicode="&#x125;" d="M146 0h-67v396h-12v-396h-67v542h67v-79h46q14 0 23.5 -10t9.5 -24v-429zM146 554h-67v60l-6 6l-6 -6v-60h-67v73q0 15 10 24l39 40q10 10 24 10t24 -10l39 -40q10 -9 10 -24v-73z" />
<glyph unicode="&#x126;" horiz-adv-x="237" d="M186 0h-67v316h-12v-316h-67v475h-40v67h40v158h67v-158h12v158h67v-158h39v-67h-39v-475v0zM107 383h12v92h-12v-92v0z" />
<glyph unicode="&#x127;" horiz-adv-x="198" d="M186 0h-67v475h-12v-475h-67v554h-40v67h40v79h67v-79h39v-67h-39v-12h45q14 0 24 -10t10 -24v-508z" />
<glyph unicode="&#x128;" horiz-adv-x="237" d="M225 0h-225v265h67v-198h12v408h-12v-198h-67v265h225v-265h-67v198h-12v-408h12v198h67v-265zM185 700v-73q0 -14 -9.5 -24t-23.5 -10h-46v-39h-67v73q0 14 9.5 23.5t23.5 9.5h46v40h67z" />
<glyph unicode="&#x129;" d="M40 0v542h67v-542h-67v0zM146 700v-73q0 -14 -9.5 -24t-23.5 -10h-46v-39h-67v73q0 14 9.5 23.5t23.5 9.5h46v40h67z" />
<glyph unicode="&#x12a;" horiz-adv-x="237" d="M225 0h-225v305h67v-238h12v487h-12v-237h-67v304h225v-304h-67v237h-12v-487h12v238h67v-305v0zM186 633h-146v67h146v-67v0z" />
<glyph unicode="&#x12b;" d="M39 0v542h67v-542h-67v0zM146 554h-146v67h146v-67v0z" />
<glyph unicode="&#x12c;" horiz-adv-x="237" d="M225 0h-225v265h67v-198h12v408h-12v-198h-67v265h225v-265h-67v198h-12v-408h12v198h67v-265zM39 700h67v-79h12v79h67v-112q0 -14 -9.5 -24t-23.5 -10h-80q-14 0 -23.5 10t-9.5 24v112z" />
<glyph unicode="&#x12d;" d="M40 0v542h67v-542h-67v0zM0 700h67v-79h12v79h67v-112q0 -14 -9.5 -24t-23.5 -10h-80q-14 0 -23.5 10t-9.5 24v112z" />
<glyph unicode="&#x12e;" horiz-adv-x="237" d="M186 -79h-73q-14 0 -24 10t-10 24v45h-79v343h67v-276h12v566h-12v-277h-67v344h225v-344h-67v277h-12v-566h12v276h67v-343h-79v-12h40v-67z" />
<glyph unicode="&#x12f;" horiz-adv-x="79" d="M33 -79q-14 0 -23.5 9.5t-9.5 23.5v588h67v-554h39v-67h-73zM67 554h-67v146h67v-146z" />
<glyph unicode="&#x130;" horiz-adv-x="237" d="M225 0h-225v265h67v-198h12v408h-12v-198h-67v265h225v-265h-67v198h-12v-408h12v198h67v-265zM79 700h67v-146h-67v146z" />
<glyph unicode="&#x131;" horiz-adv-x="79" d="M0 0v542h67v-542h-67v0z" />
<glyph unicode="&#x132;" horiz-adv-x="237" d="M0 700h67v-700h-67v700zM192 0h-79q-14 0 -24 10t-10 24v310h67v-277h12v566h-12v-79h-67v146h146v-666q0 -14 -9.5 -24t-23.5 -10z" />
<glyph unicode="&#x133;" d="M0 0v542h67v-542h-67zM67 700v-146h-67v146h67zM146 -124q0 -14 -9.5 -24t-23.5 -10h-80q-14 0 -23.5 10t-9.5 24v112h67v-79h12v633h67v-666zM79 700h67v-145h-67v145z" />
<glyph unicode="&#x134;" d="M113 0h-80q-14 0 -23.5 9.5t-9.5 23.5v311h67v-277h12v475h67v-509q0 -14 -9.5 -23.5t-23.5 -9.5zM146 554h-67v60l-6 6l-6 -6v-60h-67v73q0 15 10 24l39 40q10 10 24 10t24 -10l39 -40q10 -9 10 -24v-73z" />
<glyph unicode="&#x135;" d="M146 -124v666h-67v-633h-12v80h-67v-113q0 -14 9.5 -24t23.5 -10h80q14 0 23.5 10t9.5 24zM146 555h-67v60l-6 6l-6 -6v-60h-67v73q0 15 10 24l39 40q10 10 24 10t24 -10l39 -40q10 -9 10 -24v-73z" />
<glyph unicode="&#x136;" d="M39 -12h67v-113q0 -14 -9.5 -23.5t-23.5 -9.5h-73v67h39v79zM67 0h-67v277v67v12v67v277h67v-277h12v277h67v-310q0 -14 -9.5 -24t-23.5 -10h-46v-12h46q14 0 23.5 -10t9.5 -24v-310h-67v277h-12v-277z" />
<glyph unicode="&#x137;" d="M39 -91h-39v-67h73q14 0 23.5 9.5t9.5 23.5v113h-67v-79zM146 0h-67v198h-12v-198h-67v700h67v-356h12v198h67v-232q0 -14 -9.5 -23.5t-23.5 -9.5h-46v-12h46q14 0 23.5 -10t9.5 -24v-231z" />
<glyph unicode="&#x138;" d="M146 0h-67v198h-12v-198h-67v542h67v-198h12v198h67v-232q0 -14 -9.5 -23.5t-23.5 -9.5h-46v-12h46q14 0 23.5 -10t9.5 -24v-231z" />
<glyph unicode="&#x139;" d="M146 0h-146v542h67v-475h12v277h67v-344zM146 700v-113q0 -14 -9.5 -23.5t-23.5 -9.5h-113v67h79v79h67z" />
<glyph unicode="&#x13a;" d="M42 621h65v-621h-65v621zM146 779v-113q0 -14 -9.5 -23.5t-23.5 -9.5h-113v67h79v79h67z" />
<glyph unicode="&#x13b;" d="M39 -91h-39v-67h73q14 0 23.5 9.5t9.5 23.5v113h-67v-79zM146 0h-146v700h67v-633h12v277h67v-344z" />
<glyph unicode="&#x13c;" horiz-adv-x="79" d="M0 -12h67v-113q0 -14 -9.5 -23.5t-23.5 -9.5h-73v67h39v79zM0 700h67v-700h-67v700z" />
<glyph unicode="&#x13d;" d="M146 0h-146v700h67v-633h12v277h67v-344v0zM79 554v146h67v-146h-67v0z" />
<glyph unicode="&#x13e;" d="M0 0v700h67v-700h-67v0zM79 554v146h67v-146h-67v0z" />
<glyph unicode="&#x13f;" d="M146 0h-146v700h67v-633h12v198h67v-265v0zM146 277h-67v146h67v-146v0z" />
<glyph unicode="&#x140;" d="M0 0v700h67v-700h-67v0zM146 277h-67v146h67v-146v0z" />
<glyph unicode="&#x141;" horiz-adv-x="198" d="M186 0h-146v356h-40v67h40v277h67v-277h39v-67h-39v-289h12v277h67v-344v0z" />
<glyph unicode="&#x142;" horiz-adv-x="159" d="M107 0h-67v357h-40v67h40v276h67v-276h40v-67h-40v-357v0z" />
<glyph unicode="&#x143;" horiz-adv-x="237" d="M225 0h-112q-14 0 -24 10t-10 24v441h-12v-475h-67v542h113q14 0 23.5 -9.5t9.5 -23.5v-442h12v475h67v-542zM185 700v-113q0 -14 -9.5 -23.5t-23.5 -9.5h-113v67h79v79h67z" />
<glyph unicode="&#x144;" d="M146 0h-67v475h-12v-475h-67v542h113q14 0 23.5 -9.5t9.5 -23.5v-509zM146 700v-113q0 -14 -9.5 -23.5t-23.5 -9.5h-113v67h79v79h67z" />
<glyph unicode="&#x145;" horiz-adv-x="237" d="M79 -91h-39v-67h73q14 0 23.5 9.5t9.5 23.5v113h-67v-79zM225 0h-112q-14 0 -24 10t-10 24v599h-12v-633h-67v700h113q14 0 23.5 -9.5t9.5 -23.5v-600h12v633h67v-700z" />
<glyph unicode="&#x146;" d="M39 -91h-39v-67h73q14 0 23.5 9.5t9.5 23.5v113h-67v-79zM146 0h-67v475h-12v-475h-67v542h113q14 0 23.5 -9.5t9.5 -23.5v-509z" />
<glyph unicode="&#x147;" horiz-adv-x="237" d="M225 0h-112q-14 0 -24 10t-10 24v441h-12v-475h-67v542h113q14 0 23.5 -9.5t9.5 -23.5v-442h12v475h67v-542zM39 700h67v-60l6 -6l6 6v60h67v-73q0 -15 -10 -24l-39 -40q-10 -10 -24 -10t-24 10l-39 40q-10 9 -10 24v73z" />
<glyph unicode="&#x148;" d="M146 0h-67v475h-12v-475h-67v542h113q14 0 23.5 -9.5t9.5 -23.5v-509zM0 700h67v-60l6 -6l6 6v60h67v-73q0 -15 -10 -24l-39 -40q-10 -10 -24 -10t-24 10l-39 40q-10 9 -10 24v73z" />
<glyph unicode="&#x149;" d="M146 0h-67v475h-12v-475h-67v542h113q14 0 23.5 -9.5t9.5 -23.5v-509zM39 700h67v-113q0 -14 -9.5 -23.5t-23.5 -9.5h-73v67h39v79z" />
<glyph unicode="&#x14a;" d="M113 -79h-73v67h39v645h-12v-633h-67v700h113q14 0 23.5 -10t9.5 -24v-711q0 -14 -9.5 -24t-23.5 -10z" />
<glyph unicode="&#x14b;" d="M113 -79h-73v67h39v487h-12v-475h-67v542h113q14 0 23.5 -9.5t9.5 -23.5v-555q0 -14 -9.5 -23.5t-23.5 -9.5z" />
<glyph unicode="&#x14c;" d="M113 621h-80q-14 0 -23.5 -10t-9.5 -24v-554q0 -14 9.5 -23.5t23.5 -9.5h80q14 0 23.5 9.5t9.5 23.5v554q0 14 -9.5 24t-23.5 10zM79 67h-12v487h12v-487zM146 633h-146v67h146v-67z" />
<glyph unicode="&#x14d;" d="M146 33q0 -14 -10 -23.5t-24 -9.5h-79q-14 0 -23.5 9.5t-9.5 23.5v475q0 14 9.5 24t23.5 10h79q14 0 24 -10t10 -24v-475zM79 475h-12v-408h12v408zM146 554h-146v67h146v-67v0z" />
<glyph unicode="&#x14e;" d="M113 542q14 0 23.5 -10t9.5 -24v-475q0 -14 -9.5 -23.5t-23.5 -9.5h-80q-14 0 -23.5 9.5t-9.5 23.5v475q0 14 9.5 24t23.5 10h80zM79 475h-12v-408h12v408zM0 700h67v-79h12v79h67v-112q0 -14 -9.5 -24t-23.5 -10h-80q-14 0 -23.5 10t-9.5 24v112z" />
<glyph unicode="&#x14f;" d="M146 33q0 -14 -10 -23.5t-24 -9.5h-79q-14 0 -23.5 9.5t-9.5 23.5v475q0 14 9.5 24t23.5 10h79q14 0 24 -10t10 -24v-475zM79 475h-12v-408h12v408zM0 700h67v-79h12v79h67v-112q0 -14 -9.5 -24t-23.5 -10h-80q-14 0 -23.5 10t-9.5 24v112z" />
<glyph unicode="&#x150;" d="M112 542q14 0 24 -10t10 -24v-475q0 -14 -10 -23.5t-24 -9.5h-79q-14 0 -23.5 9.5t-9.5 23.5v475q0 14 9.5 24t23.5 10h79zM79 475h-12v-408h12v408zM146 554h-67v146h67v-146zM67 554h-67v146h67v-146z" />
<glyph unicode="&#x151;" d="M146 33q0 -14 -10 -23.5t-24 -9.5h-79q-14 0 -23.5 9.5t-9.5 23.5v475q0 14 9.5 24t23.5 10h79q14 0 24 -10t10 -24v-475zM79 475h-12v-408h12v408zM146 554h-67v146h67v-146zM67 554h-67v146h67v-146z" />
<glyph unicode="&#x152;" horiz-adv-x="237" d="M225 0h-192q-14 0 -23.5 10t-9.5 24v633q0 14 9.5 23.5t23.5 9.5h192v-304h-67v237h-12v-249h79v-67h-79v-250h12v238h67v-305zM67 67h12v566h-12v-566z" />
<glyph unicode="&#x153;" horiz-adv-x="237" d="M33 0q-14 0 -23.5 9.5t-9.5 23.5v475q0 14 9.5 24t23.5 10h159q14 0 23.5 -10t9.5 -24v-271h-79v-170h12v158h67v-192q0 -14 -9.5 -23.5t-23.5 -9.5h-159zM79 475h-12v-408h12v408zM158 304v171h-12v-171h12z" />
<glyph unicode="&#x154;" d="M146 0h-67v198h-12v-198h-67v542h113q14 0 23.5 -10t9.5 -24v-198q0 -14 -9.5 -23.5t-23.5 -9.5h-46v-12h46q14 0 23.5 -10t9.5 -24v-231zM67 344h12v131h-12v-131zM146 700v-113q0 -14 -9.5 -23.5t-23.5 -9.5h-113v67h79v79h67z" />
<glyph unicode="&#x155;" d="M67 0h-67v542h113q14 0 23.5 -10t9.5 -24v-192h-67v159h-12v-475zM146 700v-113q0 -14 -9.5 -23.5t-23.5 -9.5h-113v67h79v79h67z" />
<glyph unicode="&#x156;" d="M39 -91h-39v-67h73q14 0 23.5 9.5t9.5 23.5v113h-67v-79zM146 0h-67v277h-12v-277h-67v700h113q14 0 23.5 -9.5t9.5 -23.5v-277q0 -14 -9.5 -24t-23.5 -10h-46v-12h46q14 0 23.5 -10t9.5 -24v-310zM67 423h12v210h-12v-210z" />
<glyph unicode="&#x157;" d="M0 -91h-39v-67h73q14 0 23.5 9.5t9.5 23.5v113h-67v-79zM67 0h-67v542h113q14 0 23.5 -10t9.5 -24v-192h-67v159h-12v-475z" />
<glyph unicode="&#x158;" d="M146 0h-67v198h-12v-198h-67v542h113q14 0 23.5 -10t9.5 -24v-198q0 -14 -9.5 -23.5t-23.5 -9.5h-46v-12h46q14 0 23.5 -10t9.5 -24v-231zM67 344h12v131h-12v-131zM0 700h67v-60l6 -6l6 6v60h67v-73q0 -15 -10 -24l-39 -40q-10 -10 -24 -10t-24 10l-39 40q-10 9 -10 24 v73z" />
<glyph unicode="&#x159;" d="M67 0h-67v542h113q14 0 23.5 -10t9.5 -24v-192h-67v159h-12v-475zM0 700h67v-60l6 -6l6 6v60h67v-73q0 -15 -10 -24l-39 -40q-10 -10 -24 -10t-24 10l-39 40q-10 9 -10 24v73z" />
<glyph unicode="&#x15a;" d="M112 0h-79q-14 0 -23.5 9.5t-9.5 23.5v192h67v-158h12v170h-46q-14 0 -23.5 10t-9.5 24v237q0 14 9.5 24t23.5 10h79q14 0 24 -10t10 -24v-192h-67v159h-12v-171h45q14 0 24 -9.5t10 -23.5v-238q0 -14 -10 -23.5t-24 -9.5zM146 700v-113q0 -14 -9.5 -23.5t-23.5 -9.5 h-113v67h79v79h67z" />
<glyph unicode="&#x15b;" d="M113 0h-80q-14 0 -23.5 9.5t-9.5 23.5v192h67v-158h12v170h-46q-14 0 -23.5 10t-9.5 24v237q0 14 9.5 24t23.5 10h80q14 0 23.5 -10t9.5 -24v-192h-67v159h-12v-171h46q14 0 23.5 -9.5t9.5 -23.5v-238q0 -14 -9.5 -23.5t-23.5 -9.5zM146 700v-113q0 -14 -9.5 -23.5 t-23.5 -9.5h-113v67h79v79h67z" />
<glyph unicode="&#x15c;" d="M112 0h-79q-14 0 -23.5 9.5t-9.5 23.5v192h67v-158h12v170h-46q-14 0 -23.5 10t-9.5 24v237q0 14 9.5 24t23.5 10h79q14 0 24 -10t10 -24v-192h-67v159h-12v-171h45q14 0 24 -9.5t10 -23.5v-238q0 -14 -10 -23.5t-24 -9.5zM146 554h-67v60l-6 6l-6 -6v-60h-67v73 q0 15 10 24l39 40q10 10 24 10t24 -10l39 -40q10 -9 10 -24v-73z" />
<glyph unicode="&#x15d;" d="M113 0h-80q-14 0 -23.5 9.5t-9.5 23.5v192h67v-158h12v170h-46q-14 0 -23.5 10t-9.5 24v237q0 14 9.5 24t23.5 10h80q14 0 23.5 -10t9.5 -24v-192h-67v159h-12v-171h46q14 0 23.5 -9.5t9.5 -23.5v-238q0 -14 -9.5 -23.5t-23.5 -9.5zM146 554h-67v60l-6 6l-6 -6v-60h-67 v73q0 15 10 24l39 40q10 10 24 10t24 -10l39 -40q10 -9 10 -24v-73z" />
<glyph unicode="&#x15e;" d="M33 0q-14 0 -23.5 9.5t-9.5 23.5v271h67v-237h12v250h-46q-14 0 -23.5 9.5t-9.5 23.5v317q0 14 9.5 23.5t23.5 9.5h80q14 0 23.5 -9.5t9.5 -23.5v-271h-67v237h-12v-249h46q14 0 23.5 -10t9.5 -24v-317q0 -14 -9.5 -23.5t-23.5 -9.5h-7v-12h6q14 0 24 -10t10 -24v-79 q0 -14 -10 -23.5t-24 -9.5h-73v67h40v12h-7q-14 0 -23.5 9.5t-9.5 23.5v46h-6v0z" />
<glyph unicode="&#x15f;" d="M113 0h-7v-12h6q14 0 24 -10t10 -24v-79q0 -14 -10 -23.5t-24 -9.5h-73v67h40v12h-7q-14 0 -23.5 9.5t-9.5 23.5v46h-6q-14 0 -23.5 9.5t-9.5 23.5v192h67v-158h12v170h-46q-14 0 -23.5 10t-9.5 24v237q0 14 9.5 24t23.5 10h80q14 0 23.5 -10t9.5 -24v-192h-67v159h-12 v-171h46q14 0 23.5 -9.5t9.5 -23.5v-238q0 -14 -9.5 -23.5t-23.5 -9.5z" />
<glyph unicode="&#x160;" d="M112 0h-79q-14 0 -23.5 9.5t-9.5 23.5v192h67v-158h12v170h-46q-14 0 -23.5 10t-9.5 24v237q0 14 9.5 24t23.5 10h79q14 0 24 -10t10 -24v-192h-67v159h-12v-171h45q14 0 24 -9.5t10 -23.5v-238q0 -14 -10 -23.5t-24 -9.5zM0 700h67v-60l6 -6l6 6v60h67v-73 q0 -15 -10 -24l-39 -40q-10 -10 -24 -10t-24 10l-39 40q-10 9 -10 24v73z" />
<glyph unicode="&#x161;" d="M113 0h-80q-14 0 -23.5 9.5t-9.5 23.5v192h67v-158h12v170h-46q-14 0 -23.5 10t-9.5 24v237q0 14 9.5 24t23.5 10h80q14 0 23.5 -10t9.5 -24v-192h-67v159h-12v-171h46q14 0 23.5 -9.5t9.5 -23.5v-238q0 -14 -9.5 -23.5t-23.5 -9.5zM0 700h67v-60l6 -6l6 6v60h67v-73 q0 -15 -10 -24l-39 -40q-10 -10 -24 -10t-24 10l-39 40q-10 9 -10 24v73z" />
<glyph unicode="&#x162;" horiz-adv-x="237" d="M79 -91h-39v-67h73q14 0 23.5 9.5t9.5 23.5v113h-67v-79zM146 0h-67v633h-12v-277h-67v344h225v-344h-67v277h-12v-633z" />
<glyph unicode="&#x163;" horiz-adv-x="119" d="M0 -12h67v-113q0 -14 -9.5 -23.5t-23.5 -9.5h-73v67h39v79zM107 542v-67h-40v-475h-67v700h67v-158h40z" />
<glyph unicode="&#x164;" horiz-adv-x="237" d="M146 0h-67v475h-12v-198h-67v265h225v-265h-67v198h-12v-475zM40 700h67v-60l6 -6l6 6v60h67v-73q0 -15 -10 -24l-39 -40q-10 -10 -24 -10t-24 10l-39 40q-10 9 -10 24v73z" />
<glyph unicode="&#x165;" d="M67 542h40v-67h-40v-475h-67v700h67v-158v0zM79 554v146h67v-146h-67v0z" />
<glyph unicode="&#x166;" horiz-adv-x="237" d="M146 0h-67v317h-79v67h79v249h-12v-237h-67v304h225v-304h-67v237h-12v-249h79v-67h-79v-317v0z" />
<glyph unicode="&#x167;" d="M0 463h39v237h67v-158h40v-67h-40v-12h40v-67h-40v-396h-67v396h-39v67z" />
<glyph unicode="&#x168;" d="M79 542h67v-509q0 -14 -10 -23.5t-24 -9.5h-79q-14 0 -23.5 9.5t-9.5 23.5v509h67v-475h12v475zM146 700v-73q0 -14 -9.5 -24t-23.5 -10h-46v-39h-67v73q0 14 9.5 23.5t23.5 9.5h46v40h67z" />
<glyph unicode="&#x169;" d="M79 542h67v-509q0 -14 -10 -23.5t-24 -9.5h-79q-14 0 -23.5 9.5t-9.5 23.5v509h67v-475h12v475zM146 700v-73q0 -14 -9.5 -24t-23.5 -10h-46v-39h-67v73q0 14 9.5 23.5t23.5 9.5h46v40h67z" />
<glyph unicode="&#x16a;" d="M33 0h80q14 0 23.5 9.5t9.5 23.5v588h-67v-554h-12v554h-67v-588q0 -14 9.5 -23.5t23.5 -9.5zM146 633h-146v67h146v-67z" />
<glyph unicode="&#x16b;" d="M79 542h67v-509q0 -14 -10 -23.5t-24 -9.5h-79q-14 0 -23.5 9.5t-9.5 23.5v509h67v-475h12v475zM146 554h-146v67h146v-67v0z" />
<glyph unicode="&#x16c;" d="M79 542h67v-509q0 -14 -10 -23.5t-24 -9.5h-79q-14 0 -23.5 9.5t-9.5 23.5v509h67v-475h12v475zM0 700h67v-79h12v79h67v-112q0 -14 -9.5 -24t-23.5 -10h-80q-14 0 -23.5 10t-9.5 24v112z" />
<glyph unicode="&#x16d;" d="M79 542h67v-509q0 -14 -10 -23.5t-24 -9.5h-79q-14 0 -23.5 9.5t-9.5 23.5v509h67v-475h12v475zM0 700h67v-79h12v79h67v-112q0 -14 -9.5 -24t-23.5 -10h-80q-14 0 -23.5 10t-9.5 24v112z" />
<glyph unicode="&#x16e;" d="M79 542h67v-509q0 -14 -10 -23.5t-24 -9.5h-79q-14 0 -23.5 9.5t-9.5 23.5v509h67v-475h12v475zM112 700q14 0 24 -10t10 -24v-79q0 -14 -10 -23.5t-24 -9.5h-79q-14 0 -23.5 9.5t-9.5 23.5v79q0 14 9.5 24t23.5 10h79zM79 633h-12v-12h12v12z" />
<glyph unicode="&#x16f;" d="M79 542h67v-509q0 -14 -10 -23.5t-24 -9.5h-79q-14 0 -23.5 9.5t-9.5 23.5v509h67v-475h12v475zM112 700q14 0 24 -10t10 -24v-79q0 -14 -10 -23.5t-24 -9.5h-79q-14 0 -23.5 9.5t-9.5 23.5v79q0 14 9.5 24t23.5 10h79zM79 633h-12v-12h12v12z" />
<glyph unicode="&#x170;" d="M79 542h67v-509q0 -14 -10 -23.5t-24 -9.5h-79q-14 0 -23.5 9.5t-9.5 23.5v509h67v-475h12v475zM146 554h-67v146h67v-146zM67 554h-67v146h67v-146z" />
<glyph unicode="&#x171;" d="M79 542h67v-509q0 -14 -10 -23.5t-24 -9.5h-79q-14 0 -23.5 9.5t-9.5 23.5v509h67v-475h12v475zM146 554h-67v146h67v-146zM67 554h-67v146h67v-146z" />
<glyph unicode="&#x172;" d="M33 0q-14 0 -23.5 9.5t-9.5 23.5v667h67v-633h12v633h67v-667q0 -14 -9.5 -23.5t-23.5 -9.5h-6v-12h39v-67h-73q-14 0 -23.5 9.5t-9.5 23.5v46h-7v0z" />
<glyph unicode="&#x173;" d="M112 -79q-14 0 -23.5 9.5t-9.5 23.5v46h-46q-14 0 -23.5 9.5t-9.5 23.5v507h67v-473h12v473h67v-552h39v-67h-73z" />
<glyph unicode="&#x174;" horiz-adv-x="237" d="M33 0q-14 0 -23.5 10t-9.5 24v508h67v-475h12v475h67v-475h12v475h67v-542h-192zM186 554h-67v60l-6 6l-6 -6v-60h-67v73q0 15 10 24l39 40q10 10 24 10t24 -10l39 -40q10 -9 10 -24v-73z" />
<glyph unicode="&#x175;" horiz-adv-x="237" d="M33 0q-14 0 -23.5 9.5t-9.5 23.5v509h67v-475h12v475h67v-475h12v475h67v-542h-192zM186 554h-67v60l-6 6l-6 -6v-60h-67v73q0 15 10 24l39 40q10 10 24 10t24 -10l39 -40q10 -9 10 -24v-73z" />
<glyph unicode="&#x176;" d="M107 0h-67v237h-6q-14 0 -24 10t-10 24v271h67v-238h12v238h67v-271q0 -14 -9.5 -24t-23.5 -10h-6v-237zM146 554h-67v60l-6 6l-6 -6v-60h-67v73q0 15 10 24l39 40q10 10 24 10t24 -10l39 -40q10 -9 10 -24v-73z" />
<glyph unicode="&#x177;" d="M79 542h67v-667q0 -14 -10 -23.5t-24 -9.5h-79q-14 0 -23.5 9.5t-9.5 23.5v113h67v-79h12v91h-46q-14 0 -23.5 9.5t-9.5 23.5v509h67v-475h12v475zM146 554h-67v60l-6 6l-6 -6v-60h-67v73q0 15 10 24l39 40q10 10 24 10t24 -10l39 -40q10 -9 10 -24v-73z" />
<glyph unicode="&#x178;" d="M146 542v-271q0 -14 -10 -24t-24 -10h-6v-237h-67v237h-6q-14 0 -23.5 10t-9.5 24v271h67v-238h12v238h67zM146 554h-67v146h67v-146zM67 554h-67v146h67v-146z" />
<glyph unicode="&#x179;" d="M146 0h-146v231q0 15 10 24l69 69v151h-12v-119h-67v186h146v-232q0 -14 -10 -23l-69 -70v-150h12v119h67v-186zM146 700v-113q0 -14 -9.5 -23.5t-23.5 -9.5h-113v67h79v79h67z" />
<glyph unicode="&#x17a;" d="M146 0h-146v231q0 15 10 24l69 69v151h-12v-119h-67v186h146v-232q0 -14 -10 -23l-69 -70v-150h12v119h67v-186zM146 700v-113q0 -14 -9.5 -23.5t-23.5 -9.5h-113v67h79v79h67z" />
<glyph unicode="&#x17b;" d="M146 0h-146v231q0 15 10 24l69 69v151h-12v-119h-67v186h146v-232q0 -14 -10 -23l-69 -70v-150h12v119h67v-186zM40 700h67v-146h-67v146z" />
<glyph unicode="&#x17c;" d="M146 0h-146v231q0 15 10 24l69 69v151h-12v-119h-67v186h146v-232q0 -14 -10 -23l-69 -70v-150h12v119h67v-186zM40 700h67v-146h-67v146z" />
<glyph unicode="&#x17d;" d="M146 0h-146v231q0 15 10 24l69 69v151h-12v-119h-67v186h146v-232q0 -14 -10 -23l-69 -70v-150h12v119h67v-186zM0 700h67v-60l6 -6l6 6v60h67v-73q0 -15 -10 -24l-39 -40q-10 -10 -24 -10t-24 10l-39 40q-10 9 -10 24v73z" />
<glyph unicode="&#x17e;" d="M146 0h-146v231q0 15 10 24l69 69v151h-12v-119h-67v186h146v-232q0 -14 -10 -23l-69 -70v-150h12v119h67v-186zM0 700h67v-60l6 -6l6 6v60h67v-73q0 -15 -10 -24l-39 -40q-10 -10 -24 -10t-24 10l-39 40q-10 9 -10 24v73z" />
<glyph unicode="&#x17f;" horiz-adv-x="198" d="M107 0h-67v396h-40v67h40v203q0 14 9.5 24t23.5 10h79q14 0 24 -10t10 -24v-191h-67v158h-12v-633z" />
<glyph unicode="&#x1fa;" d="M146 0h-67v198h-12v-198h-67v429q0 14 10 24t24 10h79q14 0 23.5 -10t9.5 -24v-429zM68 265h12v131h-12v-131zM112 621h-79q-14 0 -23.5 -10t-9.5 -24v-79q0 -14 9.5 -23.5t23.5 -9.5h79q14 0 24 9.5t10 23.5v79q0 14 -10 24t-24 10zM79 542h-12v12h12v-12zM146 633h-146 v67h146v-67z" />
<glyph unicode="&#x1fb;" d="M146 0h-113q-14 0 -23.5 10t-9.5 24v198q0 14 9.5 23.5t23.5 9.5h46v131h-12v-119h-67v153q0 14 9.5 23.5t23.5 9.5h80q14 0 23.5 -9.5t9.5 -23.5v-430zM67 67h12v131h-12v-131zM112 621h-79q-14 0 -23.5 -10t-9.5 -24v-79q0 -14 9.5 -23.5t23.5 -9.5h79q14 0 24 9.5 t10 23.5v79q0 14 -10 24t-24 10zM79 542h-12v12h12v-12zM146 633h-146v67h146v-67z" />
<glyph unicode="&#x1fc;" horiz-adv-x="237" d="M225 0h-146v237h-12v-237h-67v508q0 14 9.5 24t23.5 10h192v-226h-67v159h-12v-171h79v-67h-79v-170h12v158h67v-225zM67 304h12v171h-12v-171zM186 700v-113q0 -14 -9.5 -23.5t-23.5 -9.5h-113v67h79v79h67z" />
<glyph unicode="&#x1fd;" horiz-adv-x="237" d="M192 0h-159q-14 0 -23.5 9.5t-9.5 23.5v238q0 14 9.5 23.5t23.5 9.5h46v171h-12v-159h-67v192q0 14 9.5 24t23.5 10h159q14 0 23.5 -10t9.5 -24v-271h-79v-170h12v158h67v-192q0 -14 -9.5 -23.5t-23.5 -9.5zM146 304h12v171h-12v-171zM67 67h12v170h-12v-170zM185 700 v-113q0 -14 -9.5 -23.5t-23.5 -9.5h-113v67h79v79h67z" />
<glyph unicode="&#x1fe;" horiz-adv-x="238" d="M147 0h-67v79h-46q-14 0 -24 10t-10 24v395q0 14 10 24t24 10h158q14 0 24 -10t10 -24v-395q0 -14 -10 -24t-24 -10h-45v-79zM147 146h12v329h-12v-329zM67 146h13v329h-13v-329zM186 700v-113q0 -14 -9.5 -23.5t-23.5 -9.5h-113v67h79v79h67z" />
<glyph unicode="&#x1ff;" horiz-adv-x="238" d="M192 542q14 0 24 -10t10 -24v-475q0 -14 -10 -23.5t-24 -9.5h-45v-79h-67v79h-46q-14 0 -24 9.5t-10 23.5v475q0 14 10 24t24 10h158zM80 67v408h-13v-408h13zM159 475h-12v-408h12v408zM186 700v-113q0 -14 -9.5 -23.5t-23.5 -9.5h-113v67h79v79h67z" />
<glyph unicode="&#x218;" d="M39 -12h67v-113q0 -14 -9.5 -23.5t-23.5 -9.5h-73v67h39v79zM33 0q-14 0 -23.5 9.5t-9.5 23.5v271h67v-237h12v250h-46q-14 0 -23.5 9.5t-9.5 23.5v317q0 14 9.5 23.5t23.5 9.5h80q14 0 23.5 -9.5t9.5 -23.5v-271h-67v237h-12v-249h46q14 0 23.5 -10t9.5 -24v-317 q0 -14 -9.5 -23.5t-23.5 -9.5h-80z" />
<glyph unicode="&#x219;" d="M39 -91h-39v-67h73q14 0 23.5 9.5t9.5 23.5v113h-67v-79zM113 0h-80q-14 0 -23.5 9.5t-9.5 23.5v192h67v-158h12v170h-46q-14 0 -23.5 10t-9.5 24v237q0 14 9.5 24t23.5 10h80q14 0 23.5 -10t9.5 -24v-192h-67v159h-12v-171h46q14 0 23.5 -9.5t9.5 -23.5v-238 q0 -14 -9.5 -23.5t-23.5 -9.5z" />
<glyph unicode="&#x21a;" horiz-adv-x="237" d="M79 -91h-39v-67h73q14 0 23.5 9.5t9.5 23.5v113h-67v-79zM146 0h-67v633h-12v-277h-67v344h225v-344h-67v277h-12v-633z" />
<glyph unicode="&#x21b;" horiz-adv-x="119" d="M0 -12h67v-113q0 -14 -9.5 -23.5t-23.5 -9.5h-73v67h39v79zM107 542v-67h-40v-475h-67v700h67v-158h40z" />
<glyph unicode="&#x2c6;" d="M146 554h-67v60l-6 6l-6 -6v-60h-67v73q0 15 10 24l39 40q10 10 24 10t24 -10l39 -40q10 -9 10 -24v-73z" />
<glyph unicode="&#x2c7;" d="M0 700h67v-60l6 -6l6 6v60h67v-73q0 -15 -10 -24l-39 -40q-10 -10 -24 -10t-24 10l-39 40q-10 9 -10 24v73z" />
<glyph unicode="&#x2d8;" d="M0 700h67v-79h12v79h67v-112q0 -14 -9.5 -24t-23.5 -10h-80q-14 0 -23.5 10t-9.5 24v112z" />
<glyph unicode="&#x2d9;" horiz-adv-x="79" d="M0 700h67v-146h-67v146z" />
<glyph unicode="&#x2da;" d="M112 700q14 0 24 -10t10 -24v-79q0 -14 -10 -23.5t-24 -9.5h-79q-14 0 -23.5 9.5t-9.5 23.5v79q0 14 9.5 24t23.5 10h79zM79 633h-12v-12h12v12z" />
<glyph unicode="&#x2db;" horiz-adv-x="119" d="M33 -79q-14 0 -23.5 9.5t-9.5 23.5v113h67v-79h40v-67h-74z" />
<glyph unicode="&#x2dc;" d="M146 700v-73q0 -14 -9.5 -24t-23.5 -10h-46v-39h-67v73q0 14 9.5 23.5t23.5 9.5h46v40h67z" />
<glyph unicode="&#x2dd;" d="M146 554h-67v146h67v-146zM67 554h-67v146h67v-146z" />
<glyph unicode="&#x400;" d="M146 0h-146v542h146v-225h-67v158h-12v-170h79v-67h-79v-171h12v159h67v-226zM146 554h-113q-14 0 -23.5 9.5t-9.5 23.5v113h67v-79h79v-67z" />
<glyph unicode="&#x401;" d="M146 0h-146v542h146v-225h-67v158h-12v-170h79v-67h-79v-171h12v159h67v-226v0zM146 700v-146h-67v0v0v146h67zM67 700v-146h-67v146h67v0v0z" />
<glyph unicode="&#x402;" horiz-adv-x="237" d="M225 700v-225h-67v158h-12v-170h46q14 0 23.5 -10t9.5 -24v-475q0 -14 -9.5 -23.5t-23.5 -9.5h-73v67h39v408h-12v-396h-67v633h-12v-158h-67v225h225z" />
<glyph unicode="&#x403;" d="M67 0h-67v542h146v-67h-79v-475zM146 700v-113q0 -14 -9.5 -23.5t-23.5 -9.5h-113v67h79v79h67z" />
<glyph unicode="&#x404;" d="M33 0q-14 0 -23.5 9.5t-9.5 23.5v283v67v283q0 14 9.5 24t23.5 10h80q14 0 23.5 -10t9.5 -24v-270h-67v237h-12v-250h79v-67h-79v-249h12v237h67v-271q0 -14 -9.5 -23.5t-23.5 -9.5h-80v0z" />
<glyph unicode="&#x405;" d="M33 0q-14 0 -23.5 9.5t-9.5 23.5v271h67v-237h12v250h-46q-14 0 -23.5 9.5t-9.5 23.5v317q0 14 9.5 23.5t23.5 9.5h80q14 0 23.5 -9.5t9.5 -23.5v-271h-67v237h-12v-249h46q14 0 23.5 -10t9.5 -24v-317q0 -14 -9.5 -23.5t-23.5 -9.5h-80v0z" />
<glyph unicode="&#x406;" horiz-adv-x="237" d="M226 0h-225v344h67v-277h12v566h-12v-277h-67v344h225v-344h-67v277h-12v-566h12v277h67v-344z" />
<glyph unicode="&#x407;" horiz-adv-x="237" d="M225 0h-225v265h67v-198h12v408h-12v-198h-67v265h225v-265h-67v198h-12v-408h12v198h67v-265zM185 700v-146h-67v0v0v146h67zM106 700v-146h-67v146h67v0v0z" />
<glyph unicode="&#x408;" d="M113 0h-79q-14 0 -24 10t-10 24v310h67v-277h12v566h-12v-79h-67v146h146v-666q0 -14 -9.5 -24t-23.5 -10z" />
<glyph unicode="&#x409;" horiz-adv-x="316" d="M271 0h-79q-14 0 -24 10t-10 24v599h-12v-599q0 -14 -9.5 -24t-23.5 -10h-80q-14 0 -23.5 10t-9.5 24v310h67v-277h12v566h-12v-79h-67v146h225v-237h46q14 0 23.5 -9.5t9.5 -23.5v-396q0 -14 -9.5 -24t-23.5 -10zM225 67h12v329h-12v-329z" />
<glyph unicode="&#x40a;" horiz-adv-x="237" d="M67 0h-67v700h67v-317h12v317h67v-237h46q14 0 23.5 -10t9.5 -24v-396q0 -14 -9.5 -23.5t-23.5 -9.5h-113v316h-12v-316zM146 67h12v329h-12v-329z" />
<glyph unicode="&#x40b;" horiz-adv-x="237" d="M225 0h-67v396h-12v-396h-67v633h-12v-158h-67v225h225v-225h-67v158h-12v-170h46q14 0 23.5 -10t9.5 -24v-429z" />
<glyph unicode="&#x40c;" d="M146 0h-67v198h-12v-198h-67v542h67v-198h12v198h67v-232q0 -14 -9.5 -23.5t-23.5 -9.5h-46v-12h46q14 0 23.5 -10t9.5 -24v-231zM146 700v-113q0 -14 -9.5 -23.5t-23.5 -9.5h-113v67h79v79h67z" />
<glyph unicode="&#x40d;" horiz-adv-x="237" d="M225 0h-112q-14 0 -24 10t-10 24v441h-12v-475h-67v542h113q14 0 23.5 -9.5t9.5 -23.5v-442h12v475h67v-542zM186 554h-113q-14 0 -23.5 9.5t-9.5 23.5v113h67v-79h79v-67z" />
<glyph unicode="&#x40e;" d="M113 0h-80q-14 0 -23.5 10t-9.5 24v192h67v-159h12v171h-46q-14 0 -23.5 9.5t-9.5 23.5v271h67v-237h12v237h67v-508q0 -14 -9.5 -24t-23.5 -10zM0 700h67v-79h12v79h67v-112q0 -14 -9.5 -24t-23.5 -10h-80q-14 0 -23.5 10t-9.5 24v112z" />
<glyph unicode="&#x40f;" d="M107 -79h-67v79h-40v700h67v-633h12v633h67v-700h-39v-79v0z" />
<glyph unicode="&#x410;" d="M113 700q14 0 23.5 -10t9.5 -24v-283v-67v-316h-67v316h-12v-316h-67v316v67v283q0 14 9.5 24t23.5 10h80zM79 383v250h-12v-250h12z" />
<glyph unicode="&#x411;" d="M113 0h-80q-14 0 -23.5 10t-9.5 24v633q0 14 9.5 23.5t23.5 9.5h113v-67h-79v-92h46q14 0 23.5 -9.5t9.5 -23.5v-474q0 -14 -9.5 -24t-23.5 -10zM67 67h12v407h-12v-407z" />
<glyph unicode="&#x412;" d="M113 0h-113v700h113q14 0 23.5 -10t9.5 -24v-277q0 -14 -9.5 -23.5t-23.5 -9.5h-46v-13h46q14 0 23.5 -9.5t9.5 -23.5v-277q0 -14 -9.5 -23.5t-23.5 -9.5zM67 67h12v209h-12v-209zM67 423h12v210h-12v-210z" />
<glyph unicode="&#x413;" d="M67 0h-67v700h146v-67h-79v-633v0z" />
<glyph unicode="&#x414;" horiz-adv-x="237" d="M225 -79h-67v79h-91v-79h-67v113v6l40 234v426h146v-633h6q14 0 23.5 -9.5t9.5 -23.5v-113zM73 67h46v566h-12v-362q0 -2 -0.5 -3t-0.5 -3z" />
<glyph unicode="&#x415;" d="M146 0h-146v700h146v-304h-67v237h-12v-249h79v-67h-79v-250h12v237h67v-304v0z" />
<glyph unicode="&#x416;" horiz-adv-x="237" d="M225 0h-67v277h-12v-277h-67v277h-12v-277h-67v310q0 14 9.5 24t23.5 10h46v12h-46q-14 0 -23.5 10t-9.5 24v310h67v-277h12v277h67v-277h12v277h67v-310q0 -14 -9.5 -24t-23.5 -10h-46v-12h46q14 0 23.5 -10t9.5 -24v-310z" />
<glyph unicode="&#x417;" d="M113 700q14 0 23.5 -9.5t9.5 -23.5v-283v-67v-284q0 -14 -9.5 -23.5t-23.5 -9.5h-80q-14 0 -23.5 9.5t-9.5 23.5v271h67v-237h12v250h-79v67h79v249h-12v-237h-67v271q0 14 9.5 23.5t23.5 9.5h80v0z" />
<glyph unicode="&#x418;" horiz-adv-x="237" d="M0.0136719 0h111.993q13.999 0 23.999 10q9.99902 10 9.99902 24v599h11.999v-633h66.9961v700h-112.993q-13.999 0 -23.498 -9.5q-9.5 -9.5 -9.5 -23.5v-600h-11.999v633h-66.9961v-700z" />
<glyph unicode="&#x419;" horiz-adv-x="237" d="M225 0h-112q-14 0 -24 10t-10 24v441h-12v-475h-67v542h113q14 0 23.5 -9.5t9.5 -23.5v-442h12v475h67v-542zM40 700h67v-79h12v79h67v-112q0 -14 -9.5 -24t-23.5 -10h-80q-14 0 -23.5 10t-9.5 24v112z" />
<glyph unicode="&#x41a;" d="M67 0h-67v277v67v12v67v277h67v-277h12v277h67v-310q0 -14 -9.5 -24t-23.5 -10h-46v-12h46q14 0 23.5 -10t9.5 -24v-310h-67v277h-12v-277z" />
<glyph unicode="&#x41b;" horiz-adv-x="198" d="M186 0h-67v633h-12v-599q0 -14 -10 -24t-24 -10h-73v67h40v633h146v-700z" />
<glyph unicode="&#x41c;" horiz-adv-x="237" d="M225 0h-67v633h-12v-633h-67v633h-12v-633h-67v700h192q14 0 23.5 -9.5t9.5 -23.5v-667z" />
<glyph unicode="&#x41d;" d="M67 316v-316h-67v316v67v317h67v-317h12v317h67v-317v-67v-316h-67v316h-12v0z" />
<glyph unicode="&#x41e;" d="M33 0q-14 0 -23.5 9.5t-9.5 23.5v634q0 14 9.5 23.5t23.5 9.5h80q14 0 23.5 -9.5t9.5 -23.5v-634q0 -14 -9.5 -23.5t-23.5 -9.5h-80zM67 67h12v566h-12v-566z" />
<glyph unicode="&#x41f;" d="M146 0h-67v633h-12v-633h-67v700h146v-700v0z" />
<glyph unicode="&#x420;" d="M67 0h-67v700h113q14 0 23.5 -9.5t9.5 -23.5v-317q0 -14 -9.5 -23.5t-23.5 -9.5h-46v-317zM67 384h12v249h-12v-249z" />
<glyph unicode="&#x421;" d="M33 0q-14 0 -23.5 9.5t-9.5 23.5v633q0 14 9.5 24t23.5 10h80q14 0 23.5 -10t9.5 -24v-310h-67v277h-12v-566h12v277h67v-311q0 -14 -9.5 -23.5t-23.5 -9.5h-80v0z" />
<glyph unicode="&#x422;" horiz-adv-x="237" d="M146 0h-67v633h-12v-277h-67v344h225v-344h-67v277h-12v-633v0z" />
<glyph unicode="&#x423;" d="M113 0h-80q-14 0 -23.5 9.5t-9.5 23.5v192h67v-158h12v170h-46q-14 0 -23.5 10t-9.5 24v429h67v-396h12v396h67v-667q0 -14 -9.5 -23.5t-23.5 -9.5z" />
<glyph unicode="&#x424;" horiz-adv-x="237" d="M192 621q14 0 23.5 -10t9.5 -24v-474q0 -14 -9.5 -24t-23.5 -10h-46v-79h-67v79h-46q-14 0 -23.5 10t-9.5 24v474q0 14 9.5 24t23.5 10h46v79h67v-79h46zM79 146v408h-12v-408h12zM158 554h-12v-408h12v408z" />
<glyph unicode="&#x425;" d="M79 700h67v-310q0 -14 -9.5 -24t-23.5 -10h-6v-12h6q14 0 23.5 -10t9.5 -24v-310h-67v277h-12v-277h-67v310q0 14 9.5 24t23.5 10h7v12h-7q-14 0 -23.5 10t-9.5 24v310h67v-277h12v277z" />
<glyph unicode="&#x426;" horiz-adv-x="198" d="M186 -79h-67v79h-119v700h67v-633h12v633h67v-633h6q14 0 24 -10t10 -24v-112z" />
<glyph unicode="&#x427;" d="M79 0v237h-46q-14 0 -23.5 10t-9.5 24v429h67v-396h12v396h67v-700h-67z" />
<glyph unicode="&#x428;" horiz-adv-x="237" d="M225 0h-225v700h67v-633h12v633h67v-633h12v633h67v-700v0z" />
<glyph unicode="&#x429;" horiz-adv-x="277" d="M265 -79h-67v79h-198v700h67v-633h12v633h67v-633h12v633h67v-633h6q14 0 24 -10t10 -24v-112z" />
<glyph unicode="&#x42a;" horiz-adv-x="198" d="M152 0h-112v633h-40v67h107v-158h45q14 0 24 -10t10 -24v-475q0 -14 -10 -23.5t-24 -9.5zM107 67h12v408h-12v-408z" />
<glyph unicode="&#x42b;" horiz-adv-x="237" d="M113 0h-113v700h67v-158h46q14 0 23.5 -10t9.5 -24v-475q0 -14 -9.5 -23.5t-23.5 -9.5zM67 67h12v408h-12v-408zM158 0v700h67v-700h-67v0z" />
<glyph unicode="&#x42c;" d="M113 0h-113v700h67v-158h46q14 0 23.5 -10t9.5 -24v-475q0 -14 -9.5 -23.5t-23.5 -9.5zM67 67h12v408h-12v-408z" />
<glyph unicode="&#x42d;" d="M113.002 0q13.999 0 23.499 9.5q9.49902 9.5 9.49902 23.5v283v67v283q0 14 -9.49902 24q-9.5 10 -23.499 10h-79.9951q-13.999 0 -23.498 -10q-9.5 -10 -9.5 -24v-270h66.9961v237h11.999v-250h-78.9951v-67h78.9951v-249h-11.999v237h-66.9961v-271q0 -14 9.5 -23.5 q9.49902 -9.5 23.498 -9.5h79.9951v0z" />
<glyph unicode="&#x42e;" horiz-adv-x="237" d="M192 0h-79q-14 0 -24 9.5t-10 23.5v283h-12v-316h-67v700h67v-317h12v283q0 14 10 24t24 10h79q14 0 23.5 -10t9.5 -24v-633q0 -14 -9.5 -23.5t-23.5 -9.5zM146 67h12v566h-12v-566z" />
<glyph unicode="&#x42f;" d="M0.00878906 0h66.9961v277h11.999v-277h66.9961v700h-112.993q-13.999 0 -23.498 -9.5q-9.5 -9.5 -9.5 -23.5v-277q0 -14 9.5 -24q9.49902 -10 23.498 -10h45.9971v-12h-45.9971q-13.999 0 -23.498 -10q-9.5 -10 -9.5 -24v-310zM79.0039 423h-11.999v210h11.999v-210z " />
<glyph unicode="&#x430;" d="M146 0h-113q-14 0 -23.5 9.5t-9.5 23.5v238q0 14 9.5 23.5t23.5 9.5h46v171h-12v-159h-67v192q0 14 9.5 24t23.5 10h80q14 0 23.5 -10t9.5 -24v-508zM67 67h12v170h-12v-170z" />
<glyph unicode="&#x431;" d="M113 0h-80q-14 0 -23.5 9.5t-9.5 23.5v633q0 14 9.5 24t23.5 10h113v-67h-79v-92h46q14 0 23.5 -9.5t9.5 -23.5v-475q0 -14 -9.5 -23.5t-23.5 -9.5zM67 67h12v407h-12v-407z" />
<glyph unicode="&#x432;" d="M113 0h-113v542h113q14 0 23.5 -10t9.5 -24v-198q0 -14 -9.5 -23.5t-23.5 -9.5h-46v-12h46q14 0 23.5 -10t9.5 -24v-198q0 -14 -9.5 -23.5t-23.5 -9.5zM67 67h12v131h-12v-131zM67 344h12v131h-12v-131z" />
<glyph unicode="&#x433;" d="M67 0h-67v542h146v-67h-79v-475v0z" />
<glyph unicode="&#x434;" horiz-adv-x="237" d="M225 -79h-67v79h-91v-79h-67v112v1v6l40 234v268h146v-475h6q14 0 23.5 -10t9.5 -24v-112zM73 67h46v408h-12v-204q0 -2 -0.5 -3t-0.5 -3z" />
<glyph unicode="&#x435;" d="M113 0h-80q-14 0 -23.5 9.5t-9.5 23.5v475q0 14 9.5 24t23.5 10h80q14 0 23.5 -10t9.5 -24v-271h-79v-170h12v158h67v-192q0 -14 -9.5 -23.5t-23.5 -9.5zM67 304h12v171h-12v-171z" />
<glyph unicode="&#x436;" horiz-adv-x="237" d="M225 0h-67v198h-12v-198h-67v198h-12v-198h-67v231q0 14 9.5 24t23.5 10h46v12h-46q-14 0 -23.5 10t-9.5 24v231h67v-198h12v198h67v-198h12v198h67v-231q0 -14 -9.5 -24t-23.5 -10h-46v-12h46q14 0 23.5 -10t9.5 -24v-231z" />
<glyph unicode="&#x437;" d="M113 0h-80q-14 0 -23.5 9.5t-9.5 23.5v192h67v-158h12v170h-79v67h79v171h-12v-159h-67v193q0 14 9.5 23.5t23.5 9.5h80q14 0 23.5 -9.5t9.5 -23.5v-476q0 -14 -9.5 -23.5t-23.5 -9.5z" />
<glyph unicode="&#x438;" horiz-adv-x="237" d="M225 0h-67v475h-12v-442q0 -14 -10 -23.5t-24 -9.5h-112v542h67v-475h12v442q0 14 9.5 23.5t23.5 9.5h113v-542z" />
<glyph unicode="&#x439;" horiz-adv-x="237" d="M225 0h-67v475h-12v-442q0 -14 -10 -23.5t-24 -9.5h-112v542h67v-475h12v442q0 14 9.5 23.5t23.5 9.5h113v-542zM40 700h67v-79h12v79h67v-112q0 -14 -9.5 -24t-23.5 -10h-80q-14 0 -23.5 10t-9.5 24v112z" />
<glyph unicode="&#x43a;" d="M146 0h-67v198h-12v-198h-67v542h67v-198h12v198h67v-231q0 -14 -9.5 -24t-23.5 -10h-46v-12h46q14 0 23.5 -10t9.5 -24v-231z" />
<glyph unicode="&#x43b;" horiz-adv-x="197" d="M185 0h-67v475h-12v-442q0 -14 -9.5 -23.5t-23.5 -9.5h-73v67h39v475h146v-542z" />
<glyph unicode="&#x43c;" horiz-adv-x="237" d="M225 0h-67v475h-12v-475h-67v475h-12v-475h-67v542h192q14 0 23.5 -9.5t9.5 -23.5v-509z" />
<glyph unicode="&#x43d;" d="M146 0h-67v237h-12v-237h-67v542h67v-238h12v238h67v-542v0z" />
<glyph unicode="&#x43e;" d="M146 33q0 -14 -10 -23.5t-24 -9.5h-79q-14 0 -23.5 9.5t-9.5 23.5v475q0 14 9.5 24t23.5 10h79q14 0 24 -10t10 -24v-475zM79 475h-12v-408h12v408z" />
<glyph unicode="&#x43f;" d="M146 0h-67v475h-12v-475h-67v542h146v-542v0z" />
<glyph unicode="&#x440;" d="M67 -158h-67v700h113q14 0 23.5 -10t9.5 -24v-475q0 -14 -9.5 -23.5t-23.5 -9.5h-46v-158zM67 67h12v408h-12v-408z" />
<glyph unicode="&#x441;" d="M113 0h-80q-14 0 -23.5 9.5t-9.5 23.5v475q0 14 9.5 24t23.5 10h80q14 0 23.5 -10t9.5 -24v-231h-67v198h-12v-408h12v198h67v-232q0 -14 -9.5 -23.5t-23.5 -9.5z" />
<glyph unicode="&#x442;" horiz-adv-x="237" d="M146 0h-67v475h-12v-198h-67v265h225v-265h-67v198h-12v-475v0z" />
<glyph unicode="&#x443;" d="M79 542h67v-667q0 -14 -10 -23.5t-24 -9.5h-79q-14 0 -23.5 9.5t-9.5 23.5v113h67v-79h12v91h-46q-14 0 -23.5 9.5t-9.5 23.5v509h67v-475h12v475z" />
<glyph unicode="&#x444;" horiz-adv-x="237" d="M146 -158h-67v158h-46q-14 0 -23.5 9.5t-9.5 23.5v476q0 14 9.5 23.5t23.5 9.5h46v158h67v-158h46q14 0 23.5 -9.5t9.5 -23.5v-476q0 -14 -9.5 -23.5t-23.5 -9.5h-46v-158zM146 67h12v408h-12v-408zM67 67h12v408h-12v-408z" />
<glyph unicode="&#x445;" d="M146 0h-67v198h-12v-198h-67v231q0 14 9.5 24t23.5 10h7v12h-7q-14 0 -23.5 9.5t-9.5 23.5v232h67v-198h12v198h67v-232q0 -14 -9.5 -23.5t-23.5 -9.5h-6v-12h6q14 0 23.5 -10t9.5 -24v-231z" />
<glyph unicode="&#x446;" horiz-adv-x="198" d="M186 -79h-67v79h-119v542h67v-475h12v475h67v-475h6q14 0 24 -10t10 -24v-112z" />
<glyph unicode="&#x447;" d="M146 0h-67v237h-45q-14 0 -24 9.5t-10 23.5v272h67v-238h12v238h67v-542z" />
<glyph unicode="&#x448;" horiz-adv-x="237" d="M225 0h-225v542h67v-475h12v475h67v-475h12v475h67v-542v0z" />
<glyph unicode="&#x449;" horiz-adv-x="277" d="M265 -79h-67v79h-198v542h67v-475h12v475h67v-475h12v475h67v-475h6q14 0 24 -10t10 -24v-112z" />
<glyph unicode="&#x44a;" horiz-adv-x="198" d="M151 0h-112l1 475h-40v67h107v-158h45q14 0 24 -10t10 -24l-1 -317q0 -14 -10 -23.5t-24 -9.5zM107 67h12l1 250h-12z" />
<glyph unicode="&#x44b;" horiz-adv-x="237" d="M158 0v542h67v-542h-67v0zM113 0h-113v542h67v-158h46q14 0 23.5 -10t9.5 -24v-317q0 -14 -9.5 -23.5t-23.5 -9.5zM67 67h12v250h-12v-250z" />
<glyph unicode="&#x44c;" d="M113 0h-113v542h67v-158h46q14 0 23.5 -10t9.5 -24v-317q0 -14 -9.5 -23.5t-23.5 -9.5zM67 67h12v250h-12v-250z" />
<glyph unicode="&#x44d;" d="M113.002 0q13.999 0 23.499 9.5q9.49902 9.5 9.49902 23.5v476q0 14 -9.49902 23.5q-9.5 9.5 -23.499 9.5h-79.9951q-13.999 0 -23.498 -9.5q-9.5 -9.5 -9.5 -23.5v-193h66.9961v159h11.999v-171h-78.9951v-67h78.9951v-170h-11.999v158h-66.9961v-192q0 -14 9.5 -23.5 q9.49902 -9.5 23.498 -9.5h79.9951z" />
<glyph unicode="&#x44e;" horiz-adv-x="237" d="M192 0h-79q-14 0 -24 9.5t-10 23.5v204h-12v-237h-67v542h67v-238h12v205q0 14 10 23.5t24 9.5h79q14 0 23.5 -9.5t9.5 -23.5v-476q0 -14 -9.5 -23.5t-23.5 -9.5zM146 67h12v408h-12v-408z" />
<glyph unicode="&#x44f;" d="M146 0h-67v198h-12v-198h-67v232q0 14 9.5 23.5t23.5 9.5h46v12h-46q-14 0 -23.5 10t-9.5 24v197q0 14 9.5 24t23.5 10h113v-542zM67 344h12v131h-12v-131z" />
<glyph unicode="&#x450;" d="M113 0h-80q-14 0 -23.5 9.5t-9.5 23.5v475q0 14 9.5 24t23.5 10h80q14 0 23.5 -10t9.5 -24v-271h-79v-170h12v158h67v-192q0 -14 -9.5 -23.5t-23.5 -9.5zM67 304h12v171h-12v-171zM146 554h-113q-14 0 -23.5 9.5t-9.5 23.5v113h67v-79h79v-67z" />
<glyph unicode="&#x451;" d="M113 0h-80q-14 0 -23.5 9.5t-9.5 23.5v475q0 14 9.5 24t23.5 10h80q14 0 23.5 -10t9.5 -24v-271h-79v-170h12v158h67v-192q0 -14 -9.5 -23.5t-23.5 -9.5zM67 304h12v171h-12v-171zM146 700v-146h-67v0v0v146h67zM67 700v-146h-67v146h67v0v0z" />
<glyph unicode="&#x452;" horiz-adv-x="198" d="M152 -79h-73v67h40v407h-12v-395h-67v474h-40v67h40v159h67v-159h39v-67h-39v-12h45q14 0 24 -9.5t10 -23.5v-474q0 -14 -10 -24t-24 -10z" />
<glyph unicode="&#x453;" d="M67 0h-67v542h146v-67h-79v-475v0zM146 700v-113q0 -14 -9.5 -23.5t-23.5 -9.5h-113v67h79v79h67z" />
<glyph unicode="&#x454;" d="M33 0q-14 0 -23.5 9.5t-9.5 23.5v476q0 14 9.5 23.5t23.5 9.5h80q14 0 23.5 -9.5t9.5 -23.5v-193h-67v159h-12v-171h79v-67h-79v-170h12v158h67v-192q0 -14 -9.5 -23.5t-23.5 -9.5h-80z" />
<glyph unicode="&#x455;" d="M113 0h-80q-14 0 -23.5 9.5t-9.5 23.5v192h67v-158h12v170h-46q-14 0 -23.5 10t-9.5 24v237q0 14 9.5 24t23.5 10h80q14 0 23.5 -10t9.5 -24v-192h-67v159h-12v-171h46q14 0 23.5 -9.5t9.5 -23.5v-238q0 -14 -9.5 -23.5t-23.5 -9.5z" />
<glyph unicode="&#x456;" horiz-adv-x="79" d="M0 0v542h67v-542h-67zM67 700v-146h-67v146h67z" />
<glyph unicode="&#x457;" d="M40 0v542h67v-542h-67v0zM146 700v-146h-67v0v0v146h67zM67 700v-146h-67v146h67v0v0z" />
<glyph unicode="&#x458;" horiz-adv-x="79" d="M67 -124q0 -14 -9.5 -24t-23.5 -10h-80q-14 0 -23.5 10t-9.5 24v112h67v-79h12v633h67v-666zM0 700h67v-145h-67v145z" />
<glyph unicode="&#x459;" horiz-adv-x="277" d="M232 0h-113v475h-12v-441q0 -14 -9.5 -24t-23.5 -10h-74v67h40v475h146v-158h46q14 0 23.5 -10t9.5 -24v-316q0 -14 -9.5 -24t-23.5 -10zM186 67h12v250h-12v-250z" />
<glyph unicode="&#x45a;" horiz-adv-x="237" d="M192 0h-113v237h-12v-237h-67v542h67v-238h12v238h67v-158h46q14 0 23.5 -10t9.5 -24v-317q0 -14 -9.5 -23.5t-23.5 -9.5zM146 67h12v250h-12v-250z" />
<glyph unicode="&#x45b;" horiz-adv-x="198" d="M186 0h-67v475h-12v-475h-67v554h-40v67h40v79h67v-79h39v-67h-39v-12h45q14 0 24 -10t10 -24v-508z" />
<glyph unicode="&#x45c;" d="M146 0h-67v198h-12v-198h-67v542h67v-198h12v198h67v-231q0 -14 -9.5 -24t-23.5 -10h-46v-12h46q14 0 23.5 -10t9.5 -24v-231zM146 700v-113q0 -14 -9.5 -23.5t-23.5 -9.5h-113v67h79v79h67z" />
<glyph unicode="&#x45d;" horiz-adv-x="237" d="M225 0h-67v475h-12v-442q0 -14 -10 -23.5t-24 -9.5h-112v542h67v-475h12v442q0 14 9.5 23.5t23.5 9.5h113v-542zM186 554h-113q-14 0 -23.5 9.5t-9.5 23.5v113h67v-79h79v-67z" />
<glyph unicode="&#x45e;" d="M79 542h67v-667q0 -14 -10 -23.5t-24 -9.5h-79q-14 0 -23.5 9.5t-9.5 23.5v113h67v-79h12v91h-46q-14 0 -23.5 9.5t-9.5 23.5v509h67v-475h12v475zM0 700h67v-79h12v79h67v-112q0 -14 -9.5 -24t-23.5 -10h-80q-14 0 -23.5 10t-9.5 24v112z" />
<glyph unicode="&#x45f;" d="M107 -79h-67v79h-40v542h67v-475h12v475h67v-542h-39v-79v0z" />
<glyph unicode="&#x490;" d="M67 0h-67v661h79v39h67v-106h-79v-594v0z" />
<glyph unicode="&#x491;" d="M67 0h-67v542h79v40h67v-107h-79v-475v0z" />
<glyph unicode="&#x1e80;" horiz-adv-x="237" d="M33 0q-14 0 -23.5 9.5t-9.5 23.5v509h67v-475h12v475h67v-475h12v475h67v-542h-192zM186 554h-113q-14 0 -23.5 9.5t-9.5 23.5v113h67v-79h79v-67z" />
<glyph unicode="&#x1e81;" horiz-adv-x="237" d="M33 0q-14 0 -23.5 9.5t-9.5 23.5v509h67v-475h12v475h67v-475h12v475h67v-542h-192zM186 554h-113q-14 0 -23.5 9.5t-9.5 23.5v113h67v-79h79v-67z" />
<glyph unicode="&#x1e82;" horiz-adv-x="237" d="M33 0q-14 0 -23.5 9.5t-9.5 23.5v509h67v-475h12v475h67v-475h12v475h67v-542h-192zM186 700v-113q0 -14 -9.5 -23.5t-23.5 -9.5h-113v67h79v79h67z" />
<glyph unicode="&#x1e83;" horiz-adv-x="237" d="M33 0q-14 0 -23.5 9.5t-9.5 23.5v509h67v-475h12v475h67v-475h12v475h67v-542h-192zM186 700v-113q0 -14 -9.5 -23.5t-23.5 -9.5h-113v67h79v79h67z" />
<glyph unicode="&#x1e84;" horiz-adv-x="237" d="M33 0q-14 0 -23.5 9.5t-9.5 23.5v509h67v-475h12v475h67v-475h12v475h67v-542h-192zM186 554h-67v146h67v-146zM107 554h-67v146h67v-146z" />
<glyph unicode="&#x1e85;" horiz-adv-x="237" d="M33 0q-14 0 -23.5 9.5t-9.5 23.5v509h67v-475h12v475h67v-475h12v475h67v-542h-192zM186 700v-146h-67v0v0v146h67zM107 700v-146h-67v146h67v0v0z" />
<glyph unicode="&#x1ef2;" d="M107 0h-67v238h-7q-14 0 -23.5 9.5t-9.5 23.5v271h67v-237h12v237h67v-271q0 -14 -9.5 -23.5t-23.5 -9.5h-6v-238zM146 554h-113q-14 0 -23.5 9.5t-9.5 23.5v113h67v-79h79v-67z" />
<glyph unicode="&#x1ef3;" d="M79 542h67v-667q0 -14 -10 -23.5t-24 -9.5h-79q-14 0 -23.5 9.5t-9.5 23.5v113h67v-79h12v91h-46q-14 0 -23.5 9.5t-9.5 23.5v509h67v-475h12v475zM146 554h-113q-14 0 -23.5 9.5t-9.5 23.5v113h67v-79h79v-67z" />
<glyph unicode="&#x2000;" horiz-adv-x="389" />
<glyph unicode="&#x2001;" horiz-adv-x="779" />
<glyph unicode="&#x2002;" horiz-adv-x="389" />
<glyph unicode="&#x2003;" horiz-adv-x="779" />
<glyph unicode="&#x2004;" horiz-adv-x="259" />
<glyph unicode="&#x2005;" horiz-adv-x="194" />
<glyph unicode="&#x2006;" horiz-adv-x="129" />
<glyph unicode="&#x2007;" horiz-adv-x="129" />
<glyph unicode="&#x2008;" horiz-adv-x="97" />
<glyph unicode="&#x2009;" horiz-adv-x="155" />
<glyph unicode="&#x200a;" horiz-adv-x="43" />
<glyph unicode="&#x2010;" d="M0 238v67h146v-67h-146v0z" />
<glyph unicode="&#x2011;" d="M0 238v67h146v-67h-146v0z" />
<glyph unicode="&#x2012;" d="M0 238v67h146v-67h-146v0z" />
<glyph unicode="&#x2013;" horiz-adv-x="237" d="M0 238v67h225v-67h-225v0z" />
<glyph unicode="&#x2014;" horiz-adv-x="316" d="M0 238v67h304v-67h-304v0z" />
<glyph unicode="&#x2018;" horiz-adv-x="118" d="M67 554h-67v113q0 14 9.5 23.5t23.5 9.5h73v-67h-39v-79z" />
<glyph unicode="&#x2019;" horiz-adv-x="118" d="M39 700h67v-113q0 -14 -9.5 -23.5t-23.5 -9.5h-73v67h39v79z" />
<glyph unicode="&#x201a;" horiz-adv-x="118" d="M39 146h67v-113q0 -14 -9.5 -23.5t-23.5 -9.5h-73v67h39v79z" />
<glyph unicode="&#x201c;" horiz-adv-x="237" d="M67 554h-67v113q0 14 9.5 23.5t23.5 9.5h73v-67h-39v-79zM185 554h-67v113q0 14 10 23.5t24 9.5h73v-67h-40v-79z" />
<glyph unicode="&#x201d;" horiz-adv-x="237" d="M39 700h67v-113q0 -14 -9.5 -23.5t-23.5 -9.5h-73v67h39v79zM158 700h67v-113q0 -14 -9.5 -23.5t-23.5 -9.5h-74v67h40v79z" />
<glyph unicode="&#x201e;" horiz-adv-x="237" d="M39 146h67v-113q0 -14 -9.5 -23.5t-23.5 -9.5h-73v67h39v79zM158 146h67v-113q0 -14 -9.5 -23.5t-23.5 -9.5h-74v67h40v79z" />
<glyph unicode="&#x2022;" horiz-adv-x="79" d="M0 344h67v-146h-67v146v0z" />
<glyph unicode="&#x2026;" horiz-adv-x="237" d="M0 0v146h67v-146h-67zM79 0v146h67v-146h-67zM158 0v146h67v-146h-67z" />
<glyph unicode="&#x202f;" horiz-adv-x="155" />
<glyph unicode="&#x2039;" horiz-adv-x="119" d="M107 159h-74q-14 0 -23.5 9.5t-9.5 23.5v158q0 14 9.5 24t23.5 10h74v-67h-40v-91h40v-67z" />
<glyph unicode="&#x203a;" horiz-adv-x="118" d="M73 159h-73v67h39v91h-39v67h73q14 0 23.5 -10t9.5 -24v-158q0 -14 -9.5 -23.5t-23.5 -9.5z" />
<glyph unicode="&#x205f;" horiz-adv-x="194" />
<glyph unicode="&#x20ac;" horiz-adv-x="198" d="M152 700q14 0 24 -9.5t10 -23.5v-232h-67v198h-12v-210h79v-67h-79v-12h79v-67h-79v-210h12v198h67v-232q0 -14 -10 -23.5t-24 -9.5h-79q-14 0 -23.5 9.5t-9.5 23.5v244h-40v67h40v12h-40v67h40v244q0 14 9.5 23.5t23.5 9.5h79v0z" />
<glyph unicode="&#x2116;" horiz-adv-x="396" d="M351 700q14 0 23.5 -9.5t9.5 -23.5v-238q0 -14 -9.5 -23.5t-23.5 -9.5h-80q-14 0 -23.5 9.5t-9.5 23.5v238q0 14 9.5 23.5t23.5 9.5h80zM317 633h-12v-170h12v170zM238 317v67h146v-67h-146v0zM225 0h-112q-14 0 -24 10t-10 24v599h-12v-633h-67v700h113q14 0 23.5 -9.5 t9.5 -23.5v-600h12v633h67v-700z" />
<glyph unicode="&#x2122;" horiz-adv-x="474" d="M462 316h-67v317h-12v-317h-67v317h-12v-317h-67v384h192q14 0 23.5 -10t9.5 -24v-350zM146 316h-67v317h-12v-119h-67v186h225v-186h-67v119h-12v-317z" />
<glyph unicode="&#x25fc;" horiz-adv-x="540" d="M0 540h540v-540h-540v540z" />
<glyph unicode="&#xfb01;" horiz-adv-x="237" d="M158 396h-91v-396h-67v667q0 14 9.5 23.5t23.5 9.5h80q14 0 23.5 -9.5t9.5 -23.5v-192h-67v158h-12v-170h91v79h67v-542h-67v396zM225 554h-67v146h67v-146z" />
<glyph unicode="&#xfb02;" horiz-adv-x="237" d="M225 0h-67v700h67v-700zM67 0h-67v667q0 14 9.5 23.5t23.5 9.5h80q14 0 23.5 -9.5t9.5 -23.5v-192h-67v158h-12v-170h79v-67h-79v-396z" />
</font>
</defs>
</svg>
