<?xml version="1.0" standalone="no"?>
<!DOCTYPE svg PUBLIC "-//W3C//DTD SVG 1.1//EN" "http://www.w3.org/Graphics/SVG/1.1/DTD/svg11.dtd" >
<svg xmlns="http://www.w3.org/2000/svg" xmlns:xlink="http://www.w3.org/1999/xlink" version="1.1">
<metadata></metadata>
<defs>
<font id="outwardborders" horiz-adv-x="158" >
<font-face units-per-em="1000" ascent="800" descent="-200" />
<missing-glyph horiz-adv-x="79" />
<glyph unicode="VTF" horiz-adv-x="395" d="M328 688v-280h43v280h-43zM91 688v-43h79v-633h43v633h79v43h-201zM12 688v-581l48 -95h74v597h-43v-579l-36 88v570h-43zM249 609v-597h43v316h79v43h-79v238h-43zM67 121l12 -35v535h67v-621h-94l-52 105v595h67v-579zM304 633h-79v-633h-67v633h-79v67h225v-67z M304 383h79v-67h-79v-316h-67v621h67v-238zM383 396h-67v304h67v-304z" />
<glyph horiz-adv-x="0" />
<glyph unicode=" "  horiz-adv-x="79" />
<glyph unicode="&#x09;" horiz-adv-x="79" />
<glyph unicode="&#xa0;" horiz-adv-x="79" />
<glyph unicode="!" horiz-adv-x="79" d="M12 688v-518h43v518h-43zM12 134v-122h43v122h-43zM67 158h-67v542h67v-542zM67 0h-67v146h67v-146z" />
<glyph unicode="&#x22;" d="M91 688v-122h43v122h-43zM12 688v-122h43v122h-43zM146 554h-67v146h67v-146zM67 554h-67v146h67v-146z" />
<glyph unicode="#" horiz-adv-x="237" d="M131 688v-277h-37v277h-42v-277h-40v-43h40v-36h-40v-43h40v-277h42v277h37v-277h43v277h39v43h-39v36h39v43h-39v277h-43zM94 368h37v-36h-37v36zM186 423h39v-67h-39v-12h39v-67h-39v-277h-67v277h-13v-277h-66v277h-40v67h40v12h-40v67h40v277h66v-277h13v277h67v-277 zM119 344v12h-13v-12h13z" />
<glyph unicode="$" horiz-adv-x="237" d="M91 688v-79h-57q-9 0 -15.5 -6.5t-6.5 -14.5v-238q0 -9 6.5 -15.5t15.5 -6.5h57v-194h-36v158h-43v-179q0 -9 6.5 -15.5t15.5 -6.5h57v-79h43v79h58q9 0 15 6.5t6 15.5v237q0 9 -6 15.5t-15 6.5h-58v194h36v-158h43v180q0 8 -6 14.5t-15 6.5h-58v79h-43zM55 566h36v-194 h-36v194zM134 328h36v-194h-36v194zM146 621h46q14 0 23.5 -9.5t9.5 -23.5v-192h-67v158h-12v-170h46q14 0 23.5 -10t9.5 -24v-237q0 -14 -9.5 -24t-23.5 -10h-46v-79h-67v79h-45q-14 0 -24 10t-10 24v191h67v-158h12v170h-45q-14 0 -24 10t-10 24v238q0 14 10 23.5t24 9.5 h45v79h67v-79zM79 384v170h-12v-170h12zM158 146v170h-12v-170h12z" />
<glyph unicode="%" horiz-adv-x="237" d="M170 688v-317h-136q-9 0 -15.5 -6.5t-6.5 -14.5v-338h43v316h137q9 0 15 6.5t6 15.5v338h-43zM34 688q-9 0 -15.5 -6.5t-6.5 -15.5v-237q0 -9 6.5 -15.5t15.5 -6.5h79q9 0 15 6.5t6 15.5v237q0 9 -6 15.5t-15 6.5h-79zM55 644h36v-194h-36v194zM113 292q-9 0 -15.5 -6.5 t-6.5 -15.5v-237q0 -9 6.5 -15t15.5 -6h79q9 0 15 6t6 15v237q0 9 -6 15.5t-15 6.5h-79zM134 249h36v-195h-36v195zM225 350q0 -14 -9.5 -24t-23.5 -10h-125v-316h-67v350q0 14 10 23.5t24 9.5h124v317h67v-350zM113 700q14 0 23.5 -10t9.5 -24v-237q0 -14 -9.5 -24 t-23.5 -10h-79q-14 0 -24 10t-10 24v237q0 14 10 24t24 10h79zM79 462v170h-12v-170h12zM192 304q14 0 23.5 -10t9.5 -24v-237q0 -14 -9.5 -23.5t-23.5 -9.5h-79q-14 0 -24 9.5t-10 23.5v237q0 14 10 24t24 10h79zM158 66v171h-12v-171h12z" />
<glyph unicode="&#x26;" horiz-adv-x="198" d="M34 688q-9 0 -15.5 -6.5t-6.5 -15.5v-237q0 -9 6 -15l25 -24l-25 -25q-6 -6 -6 -15v-316q0 -9 6.5 -15.5t15.5 -6.5h79q9 0 15 6.5t6 15.5v255h40v43h-61q-9 0 -15.5 -6.5t-6.5 -15.5v-255h-36v286l73 73q6 6 6 15v237q0 9 -6 15.5t-15 6.5h-79zM55 438v207h36v-207 l-18 -18zM113 700q14 0 23.5 -10t9.5 -24v-237q0 -14 -10 -24l-69 -69v-269h12v243q0 14 10 24t24 10h73v-67h-40v-243q0 -14 -9.5 -24t-23.5 -10h-79q-14 0 -24 10t-10 24v316q0 12 10 24l16 16l-16 15q-10 12 -10 24v237q0 14 10 24t24 10h79zM79 443v190h-12v-190l6 -6z " />
<glyph unicode="'" horiz-adv-x="79" d="M12 688v-122h43v122h-43zM67 554h-67v146h67v-146z" />
<glyph unicode="(" horiz-adv-x="119" d="M34 688q-9 0 -15.5 -6.5t-6.5 -15.5v-632q0 -9 6.5 -15.5t15.5 -6.5h61v43h-40v590h40v43h-61zM107 633h-40v-566h40v-67h-73q-14 0 -24 10t-10 24v632q0 14 10 24t24 10h73v-67z" />
<glyph unicode=")" horiz-adv-x="119" d="M12 688v-43h40v-590h-40v-43h61q9 0 15.5 6.5t6.5 15.5v632q0 9 -6.5 15.5t-15.5 6.5h-61zM0 700h73q14 0 24 -10t10 -24v-632q0 -14 -10 -24t-24 -10h-73v67h40v566h-40v67z" />
<glyph unicode="*" horiz-adv-x="237" d="M91 688v-78h-79v-44h79v-79h43v79h79v44h-79v78h-43zM146 621h79v-67h-79v-79h-67v79h-79v67h79v79h67v-79z" />
<glyph unicode="+" horiz-adv-x="237" d="M91 372v-78h-79v-44h79v-79h43v79h79v44h-79v78h-43zM146 305h79v-67h-79v-79h-67v79h-79v67h79v79h67v-79z" />
<glyph unicode="," horiz-adv-x="79" d="M12 135v-159h-39v-43h61q9 0 15 6.5t6 15.5v180h-43zM67 -45q0 -14 -9.5 -24t-23.5 -10h-73v67h39v159h67v-192z" />
<glyph unicode="-" d="M12 293v-43h122v43h-122zM146 238h-146v67h146v-67z" />
<glyph unicode="." horiz-adv-x="79" d="M12 134v-122h43v122h-43zM67 0h-67v146h67v-146z" />
<glyph unicode="/" d="M91 688v-179l-78 -312q-1 -2 -1 -6v-179h43v178l79 313v185h-43zM146 508q0 -6 -1 -8l-78 -313v-187h-67v191q0 6 1 9l78 312v188h67v-192z" />
<glyph unicode="0" d="M34 688q-9 0 -15.5 -6.5t-6.5 -15.5v-633q0 -9 6.5 -15t15.5 -6h79q9 0 15 6t6 15v633q0 9 -6 15.5t-15 6.5h-79zM55 644h36v-590h-36v590zM113 700q14 0 23.5 -10t9.5 -24v-633q0 -14 -9.5 -23.5t-23.5 -9.5h-79q-14 0 -24 9.5t-10 23.5v633q0 14 10 24t24 10h79zM79 66 v566h-12v-566h12z" />
<glyph unicode="1" horiz-adv-x="119" d="M12 688v-43h40v-633h43v676h-83zM107 0h-67v633h-40v67h107v-700z" />
<glyph unicode="2" d="M34 688q-9 0 -15.5 -6.5t-6.5 -15.5v-259h43v237h36v-273h-57q-9 0 -15.5 -6.5t-6.5 -14.5v-338h122v280h-43v-238h-36v274h58q9 0 15 6.5t6 15.5v316q0 9 -6 15.5t-15 6.5h-79zM113 700q14 0 23.5 -10t9.5 -24v-316q0 -14 -9.5 -24t-23.5 -10h-46v-250h12v238h67v-304 h-146v350q0 14 10 23.5t24 9.5h45v249h-12v-237h-67v271q0 14 10 24t24 10h79z" />
<glyph unicode="3" d="M34 688q-9 0 -15.5 -6.5t-6.5 -15.5v-258h43v237h36v-273h-79v-44h79v-273h-36v237h-43v-258q0 -9 6.5 -15.5t15.5 -6.5h79q9 0 15 6.5t6 15.5v632q0 9 -6 15.5t-15 6.5h-79zM113 700q14 0 23.5 -10t9.5 -24v-632q0 -14 -9.5 -24t-23.5 -10h-79q-14 0 -24 10t-10 24v270 h67v-237h12v249h-79v68h79v249h-12v-237h-67v270q0 14 10 24t24 10h79z" />
<glyph unicode="4" d="M91 688v-317h-36v317h-43v-360h79v-316h43v676h-43zM146 0h-67v316h-79v384h67v-317h12v317h67v-700z" />
<glyph unicode="5" d="M113 12q9 0 15 6.5t6 15.5v316q0 9 -6 15.5t-15 6.5h-58v274h36v-238h43v280h-122v-338q0 -8 6.5 -14.5t15.5 -6.5h57v-273h-36v237h-43v-259q0 -9 6.5 -15.5t15.5 -6.5h79zM34 0q-14 0 -24 10t-10 24v271h67v-237h12v249h-45q-14 0 -24 9.5t-10 23.5v350h146v-304h-67 v238h-12v-250h46q14 0 23.5 -10t9.5 -24v-316q0 -14 -9.5 -24t-23.5 -10h-79z" />
<glyph unicode="6" d="M34 688q-9 0 -15.5 -6.5t-6.5 -15.5v-632q0 -9 6.5 -15.5t15.5 -6.5h79q9 0 15 6.5t6 15.5v316q0 9 -6 15.5t-15 6.5h-58v273h36v-12v-225h43v258q0 9 -6 15.5t-15 6.5h-79zM55 328h36v-273h-36v273zM113 700q14 0 23.5 -10t9.5 -24v-270h-67v237h-12v-249h46 q14 0 23.5 -10t9.5 -24v-316q0 -14 -9.5 -24t-23.5 -10h-79q-14 0 -24 10t-10 24v632q0 14 10 24t24 10h79zM79 67v249h-12v-249h12z" />
<glyph unicode="7" d="M12 688v-280h43v237h36v-273h-79v-44h79v-316h43v676h-122zM146 0h-67v316h-79v68h79v249h-12v-237h-67v304h146v-700z" />
<glyph unicode="8" d="M34 688q-9 0 -15.5 -6.5t-6.5 -15.5v-276q0 -10 6 -16l25 -24l-25 -24q-6 -6 -6 -16v-276q0 -9 6.5 -15.5t15.5 -6.5h79q9 0 15 6.5t6 15.5v276q0 10 -6 16l-25 24l25 24q6 6 6 16v276q0 9 -6 15.5t-15 6.5h-79zM55 398v247h36v-247l-18 -18zM55 302l18 18l18 -18v-247 h-36v247zM113 700q14 0 23.5 -10t9.5 -24v-276q0 -15 -10 -24l-17 -16l17 -16q10 -9 10 -24v-276q0 -14 -9.5 -24t-23.5 -10h-79q-14 0 -24 10t-10 24v276q0 14 10 24l18 16l-18 16q-10 10 -10 24v276q0 14 10 24t24 10h79zM79 403v230h-12v-230l6 -6zM79 67v230l-6 6l-6 -6 v-230h12z" />
<glyph unicode="9" d="M112 12q9 0 15.5 6.5t6.5 15.5v632q0 9 -6.5 15.5t-15.5 6.5h-79q-9 0 -15 -6.5t-6 -15.5v-316q0 -9 6 -15.5t15 -6.5h58v-273h-36v12v225h-43v-258q0 -9 6 -15.5t15 -6.5h79zM91 372h-36v273h36v-273zM33 0q-14 0 -23.5 10t-9.5 24v270h67v-237h12v249h-46 q-14 0 -23.5 10t-9.5 24v316q0 14 9.5 24t23.5 10h79q14 0 24 -10t10 -24v-632q0 -14 -10 -24t-24 -10h-79zM67 633v-249h12v249h-12z" />
<glyph unicode=":" horiz-adv-x="79" d="M12 214v-122h42v122h-42zM67 80h-67v146h67v-146zM12 451v-122h43v122h-43zM67 317h-67v146h67v-146z" />
<glyph unicode=";" horiz-adv-x="119" d="M52 213v-158h-40v-43h61q9 0 15 6t6 15v180h-42zM107 33q0 -14 -9.5 -23.5t-23.5 -9.5h-74v67h40v158h67v-192zM52 450v-122h42v122h-42zM107 316h-67v146h67v-146z" />
<glyph unicode="&#x3c;" horiz-adv-x="198" d="M113 371q-10 0 -16 -6l-79 -79q-6 -6 -6 -15q0 -10 6 -16l79 -79q6 -6 16 -6h61v43h-52l-58 58l58 57h52v43h-61zM186 316h-59l-46 -45l46 -46h59v-67h-73q-15 0 -24 10l-79 79q-10 10 -10 24q0 13 10 23l79 79q9 10 24 10h73v-67z" />
<glyph unicode="=" horiz-adv-x="198" d="M12 333v-43h162v43h-162zM12 254v-44h162v44h-162zM186 278h-186v66h186v-66zM186 198h-186v68h186v-68z" />
<glyph unicode="&#x3e;" horiz-adv-x="198" d="M12 371v-43h52l58 -57l-58 -58h-52v-43h61q10 0 16 6l79 79q6 6 6 16q0 9 -6 15l-79 79q-6 6 -16 6h-61zM0 383h73q15 0 24 -10l79 -79q10 -10 10 -23q0 -14 -10 -24l-79 -79q-9 -10 -24 -10h-73v67h59l46 46l-46 45h-59v67z" />
<glyph unicode="?" d="M34 688q-9 0 -15.5 -6.5t-6.5 -15.5v-258h43v237h36v-273h-57q-9 0 -15.5 -6.5t-6.5 -15.5v-180h43v158h58q9 0 15 6.5t6 15.5v316q0 9 -6 15.5t-15 6.5h-79zM12 134v-122h43v122h-43zM113 700q14 0 23.5 -10t9.5 -24v-316q0 -14 -9.5 -24t-23.5 -10h-46v-158h-67v192 q0 14 10 24t24 10h45v249h-12v-237h-67v270q0 14 10 24t24 10h79zM67 0h-67v146h67v-146z" />
<glyph unicode="@" horiz-adv-x="237" d="M34 609q-9 0 -15.5 -6.5t-6.5 -14.5v-475q0 -9 6.5 -15.5t15.5 -6.5h179v43h-158v432h115v-36h-57q-9 0 -15.5 -6.5t-6.5 -15.5v-316q0 -9 6.5 -15.5t15.5 -6.5h100v418q0 8 -6.5 14.5t-15.5 6.5h-157zM134 487h36v-274h-36v274zM191 621q14 0 24 -9.5t10 -23.5v-430 h-112q-14 0 -24 10t-10 24v316q0 14 10 24t24 10h45v12h-91v-408h158v-67h-191q-14 0 -24 10t-10 24v475q0 14 10 23.5t24 9.5h157zM158 225v250h-12v-250h12z" />
<glyph unicode="A" d="M33 688q-9 0 -15 -6.5t-6 -15.5v-654h43v316h36v-316h43v654q0 9 -6.5 15.5t-15.5 6.5h-79zM55 645h36v-273h-36v273zM112 700q14 0 24 -10t10 -24v-666h-67v316h-12v-316h-67v666q0 14 9.5 24t23.5 10h79zM79 384v249h-12v-249h12z" />
<glyph unicode="B" horiz-adv-x="237" d="M158 645h12v-12v-210v-12h-12h-12h-12v12v210v12h12h12zM158 633h-12v-210h12v210zM192 700q14 0 23.5 -10t9.5 -24v-276q0 -14 -9.5 -24t-23.5 -10h-46v-12h46q14 0 23.5 -10t9.5 -24v-277q0 -14 -9.5 -23.5t-23.5 -9.5h-46h-67h-12h-67v67v277h67v-277h12v210v67v12v67 v210h-12v-277h-67v277v67h67h12h67h46zM213 666q0 9 -6 15.5t-15 6.5h-46h-67h-12h-55v-55v-265h43v265v12h12h12h12v-12v-210v-67v-12v-67v-210v-12h-12h-12h-12v12v265h-43v-265v-55h55h12h67h46q9 0 15 6.5t6 14.5v277q0 9 -6 15.5t-15 6.5h-46h-12v12v12v12h12h46 q9 0 15 6.5t6 15.5v276zM134 289h12h12h12v-12v-210v-12h-12h-12h-12v12v210v12zM146 67h12v210h-12v-210z" />
<glyph unicode="C" d="M34 688q-9 0 -15.5 -6.5t-6.5 -15.5v-632q0 -9 6.5 -15.5t15.5 -6.5h79q9 0 15 6.5t6 15.5v298h-43v-277h-36v590h36v-277h43v298q0 9 -6 15.5t-15 6.5h-79zM113 700q14 0 23.5 -10t9.5 -24v-310h-67v277h-12v-566h12v277h67v-310q0 -14 -9.5 -24t-23.5 -10h-79 q-14 0 -24 10t-10 24v632q0 14 10 24t24 10h79z" />
<glyph unicode="D" horiz-adv-x="237" d="M12 688v-320h43v277h36v-590h-36v277h-43v-320h180q9 0 15 6.5t6 15.5v632q0 9 -6 15.5t-15 6.5h-180zM134 645h36v-590h-36v590zM192 700q14 0 23.5 -10t9.5 -24v-632q0 -14 -9.5 -24t-23.5 -10h-192v344h67v-277h12v566h-12v-277h-67v344h192zM158 67v566h-12v-566h12z " />
<glyph unicode="E" d="M12 688v-676h122v280h-43v-237h-36v273h79v44h-79v273h36v-237h43v280h-122zM146 396h-67v237h-12v-249h79v-68h-79v-249h12v237h67v-304h-146v700h146v-304z" />
<glyph unicode="F" d="M12 688v-676h43v316h79v44h-79v273h36v-237h43v280h-122zM146 396h-67v237h-12v-249h79v-68h-79v-316h-67v700h146v-304z" />
<glyph unicode="G" horiz-adv-x="198" d="M34 688q-10 0 -16 -6.5t-6 -15.5v-632q0 -9 6 -15.5t16 -6.5h100v277h40v43h-83v-277h-36v590h36v-277h43v298q0 9 -6.5 15.5t-15.5 6.5h-78zM112 700q14 0 24 -10t10 -24v-310h-67v277h-12v-566h12v277h107v-67h-40v-277h-112q-14 0 -24 10t-10 24v632q0 14 10 24t24 10 h78z" />
<glyph unicode="H" d="M91 688v-316h-36v316h-43v-676h43v316h36v-316h43v676h-43zM146 0h-67v316h-12v-316h-67v700h67v-316h12v316h67v-700z" />
<glyph unicode="I" horiz-adv-x="237" d="M12 688v-320h43v277h36v-590h-36v277h-43v-320h201v320h-43v-277h-36v590h36v-277h43v320h-201zM225 356h-67v277h-12v-566h12v277h67v-344h-225v344h67v-277h12v566h-12v-277h-67v344h225v-344z" />
<glyph unicode="J" d="M12 688v-122h43v79h36v-590h-36v277h-43v-298q0 -9 6.5 -15.5t15.5 -6.5h79q9 0 15 6.5t6 15.5v654h-122zM146 34q0 -14 -9.5 -24t-23.5 -10h-79q-14 0 -24 10t-10 24v310h67v-277h12v566h-12v-79h-67v146h146v-666z" />
<glyph unicode="K" d="M91 688v-277h-36v277h-43v-676h43v277h36v-277h43v298q0 9 -6.5 15.5t-15.5 6.5h-57v36h57q9 0 15.5 6.5t6.5 15.5v298h-43zM146 390q0 -14 -10 -24t-24 -10h-45v-12h45q14 0 24 -10t10 -24v-310h-67v277h-12v-277h-67v700h67v-277h12v277h67v-310z" />
<glyph unicode="L" d="M12 688v-676h122v320h-43v-277h-36v633h-43zM67 67h12v277h67v-344h-146v700h67v-633z" />
<glyph unicode="M" horiz-adv-x="317" d="M271 700q14 0 23.5 -10t9.5 -24v-666h-67v633h-12v-600q0 -14 -9.5 -23.5t-23.5 -9.5h-79q-14 0 -24 9.5t-10 23.5v600h-12v-633h-67v666q0 14 9.5 24t23.5 10h80q14 0 23.5 -10t9.5 -24v-599h12v599q0 14 10 24t24 10h79zM292 666q0 9 -6 15.5t-15 6.5h-79 q-9 0 -15.5 -6.5t-6.5 -15.5v-611h-36v611q0 9 -6.5 15.5t-14.5 6.5h-80q-8 0 -14.5 -6.5t-6.5 -15.5v-654h43v633h36v-612q0 -8 6.5 -14.5t15.5 -6.5h79q9 0 15 6.5t6 14.5v612h36v-633h43v654z" />
<glyph unicode="N" horiz-adv-x="237" d="M170 688v-621v-12h-36v611q0 9 -6 15.5t-15 6.5h-101v-676h44v633h36v-611q0 -9 6 -15.5t15 -6.5h100v676h-43zM225 0h-112q-14 0 -23.5 10t-9.5 24v599h-12v-633h-68v700h113q14 0 23.5 -10t9.5 -24v-599h12v633h67v-700z" />
<glyph unicode="O" d="M34 688q-9 0 -15.5 -6.5t-6.5 -15.5v-633q0 -9 6.5 -15t15.5 -6h79q9 0 15 6t6 15v633q0 9 -6 15.5t-15 6.5h-79zM55 644h36v-590h-36v590zM113 700q14 0 23.5 -10t9.5 -24v-633q0 -14 -9.5 -23.5t-23.5 -9.5h-79q-14 0 -24 9.5t-10 23.5v633q0 14 10 24t24 10h79zM79 66 v566h-12v-566h12z" />
<glyph unicode="P" d="M67 0h-67v700h113q14 0 23.5 -10t9.5 -24v-316q0 -14 -9.5 -24t-23.5 -10h-46v-316zM55 328h58q9 0 15 6.5t6 15.5v316q0 9 -6 15.5t-15 6.5h-101v-676h43v316zM55 372v273h36v-273h-36zM67 384h12v249h-12v-249z" />
<glyph unicode="Q" horiz-adv-x="198" d="M55 55v590h36v-590h-36zM67 67h12v566h-12v-566zM0 666q0 14 10 24t24 10h79q14 0 23.5 -10t9.5 -24v-599h40v-67h-152q-14 0 -24 10t-10 24v632zM134 666q0 9 -6 15.5t-15 6.5h-79q-9 0 -15.5 -6.5t-6.5 -15.5v-632q0 -9 6.5 -15.5t15.5 -6.5h140v43h-40v611z" />
<glyph unicode="R" d="M91 645v-234h-36v234h36zM79 633h-12v-210h12v210zM113 700q14 0 23.5 -10t9.5 -24v-276q0 -14 -9.5 -24t-23.5 -10h-46v-12h46q14 0 23.5 -10t9.5 -24v-310h-67v277h-12v-277h-67v700h113zM134 666q0 9 -6 15.5t-15 6.5h-101v-676h43v277h36v-277h43v298q0 9 -6 15.5 t-15 6.5h-46h-12v36h58q9 0 15 6.5t6 15.5v276z" />
<glyph unicode="S" d="M34 0q-14 0 -24 10t-10 24v270h67v-237h12v249h-45q-14 0 -24 10t-10 24v316q0 14 10 24t24 10h79q14 0 23.5 -10t9.5 -24v-270h-67v237h-12v-249h46q14 0 23.5 -10t9.5 -24v-316q0 -14 -9.5 -24t-23.5 -10h-79zM12 34q0 -9 6.5 -15.5t15.5 -6.5h79q9 0 15 6.5t6 15.5 v316q0 9 -6 15.5t-15 6.5h-58v273h36v-237h43v258q0 9 -6 15.5t-15 6.5h-79q-9 0 -15.5 -6.5t-6.5 -15.5v-316q0 -9 6.5 -15.5t15.5 -6.5h57v-273h-36v237h-43v-258z" />
<glyph unicode="T" horiz-adv-x="237" d="M67 356h-67v344h225v-344h-67v277h-12v-633h-67v633h-12v-277zM55 645h36v-633h43v633h36v-277h43v320h-201v-320h43v277z" />
<glyph unicode="U" d="M67 67h12v633h67v-666q0 -14 -9.5 -24t-23.5 -10h-79q-14 0 -24 10t-10 24v666h67v-633zM55 55v633h-43v-654q0 -9 6.5 -15.5t15.5 -6.5h79q9 0 15 6.5t6 15.5v654h-43v-633h-36z" />
<glyph unicode="V" d="M67 700v-579l12 -35v614h67v-700h-94l-52 105v595h67zM55 118v570h-43v-581l48 -95h74v676h-43v-658z" />
<glyph unicode="W" horiz-adv-x="316" d="M237 700h67v-700h-112q-14 0 -24 9.5t-10 23.5v600h-12v-600q0 -14 -9.5 -23.5t-23.5 -9.5h-113v700h67v-633h12v599q0 14 10 24t24 10h79q14 0 23.5 -10t9.5 -24v-599h12v633zM213 55v611q0 9 -6 15.5t-15 6.5h-79q-9 0 -15.5 -6.5t-6.5 -15.5v-611h-36v633h-43v-676 h101q8 0 14.5 6.5t6.5 14.5v612h36v-612q0 -8 6.5 -14.5t15.5 -6.5h100v676h-43v-633h-36z" />
<glyph unicode="X" d="M67 0h-67v310q0 14 10 24t24 10h6v12h-6q-14 0 -24 9.5t-10 23.5v311h67v-278h12v278h67v-311q0 -14 -9.5 -23.5t-23.5 -9.5h-7v-12h7q14 0 23.5 -10t9.5 -24v-310h-67v276h-12v-276zM55 288h36v-276h43v298q0 9 -6 15.5t-15 6.5h-19v36h19q9 0 15 6t6 15v299h-43v-277 h-36v277h-43v-299q0 -9 6.5 -15t15.5 -6h18v-36h-18q-9 0 -15.5 -6.5t-6.5 -15.5v-298h43v276z" />
<glyph unicode="Y" d="M34 317q-14 0 -24 9.5t-10 23.5v350h67v-316h12v316h67v-350q0 -14 -9.5 -23.5t-23.5 -9.5h-7v-317h-66v317h-6zM12 350q0 -8 6.5 -14.5t15.5 -6.5h18v-317h42v317h19q9 0 15 6.5t6 14.5v338h-43v-316h-36v316h-43v-338z" />
<glyph unicode="Z" d="M79 403v230h-12v-198h-67v265h146v-310q0 -15 -10 -24l-69 -69v-230h12v198h67v-265h-146v310q0 14 10 24zM91 645v-247l-73 -72q-6 -6 -6 -16v-298h122v241h-43v-198h-36v247l73 72q6 6 6 16v298h-122v-241h43v198h36z" />
<glyph unicode="[" d="M67 634v-566h79v-68h-146v700h146v-66h-79zM55 56v590h79v42h-122v-676h122v44h-79z" />
<glyph unicode="\" d="M55.0059 688v-179l77.9951 -312q1 -2 1 -6v-179h-42.998v178l-78.9951 313v185h42.998zM0.00878906 508q0 -6 1 -8l77.9951 -313v-187h66.9961v191q0 6 -1 9l-77.9951 312v188h-66.9961v-192z" />
<glyph unicode="]" d="M79.0039 634v-566h-78.9951v-68h145.991v700h-145.991v-66h78.9951zM91.0029 56v590h-78.9951v42h121.993v-676h-121.993v44h78.9951z" />
<glyph unicode="^" d="M136 651q10 -10 10 -24v-73h-67v59l-6 6l-6 -6v-59h-67v73q0 12 10 24l39 39q10 10 24 10t24 -10zM134 627q0 9 -6 15l-40 40q-6 6 -15 6t-15 -6l-40 -40q-6 -6 -6 -15v-61h43v52l18 18l18 -18v-52h43v61z" />
<glyph unicode="_" d="M12 -24v-43h122v43h-122zM146 -79h-146v67h146v-67z" />
<glyph unicode="`" d="M67 700v-79h79v-67h-112q-14 0 -24 9.5t-10 23.5v113h67zM55 609v79h-43v-101q0 -9 6.5 -15t15.5 -6h100v43h-79z" />
<glyph unicode="a" d="M91 250v-194h-36v194h36zM79 238h-12v-170h12v170zM0 509q0 14 10 23.5t24 9.5h79q14 0 23.5 -9.5t9.5 -23.5v-509h-112q-14 0 -24 10t-10 24v237q0 14 10 24t24 10h45v170h-12v-158h-67v192zM12 329h43v158h36v-194h-57q-9 0 -15.5 -6.5t-6.5 -15.5v-237q0 -9 6.5 -15.5 t15.5 -6.5h100v497q0 9 -6 15t-15 6h-79q-9 0 -15.5 -6t-6.5 -15v-180z" />
<glyph unicode="b" d="M91 487v-432h-36v432h36zM79 475h-12v-408h12v408zM67 700v-158h46q14 0 23.5 -10t9.5 -24v-474q0 -14 -9.5 -24t-23.5 -10h-113v700h67zM55 530v158h-43v-676h101q9 0 15 6.5t6 15.5v474q0 9 -6 15.5t-15 6.5h-58z" />
<glyph unicode="c" d="M0 508q0 14 10 24t24 10h79q14 0 23.5 -10t9.5 -24v-231h-67v198h-12v-408h12v198h67v-231q0 -14 -9.5 -24t-23.5 -10h-79q-14 0 -24 10t-10 24v474zM12 34q0 -9 6.5 -15.5t15.5 -6.5h79q9 0 15 6.5t6 15.5v219h-43v-198h-36v432h36v-198h43v219q0 9 -6 15.5t-15 6.5h-79 q-9 0 -15.5 -6.5t-6.5 -15.5v-474z" />
<glyph unicode="d" d="M91 487v-432h-36v432h36zM67 67h12v408h-12v-408zM146 700v-700h-113q-14 0 -23.5 10t-9.5 24v474q0 14 9.5 24t23.5 10h46v158h67zM33 530q-9 0 -15 -6.5t-6 -15.5v-474q0 -9 6 -15.5t15 -6.5h101v676h-43v-158h-58z" />
<glyph unicode="e" d="M55 292v195h36v-195h-36zM67 304h12v171h-12v-171zM0 508q0 14 10 24t24 10h79q14 0 23.5 -10t9.5 -24v-271h-79v-170h12v158h67v-191q0 -14 -9.5 -24t-23.5 -10h-79q-14 0 -24 10t-10 24v474zM12 34q0 -9 6.5 -15.5t15.5 -6.5h79q9 0 15 6.5t6 15.5v179h-43v-158h-36 v194h79v259q0 9 -6 15.5t-15 6.5h-79q-9 0 -15.5 -6.5t-6.5 -15.5v-474z" />
<glyph unicode="f" d="M113 700q14 0 23.5 -10t9.5 -24v-191h-67v158h-12v-170h79v-67h-79v-396h-67v666q0 14 10 24t24 10h79zM134 666q0 9 -6 15.5t-15 6.5h-79q-9 0 -15.5 -6.5t-6.5 -15.5v-654h43v396h79v43h-79v194h36v-158h43v179z" />
<glyph unicode="g" d="M91 56h-36v431h36v-431zM79 475h-12v-407h12v407zM67 -12v-79h12v91h-45q-14 0 -24 10t-10 24v475q0 14 10 23.5t24 9.5h112v-666q0 -14 -9.5 -24t-23.5 -10h-79q-14 0 -24 10t-10 24v112h67zM55 -103v79h-43v-100q0 -9 6.5 -15.5t15.5 -6.5h79q9 0 15 6.5t6 15.5v654 h-100q-9 0 -15.5 -6t-6.5 -15v-475q0 -9 6.5 -15.5t15.5 -6.5h57v-115h-36z" />
<glyph unicode="h" d="M67 700v-158h46q14 0 23.5 -10t9.5 -24v-508h-67v475h-12v-475h-67v700h67zM55 530v158h-43v-676h43v475h36v-475h43v496q0 9 -6 15.5t-15 6.5h-58z" />
<glyph unicode="i" horiz-adv-x="79" d="M67 0h-67v542h67v-542zM55 530h-43v-518h43v518zM67 554h-67v146h67v-146zM55 688h-43v-122h43v122z" />
<glyph unicode="j" horiz-adv-x="79" d="M-45 -158q-14 0 -24 9.5t-10 23.5v113h67v-79h12v633h67v-667q0 -14 -9.5 -23.5t-23.5 -9.5h-79zM-67 -125q0 -9 6.5 -15t15.5 -6h79q9 0 15 6t6 15v655h-43v-633h-36v79h-43v-101zM0 700h67v-146h-67v146zM12 566h43v122h-43v-122z" />
<glyph unicode="k" d="M68 0h-68v700h68v-356h12v198h66v-232q0 -14 -9.5 -23.5t-23.5 -9.5h-45v-12h45q14 0 23.5 -10t9.5 -24v-231h-66v198h-12v-198zM56 210h36v-198h43v219q0 9 -6.5 15.5t-15.5 6.5h-57v36h57q9 0 15.5 6.5t6.5 14.5v220h-43v-198h-36v356h-44v-676h44v198z" />
<glyph unicode="l" horiz-adv-x="79" d="M67 0h-67v700h67v-700zM55 688h-43v-676h43v676z" />
<glyph unicode="m" horiz-adv-x="237" d="M67 0h-67v542h192q14 0 23.5 -10t9.5 -24v-508h-67v475h-12v-475h-67v475h-12v-475zM55 487h36v-475h43v475h36v-475h43v496q0 9 -6.5 15.5t-14.5 6.5h-180v-518h43v475z" />
<glyph unicode="n" d="M113 542q14 0 23.5 -10t9.5 -24v-508h-67v475h-12v-475h-67v542h113zM134 508q0 9 -6 15.5t-15 6.5h-101v-518h43v475h36v-475h43v496z" />
<glyph unicode="o" d="M112 542q14 0 24 -10t10 -24v-474q0 -14 -10 -24t-24 -10h-79q-14 0 -23.5 10t-9.5 24v474q0 14 9.5 24t23.5 10h79zM134 508q0 9 -6.5 15.5t-15.5 6.5h-79q-9 0 -15 -6.5t-6 -15.5v-474q0 -9 6 -15.5t15 -6.5h79q9 0 15.5 6.5t6.5 15.5v474zM91 487v-432h-37v432h37z M79 475h-13v-408h13v408z" />
<glyph unicode="p" d="M55 55v432h36v-432h-36zM79 475h-12v-408h12v408zM0 -158v700h113q14 0 23.5 -10t9.5 -24v-474q0 -14 -9.5 -24t-23.5 -10h-46v-158h-67zM113 12q9 0 15 6.5t6 15.5v474q0 9 -6 15.5t-15 6.5h-101v-676h43v158h58z" />
<glyph unicode="q" d="M55 55v432h36v-432h-36zM67 67h12v408h-12v-408zM79 -158v158h-46q-14 0 -23.5 10t-9.5 24v474q0 14 9.5 24t23.5 10h113v-700h-67zM91 12v-158h43v676h-101q-9 0 -15 -6.5t-6 -15.5v-474q0 -9 6 -15.5t15 -6.5h58z" />
<glyph unicode="r" d="M113 542q14 0 23.5 -10t9.5 -24v-192h-67v159h-12v-475h-67v542h113zM134 508q0 9 -6 15.5t-15 6.5h-101v-518h43v475h36v-159h43v180z" />
<glyph unicode="s" d="M33 0q-14 0 -23.5 10t-9.5 24v191h67v-158h12v170h-46q-14 0 -23.5 10t-9.5 24v237q0 14 9.5 24t23.5 10h80q14 0 23.5 -10t9.5 -24v-192h-67v159h-12v-171h46q14 0 23.5 -9.5t9.5 -23.5v-237q0 -14 -9.5 -24t-23.5 -10h-80zM12 34q0 -9 6.5 -15.5t14.5 -6.5h80 q8 0 14.5 6.5t6.5 15.5v237q0 9 -6.5 15t-14.5 6h-58v195h36v-159h43v180q0 9 -6.5 15.5t-14.5 6.5h-80q-8 0 -14.5 -6.5t-6.5 -15.5v-237q0 -9 6.5 -15.5t14.5 -6.5h58v-194h-36v158h-43v-179z" />
<glyph unicode="t" horiz-adv-x="119" d="M67 700v-158h40v-67h-40v-475h-67v700h67zM55 530v158h-43v-676h43v475h40v43h-40z" />
<glyph unicode="u" d="M67 67h12v475h67v-508q0 -14 -9.5 -24t-23.5 -10h-79q-14 0 -24 10t-10 24v508h67v-475zM55 55v475h-43v-496q0 -9 6.5 -15.5t15.5 -6.5h79q9 0 15 6.5t6 15.5v496h-43v-475h-36z" />
<glyph unicode="v" d="M67 542v-421l12 -35v456h67v-542h-94l-52 105v437h67zM55 118v412h-43v-423l48 -95h74v518h-43v-500z" />
<glyph unicode="w" horiz-adv-x="237" d="M225 34q0 -14 -9.5 -24t-23.5 -10h-192v542h67v-475h12v475h67v-475h12v475h67v-508zM12 12h180q9 0 15 6.5t6 15.5v496h-43v-475h-36v475h-43v-475h-36v475h-43v-518z" />
<glyph unicode="x" d="M67 0h-67v232q0 14 10 24t24 10h6v12h-6q-14 0 -24 9.5t-10 23.5v231h67v-198h12v198h67v-231q0 -14 -9.5 -23.5t-23.5 -9.5h-7v-12h7q14 0 23.5 -10t9.5 -24v-232h-67v198h-12v-198zM55 210h36v-198h43v220q0 9 -6 15.5t-15 6.5h-19v36h19q9 0 15 6t6 15v219h-43v-197 h-36v197h-43v-219q0 -9 6.5 -15t15.5 -6h18v-36h-18q-9 0 -15.5 -6.5t-6.5 -15.5v-220h43v198z" />
<glyph unicode="y" d="M67 67h12v475h67v-667q0 -14 -9.5 -23.5t-23.5 -9.5h-80q-14 0 -23.5 9.5t-9.5 23.5v113h67v-79h12v91h-46q-14 0 -23.5 10t-9.5 24v508h67v-475zM55 55v475h-43v-496q0 -9 6.5 -15.5t14.5 -6.5h58v-115h-36v79h-43v-101q0 -9 6.5 -15t14.5 -6h80q8 0 14.5 6t6.5 15v655 h-43v-475h-36z" />
<glyph unicode="z" d="M79 324v151h-12v-119h-67v186h146v-232q0 -14 -9 -23l-70 -70v-150h12v119h67v-186h-146v231q0 14 10 24zM91 487v-168l-72 -72q-7 -7 -7 -16v-219h123v162h-44v-119h-36v167l73 73q7 7 7 15v220h-123v-162h43v119h36z" />
<glyph unicode="{" d="M33 277q-14 0 -23.5 9.5t-9.5 23.5v80q0 14 9.5 23.5t23.5 9.5h7v243q0 14 9.5 24t23.5 10h73v-67h-39v-243q0 -14 -10 -24t-24 -10h-6v-12h6q14 0 24 -10t10 -24v-243h39v-67h-73q-14 0 -23.5 9.5t-9.5 23.5v244h-7zM12 310q0 -8 6.5 -14.5t14.5 -6.5h19v-256 q0 -8 6 -14.5t15 -6.5h61v43h-39v255q0 9 -6.5 15.5t-15.5 6.5h-18v36h18q9 0 15.5 6.5t6.5 15.5v255h39v43h-61q-9 0 -15 -6.5t-6 -15.5v-255h-19q-8 0 -14.5 -6.5t-6.5 -14.5v-80z" />
<glyph unicode="|" horiz-adv-x="79" d="M67 -79h-67v858h67v-858zM55 767h-43v-834h43v834z" />
<glyph unicode="}" d="M113.002 277q13.999 0 23.499 9.5q9.49902 9.5 9.49902 23.5v80q0 14 -9.49902 23.5q-9.5 9.5 -23.499 9.5h-7v243q0 14 -9.49902 24t-23.498 10h-72.9961v-67h38.998v-243q0 -14 9.99902 -24t23.999 -10h5.99902v-12h-5.99902q-14 0 -23.999 -10t-9.99902 -24v-243 h-38.998v-67h72.9961q13.999 0 23.498 9.5t9.49902 23.5v244h7zM134.001 310q0 -8 -6.5 -14.5q-6.49902 -6.5 -14.499 -6.5h-18.999v-256q0 -8 -5.99902 -14.5q-6 -6.5 -14.999 -6.5h-60.9971v43h38.998v255q0 9 6.5 15.5q6.49902 6.5 15.499 6.5h17.998v36h-17.998 q-9 0 -15.499 6.5q-6.5 6.5 -6.5 15.5v255h-38.998v43h60.9971q8.99902 0 14.999 -6.5q5.99902 -6.5 5.99902 -15.5v-255h18.999q8 0 14.499 -6.5q6.5 -6.5 6.5 -14.5v-80z" />
<glyph unicode="~" horiz-adv-x="198" d="M119 344h67v-73q0 -14 -10 -24t-24 -10h-85v-39h-67v73q0 14 9.5 23.5t23.5 9.5h86v40zM131 292h-98q-8 0 -14.5 -6t-6.5 -15v-61h43v39h97q9 0 15.5 6.5t6.5 15.5v61h-43v-40z" />
<glyph horiz-adv-x="0" />
<glyph unicode="&#xa1;" horiz-adv-x="79" d="M12 12.042v517.969h43v-517.969h-43zM12 566.008v121.993h43v-121.993h-43zM67 542.01h-67v-541.967h67v541.967zM67 700h-67v-145.991h67v145.991z" />
<glyph unicode="&#xa2;" horiz-adv-x="237" d="M55 55v432h36v-432h-36zM67 67h12v408h-12v-408zM0 508q0 14 9.5 24t23.5 10h46v79h67v-79h46q14 0 23.5 -10t9.5 -24v-231h-67v198h-12v-408h12v198h67v-232q0 -14 -9.5 -23.5t-23.5 -9.5h-46v-79h-67v79h-46q-14 0 -23.5 9.5t-9.5 23.5v475zM33 530q-8 0 -14.5 -6.5 t-6.5 -15.5v-475q0 -8 6.5 -14.5t14.5 -6.5h58v-79h43v79h58q9 0 15 6.5t6 14.5v220h-43v-198h-36v432h36v-198h43v219q0 9 -6 15.5t-15 6.5h-58v79h-43v-79h-58z" />
<glyph unicode="&#xa3;" horiz-adv-x="237" d="M79 146v171h-79v67h79v322q0 14 10 24t24 10h79q14 0 23.5 -10t9.5 -24v-310h-67v277h-12v-289h79v-67h-79v-204q0 -14 -9.5 -24t-23.5 -10h-46v-12h158v-67h-225v113q0 14 9.5 23.5t23.5 9.5h46zM91 329v-195h-58q-8 0 -14.5 -6t-6.5 -15v-101h201v43h-158v36h58 q8 0 14.5 6.5t6.5 15.5v216h79v43h-79v313h36v-277h43v298q0 9 -6 15.5t-15 6.5h-79q-9 0 -15.5 -6.5t-6.5 -15.5v-334h-79v-43h79z" />
<glyph unicode="&#xa4;" horiz-adv-x="237" d="M131 487v-273h-36v273h36zM119 475h-12v-249h12v249zM146 621v-79h6q14 0 24 -9.5t10 -23.5v-125h39v-67h-39v-125q0 -14 -10 -23.5t-24 -9.5h-6v-79h-67v79h-6q-14 0 -23.5 9.5t-9.5 23.5v125h-40v67h40v125q0 14 9.5 23.5t23.5 9.5h6v79h67zM134 530v79h-43v-79h-18 q-9 0 -15 -6t-6 -15v-137h-40v-43h40v-137q0 -9 6 -15t15 -6h18v-79h43v79h18q9 0 15.5 6t6.5 15v137h39v43h-39v137q0 9 -6.5 15t-15.5 6h-18z" />
<glyph unicode="&#xa5;" d="M40 265v12h-40v67h40v12h-7q-14 0 -23.5 10t-9.5 24v310h67v-277h12v277h67v-310q0 -14 -9.5 -24t-23.5 -10h-6v-12h39v-67h-39v-12h39v-67h-39v-198h-67v198h-40v67h40zM52 289v-36h-40v-43h40v-198h43v198h39v43h-39v36h39v43h-39v36h18q8 0 14.5 6.5t6.5 15.5v298h-43 v-277h-36v277h-43v-298q0 -9 6.5 -15.5t14.5 -6.5h19v-36h-40v-43h40z" />
<glyph unicode="&#xa6;" horiz-adv-x="79" d="M67 395h-67v383h67v-383zM55 766h-43v-359h43v359zM0 303h67v-383h-67v383zM12 -68h43v359h-43v-359z" />
<glyph unicode="&#xa7;" d="M55 292v116h36v-116h-36zM67 304h12v92h-12v-92zM0 666q0 14 10 24t24 10h112v-225h-67v158h-12v-170h46q14 0 23.5 -10t9.5 -24v-396q0 -14 -9.5 -23.5t-23.5 -9.5h-113v225h67v-158h12v170h-45q-14 0 -24 10t-10 24v395zM134 688h-100q-9 0 -15.5 -6.5t-6.5 -15.5v-395 q0 -9 6.5 -15.5t15.5 -6.5h57v-194h-36v158h-43v-201h101q9 0 15 6.5t6 14.5v396q0 9 -6 15.5t-15 6.5h-58v194h36v-158h43v201z" />
<glyph unicode="&#xa8;" d="M91 688v-122h43v122h-43zM12 688v-122h43v122h-43zM146 554h-67v146h67v-146zM67 554h-67v146h67v-146z" />
<glyph unicode="&#xa9;" horiz-adv-x="316" d="M55 134v432h194v-432h-194zM67 146h170v408h-170v-408zM0 587q0 14 9.5 24t23.5 10h238q14 0 23.5 -10t9.5 -24v-474q0 -14 -9.5 -24t-23.5 -10h-238q-14 0 -23.5 10t-9.5 24v474zM12 113q0 -9 6.5 -15.5t14.5 -6.5h238q9 0 15 6.5t6 15.5v474q0 9 -6 15.5t-15 6.5h-238 q-8 0 -14.5 -6.5t-6.5 -15.5v-474zM192 542q14 0 23.5 -10t9.5 -24v-152h-67v119h-12v-250h12v119h67v-152q0 -14 -9.5 -24t-23.5 -10h-79q-14 0 -24 10t-10 24v316q0 14 10 24t24 10h79zM213 508q0 9 -6 15.5t-15 6.5h-79q-9 0 -15.5 -6.5t-6.5 -15.5v-316q0 -9 6.5 -15.5 t15.5 -6.5h79q9 0 15 6.5t6 15.5v140h-43v-119h-36v274h36v-119h43v140z" />
<glyph unicode="&#xaa;" d="M91 527v-74h-36v74h36zM79 515h-12v-50h12v50zM0 667q0 14 10 23.5t24 9.5h79q14 0 23.5 -9.5t9.5 -23.5v-270h-112q-14 0 -24 10t-10 24v117q0 14 10 24t24 10h45v51h-12v-38h-67v72zM12 607h43v38h36v-75h-57q-9 0 -15.5 -6.5t-6.5 -15.5v-117q0 -9 6.5 -15.5 t15.5 -6.5h100v258q0 9 -6 15t-15 6h-79q-9 0 -15.5 -6t-6.5 -15v-60z" />
<glyph unicode="&#xab;" horiz-adv-x="237" d="M119 351q0 14 9.5 23.5t23.5 9.5h73v-66h-39v-92h39v-67h-73q-14 0 -23.5 10t-9.5 24v158zM213 372h-61q-9 0 -15 -6t-6 -15v-158q0 -9 6 -15.5t15 -6.5h61v43h-39v116h12h27v42zM67 318v-92h40v-67h-74q-14 0 -23.5 10t-9.5 24v158q0 14 9.5 23.5t23.5 9.5h74v-66h-40z M55 214v116h40v42h-62q-8 0 -14.5 -6t-6.5 -15v-158q0 -9 6.5 -15.5t14.5 -6.5h62v43h-40z" />
<glyph unicode="&#xac;" horiz-adv-x="237" d="M0 305h225v-146h-67v79h-158v67zM12 250h158v-79h43v122h-201v-43z" />
<glyph unicode="&#xad;" d="M12 293v-43h122v43h-122zM146 238h-146v67h146v-67z" />
<glyph unicode="&#xae;" d="M91 645v-76h-36v76h36zM79 633h-12v-52h12v52zM113 700q14 0 23.5 -10t9.5 -24v-118q0 -14 -9.5 -24t-23.5 -10h-46v-12h46q14 0 23.5 -10t9.5 -24v-151h-67v118h-12v-118h-67v383h113zM134 666q0 9 -6 15.5t-15 6.5h-101v-359h43v118h36v-118h43v139q0 9 -6 15.5 t-15 6.5h-46h-12v36h58q9 0 15 6.5t6 15.5v118z" />
<glyph unicode="&#xaf;" d="M12 609v-43h122v43h-122zM146 554h-146v67h146v-67z" />
<glyph unicode="&#xb0;" d="M34 688q-9 0 -15.5 -6.5t-6.5 -15.5v-237q0 -9 6.5 -15t15.5 -6h79q9 0 15 6t6 15v237q0 9 -6 15.5t-15 6.5h-79zM55 644h36v-194h-36v194zM113 700q14 0 23.5 -10t9.5 -24v-237q0 -14 -9.5 -23.5t-23.5 -9.5h-79q-14 0 -24 9.5t-10 23.5v237q0 14 10 24t24 10h79z M79 462v170h-12v-170h12z" />
<glyph unicode="&#xb1;" horiz-adv-x="237" d="M91 411v-78h-79v-44h79v-79h43v79h79v44h-79v78h-43zM146 344h79v-67h-79v-79h-67v79h-79v67h79v79h67v-79zM12 174v-43h201v43h-201zM225 119h-225v67h225v-67z" />
<glyph unicode="&#xb4;" d="M146 700v-113q0 -14 -10 -23.5t-24 -9.5h-112v67h79v79h67zM12 609v-43h100q9 0 15.5 6t6.5 15v101h-43v-79h-79z" />
<glyph unicode="&#xb7;" horiz-adv-x="79" d="M12 332v-122h44v122h-44zM67 198h-67v146h67v-146z" />
<glyph unicode="&#xb8;" horiz-adv-x="79" d="M40 -91v12h-7q-14 0 -23.5 9.5t-9.5 23.5v113h67v-79h6q14 0 24 -10t10 -24v-79q0 -14 -10 -23.5t-24 -9.5h-73v67h40zM52 -67v-36h-40v-43h61q9 0 15.5 6t6.5 15v79q0 9 -6.5 15.5t-15.5 6.5h-18v79h-43v-101q0 -8 6.5 -14.5t14.5 -6.5h19z" />
<glyph unicode="&#xba;" d="M34 688q-9 0 -15.5 -6.5t-6.5 -15.5v-237q0 -9 6.5 -15t15.5 -6h79q9 0 15 6t6 15v237q0 9 -6 15.5t-15 6.5h-79zM55 644h36v-194h-36v194zM113 700q14 0 23.5 -10t9.5 -24v-237q0 -14 -9.5 -23.5t-23.5 -9.5h-79q-14 0 -24 9.5t-10 23.5v237q0 14 10 24t24 10h79z M79 462v170h-12v-170h12z" />
<glyph unicode="&#xbb;" horiz-adv-x="237" d="M106.007 351q0 14 -9.49902 23.5t-23.498 9.5h-72.9961v-66h38.998v-92h-38.998v-67h72.9961q13.999 0 23.498 10t9.49902 24v158zM12.0127 372h60.9971q8.99902 0 14.999 -6q5.99902 -6 5.99902 -15v-158q0 -9 -5.99902 -15.5q-6 -6.5 -14.999 -6.5h-60.9971v43h38.998 v116h-11.999h-26.999v42zM158.004 318v-92h-39.9971v-67h73.9951q13.999 0 23.499 10q9.49902 10 9.49902 24v158q0 14 -9.49902 23.5q-9.5 9.5 -23.499 9.5h-73.9951v-66h39.9971zM170.003 214v116h-39.9971v42h61.9961q8 0 14.499 -6q6.5 -6 6.5 -15v-158q0 -9 -6.5 -15.5 q-6.49902 -6.5 -14.499 -6.5h-61.9961v43h39.9971z" />
<glyph unicode="&#xbf;" d="M112.002 12.042q9 0 15.499 6.5q6.5 6.49902 6.5 15.499v257.984h-42.998v-236.986h-35.9971v272.983h56.9961q9 0 15.499 6.5q6.5 6.49902 6.5 15.499v179.989h-42.998v-157.991h-57.9961q-8.99902 0 -14.999 -6.49902q-6 -6.5 -6 -15.499v-315.98q0 -9 6 -15.499 q6 -6.5 14.999 -6.5h78.9951zM134.001 566.008v121.993h-42.998v-121.993h42.998zM33.0068 0.0429688q-13.999 0 -23.498 9.99902q-9.5 9.99902 -9.5 23.999v315.98q0 13.999 9.5 23.998q9.49902 10 23.498 10h45.9971v157.99h66.9961v-191.988q0 -13.999 -9.99902 -23.999 q-10 -9.99902 -23.999 -9.99902h-44.9971v-248.984h11.999v236.985h66.9961v-269.983q0 -14 -9.99902 -23.999q-10 -9.99902 -23.999 -9.99902h-78.9951zM79.0039 700h66.9961v-145.991h-66.9961v145.991z" />
<glyph unicode="&#xc0;" d="M33 530q-9 0 -15 -6.5t-6 -15.5v-496h43v236h36v-236h43v496q0 9 -6.5 15.5t-15.5 6.5h-79zM55 487h36v-195h-36v195zM112 542q14 0 24 -10t10 -24v-508h-67v236h-12v-236h-67v508q0 14 9.5 24t23.5 10h79zM79 304v171h-12v-171h12zM67 700v-79h79v-67h-112 q-14 0 -24 9.5t-10 23.5v113h67zM55 609v79h-43v-101q0 -9 6.5 -15t15.5 -6h100v43h-79z" />
<glyph unicode="&#xc1;" d="M112 530q9 0 15.5 -6.5t6.5 -15.5v-496h-43v236h-36v-236h-43v496q0 9 6 15.5t15 6.5h79zM55 292h36v195h-36v-195zM112 542h-79q-14 0 -23.5 -10t-9.5 -24v-508h67v236h12v-236h67v508q0 14 -10 24t-24 10zM67 304v171h12v-171h-12zM146 700v-113q0 -14 -10 -23.5 t-24 -9.5h-112v67h79v79h67zM12 609v-43h100q9 0 15.5 6t6.5 15v101h-43v-79h-79z" />
<glyph unicode="&#xc2;" d="M33 530q-9 0 -15 -6.5t-6 -15.5v-496h43v236h36v-236h43v496q0 9 -6.5 15.5t-15.5 6.5h-79zM55 487h36v-195h-36v195zM112 542q14 0 24 -10t10 -24v-508h-67v236h-12v-236h-67v508q0 14 9.5 24t23.5 10h79zM79 304v171h-12v-171h12zM136 651q10 -10 10 -24v-73h-67v59 l-6 6l-6 -6v-59h-67v73q0 12 10 24l39 39q10 10 24 10t24 -10zM134 627q0 9 -6 15l-40 40q-6 6 -15 6t-15 -6l-40 -40q-6 -6 -6 -15v-61h43v52l18 18l18 -18v-52h43v61z" />
<glyph unicode="&#xc3;" d="M33 530q-9 0 -15 -6.5t-6 -15.5v-496h43v236h36v-236h43v496q0 9 -6.5 15.5t-15.5 6.5h-79zM55 487h36v-195h-36v195zM112 542q14 0 24 -10t10 -24v-508h-67v236h-12v-236h-67v508q0 14 9.5 24t23.5 10h79zM79 304v171h-12v-171h12zM79 700h67v-73q0 -14 -10 -24t-24 -10 h-45v-39h-67v73q0 14 9.5 23.5t23.5 9.5h46v40zM91 648h-58q-8 0 -14.5 -6t-6.5 -15v-61h43v39h57q9 0 15.5 6.5t6.5 15.5v61h-43v-40z" />
<glyph unicode="&#xc4;" d="M33 530q-9 0 -15 -6.5t-6 -15.5v-496h43v236h36v-236h43v496q0 9 -6.5 15.5t-15.5 6.5h-79zM55 487h36v-195h-36v195zM112 542q14 0 24 -10t10 -24v-508h-67v236h-12v-236h-67v508q0 14 9.5 24t23.5 10h79zM79 304v171h-12v-171h12zM91 688v-122h43v122h-43zM12 688v-122 h43v122h-43zM146 554h-67v146h67v-146zM67 554h-67v146h67v-146z" />
<glyph unicode="&#xc5;" d="M33 530q-9 0 -15 -6.5t-6 -15.5v-496h43v236h36v-236h43v496q0 9 -6.5 15.5t-15.5 6.5h-79zM55 487h36v-195h-36v195zM112 542q14 0 24 -10t10 -24v-508h-67v236h-12v-236h-67v508q0 14 9.5 24t23.5 10h79zM79 304v171h-12v-171h12zM91 645v-36h-36v36h36zM79 633h-12 v-12h12v12zM112 700q14 0 24 -10t10 -24v-79q0 -14 -10 -23.5t-24 -9.5h-79q-14 0 -23.5 9.5t-9.5 23.5v79q0 14 9.5 24t23.5 10h79zM134 666q0 9 -6.5 15.5t-15.5 6.5h-79q-9 0 -15 -6.5t-6 -15.5v-79q0 -9 6 -15t15 -6h79q9 0 15.5 6t6.5 15v79z" />
<glyph unicode="&#xc6;" horiz-adv-x="237" d="M55 371v274h36v-274h-36zM67 383h12v250h-12v-250zM0 666q0 14 9.5 24t23.5 10h192v-304h-67v237h-12v-250h79v-67h-79v-249h12v237h67v-304h-146v316h-12v-316h-67v666zM12 12h43v316h36v-316h122v280h-43v-237h-36v273h79v43h-79v274h36v-237h43v280h-180 q-8 0 -14.5 -6.5t-6.5 -15.5v-654z" />
<glyph unicode="&#xc7;" d="M0 666q0 14 9.5 24t23.5 10h80q14 0 23.5 -10t9.5 -24v-310h-67v277h-12v-566h12v277h67v-311q0 -14 -9.5 -23.5t-23.5 -9.5h-6v-12h6q14 0 23.5 -10t9.5 -24v-79q0 -14 -9.5 -23.5t-23.5 -9.5h-73v67h39v12h-6q-14 0 -23.5 9.5t-9.5 23.5v46h-7q-14 0 -23.5 9.5 t-9.5 23.5v633zM134 666q0 9 -6.5 15.5t-14.5 6.5h-80q-8 0 -14.5 -6.5t-6.5 -15.5v-633q0 -8 6.5 -14.5t14.5 -6.5h19v-58q0 -9 6 -15t15 -6h18v-36h-39v-43h61q8 0 14.5 6t6.5 15v79q0 9 -6.5 15.5t-14.5 6.5h-18v36h18q8 0 14.5 6.5t6.5 14.5v299h-43v-277h-36v590h36 v-277h43v298z" />
<glyph unicode="&#xc8;" d="M12 530v-518h122v201h-43v-158h-36v194h79v44h-79v194h36v-158h43v201h-122zM146 317h-67v158h-12v-170h79v-68h-79v-170h12v158h67v-225h-146v542h146v-225zM67 700v-79h79v-67h-112q-14 0 -24 9.5t-10 23.5v113h67zM55 609v79h-43v-101q0 -9 6.5 -15t15.5 -6h100v43 h-79z" />
<glyph unicode="&#xc9;" d="M134 530v-201h-43v158h-36v-194h79v-44h-79v-194h36v158h43v-201h-122v518h122zM146 542h-146v-542h146v225h-67v-158h-12v170h79v68h-79v170h12v-158h67v225zM146 700v-113q0 -14 -10 -23.5t-24 -9.5h-112v67h79v79h67zM12 609v-43h100q9 0 15.5 6t6.5 15v101h-43v-79 h-79z" />
<glyph unicode="&#xca;" d="M12 530v-518h122v201h-43v-158h-36v194h79v44h-79v194h36v-158h43v201h-122zM146 317h-67v158h-12v-170h79v-68h-79v-170h12v158h67v-225h-146v542h146v-225zM136 651q10 -10 10 -24v-73h-67v59l-6 6l-6 -6v-59h-67v73q0 12 10 24l39 39q10 10 24 10t24 -10zM134 627 q0 9 -6 15l-40 40q-6 6 -15 6t-15 -6l-40 -40q-6 -6 -6 -15v-61h43v52l18 18l18 -18v-52h43v61z" />
<glyph unicode="&#xcb;" d="M12 530v-518h122v201h-43v-158h-36v194h79v44h-79v194h36v-158h43v201h-122zM146 317h-67v158h-12v-170h79v-68h-79v-170h12v158h67v-225h-146v542h146v-225zM91 688v-122h43v122h-43zM12 688v-122h43v122h-43zM146 554h-67v146h67v-146zM67 554h-67v146h67v-146z" />
<glyph unicode="&#xcc;" horiz-adv-x="237" d="M12 530v-241h43v198h36v-432h-36v198h-43v-241h201v241h-43v-198h-36v432h36v-198h43v241h-201zM225 277h-67v198h-12v-408h12v198h67v-265h-225v265h67v-198h12v408h-12v-198h-67v265h225v-265zM106 700v-79h79v-67h-112q-14 0 -24 9.5t-10 23.5v113h67zM94 609v79h-43 v-101q0 -9 6.5 -15t15.5 -6h100v43h-79z" />
<glyph unicode="&#xcd;" horiz-adv-x="237" d="M213 530v-241h-43v198h-36v-432h36v198h43v-241h-201v241h43v-198h36v432h-36v-198h-43v241h201zM225 542h-225v-265h67v198h12v-408h-12v198h-67v-265h225v265h-67v-198h-12v408h12v-198h67v265zM185 700v-113q0 -14 -10 -23.5t-24 -9.5h-112v67h79v79h67zM51 609v-43 h100q9 0 15.5 6t6.5 15v101h-43v-79h-79z" />
<glyph unicode="&#xce;" horiz-adv-x="237" d="M12 530v-241h43v198h36v-432h-36v198h-43v-241h201v241h-43v-198h-36v432h36v-198h43v241h-201zM225 277h-67v198h-12v-408h12v198h67v-265h-225v265h67v-198h12v408h-12v-198h-67v265h225v-265zM175 651q10 -10 10 -24v-73h-67v59l-6 6l-6 -6v-59h-67v73q0 12 10 24 l39 39q10 10 24 10t24 -10zM173 627q0 9 -6 15l-40 40q-6 6 -15 6t-15 -6l-40 -40q-6 -6 -6 -15v-61h43v52l18 18l18 -18v-52h43v61z" />
<glyph unicode="&#xcf;" horiz-adv-x="237" d="M12 530v-241h43v198h36v-432h-36v198h-43v-241h201v241h-43v-198h-36v432h36v-198h43v241h-201zM225 277h-67v198h-12v-408h12v198h67v-265h-225v265h67v-198h12v408h-12v-198h-67v265h225v-265zM130 688v-122h43v122h-43zM51 688v-122h43v122h-43zM185 554h-67v146h67 v-146zM106 554h-67v146h67v-146z" />
<glyph unicode="&#xd0;" horiz-adv-x="237" d="M170 645v-274h-36v274h36zM158 633h-12v-250h12v250zM170 328v-273h-36v273h36zM158 316h-12v-249h12v249zM225 33q0 -14 -9.5 -23.5t-23.5 -9.5h-192v304h67v-237h12v249h-79v67h79v250h-12v-237h-67v304h192q14 0 23.5 -10t9.5 -24v-633zM213 666q0 9 -6 15.5t-15 6.5 h-180v-280h43v237h36v-274h-79v-43h79v-273h-36v237h-43v-280h180q9 0 15 6.5t6 14.5v633z" />
<glyph unicode="&#xd1;" horiz-adv-x="237" d="M170 530v-463v-12h-36v453q0 9 -6 15.5t-15 6.5h-101v-518h44v475h36v-453q0 -9 6 -15.5t15 -6.5h100v518h-43zM225 0h-112q-14 0 -23.5 10t-9.5 24v441h-12v-475h-68v542h113q14 0 24 -10t10 -24v-441h11v475h67v-542zM124 700h67v-73q0 -14 -10 -24t-24 -10h-45v-39 h-67v73q0 14 9.5 23.5t23.5 9.5h46v40zM136 648h-58q-8 0 -14.5 -6t-6.5 -15v-61h43v39h57q9 0 15.5 6.5t6.5 15.5v61h-43v-40z" />
<glyph unicode="&#xd2;" d="M67 700v-79h79v-67h-112q-14 0 -24 9.5t-10 23.5v113h67zM55 609v79h-43v-101q0 -9 6.5 -15t15.5 -6h100v43h-79zM112 542q14 0 24 -10t10 -24v-474q0 -14 -10 -24t-24 -10h-79q-14 0 -23.5 10t-9.5 24v474q0 14 9.5 24t23.5 10h79zM134 508q0 9 -6.5 15.5t-15.5 6.5h-79 q-9 0 -15 -6.5t-6 -15.5v-474q0 -9 6 -15.5t15 -6.5h79q9 0 15.5 6.5t6.5 15.5v474zM91 487v-432h-37v432h37zM79 475h-13v-408h13v408z" />
<glyph unicode="&#xd3;" d="M146 700v-113q0 -14 -10 -23.5t-24 -9.5h-112v67h79v79h67zM12 609v-43h100q9 0 15.5 6t6.5 15v101h-43v-79h-79zM112 542q14 0 24 -10t10 -24v-474q0 -14 -10 -24t-24 -10h-79q-14 0 -23.5 10t-9.5 24v474q0 14 9.5 24t23.5 10h79zM134 508q0 9 -6.5 15.5t-15.5 6.5h-79 q-9 0 -15 -6.5t-6 -15.5v-474q0 -9 6 -15.5t15 -6.5h79q9 0 15.5 6.5t6.5 15.5v474zM91 487v-432h-37v432h37zM79 475h-13v-408h13v408z" />
<glyph unicode="&#xd4;" d="M136 651q10 -10 10 -24v-73h-67v59l-6 6l-6 -6v-59h-67v73q0 12 10 24l39 39q10 10 24 10t24 -10zM134 627q0 9 -6 15l-40 40q-6 6 -15 6t-15 -6l-40 -40q-6 -6 -6 -15v-61h43v52l18 18l18 -18v-52h43v61zM112 542q14 0 24 -10t10 -24v-474q0 -14 -10 -24t-24 -10h-79 q-14 0 -23.5 10t-9.5 24v474q0 14 9.5 24t23.5 10h79zM134 508q0 9 -6.5 15.5t-15.5 6.5h-79q-9 0 -15 -6.5t-6 -15.5v-474q0 -9 6 -15.5t15 -6.5h79q9 0 15.5 6.5t6.5 15.5v474zM91 487v-432h-37v432h37zM79 475h-13v-408h13v408z" />
<glyph unicode="&#xd5;" d="M79 700h67v-73q0 -14 -10 -24t-24 -10h-45v-39h-67v73q0 14 9.5 23.5t23.5 9.5h46v40zM91 648h-58q-8 0 -14.5 -6t-6.5 -15v-61h43v39h57q9 0 15.5 6.5t6.5 15.5v61h-43v-40zM112 542q14 0 24 -10t10 -24v-474q0 -14 -10 -24t-24 -10h-79q-14 0 -23.5 10t-9.5 24v474 q0 14 9.5 24t23.5 10h79zM134 508q0 9 -6.5 15.5t-15.5 6.5h-79q-9 0 -15 -6.5t-6 -15.5v-474q0 -9 6 -15.5t15 -6.5h79q9 0 15.5 6.5t6.5 15.5v474zM91 487v-432h-37v432h37zM79 475h-13v-408h13v408z" />
<glyph unicode="&#xd6;" d="M91 688v-122h43v122h-43zM12 688v-122h43v122h-43zM146 554h-67v146h67v-146zM67 554h-67v146h67v-146zM112 542q14 0 24 -10t10 -24v-474q0 -14 -10 -24t-24 -10h-79q-14 0 -23.5 10t-9.5 24v474q0 14 9.5 24t23.5 10h79zM134 508q0 9 -6.5 15.5t-15.5 6.5h-79 q-9 0 -15 -6.5t-6 -15.5v-474q0 -9 6 -15.5t15 -6.5h79q9 0 15.5 6.5t6.5 15.5v474zM91 487v-432h-37v432h37zM79 475h-13v-408h13v408z" />
<glyph unicode="&#xd8;" horiz-adv-x="237" d="M55 134v432h36v-432h-36zM67 146h12v408h-12v-408zM134 134v432h36v-432h-36zM146 146h12v408h-12v-408zM0 587q0 14 9.5 24t23.5 10h46v79h67v-79h46q14 0 23.5 -10t9.5 -24v-474q0 -14 -9.5 -24t-23.5 -10h-46v-79h-67v79h-46q-14 0 -23.5 10t-9.5 24v474zM12 113 q0 -9 6.5 -15.5t14.5 -6.5h58v-79h43v79h58q9 0 15 6.5t6 15.5v474q0 9 -6 15.5t-15 6.5h-58v79h-43v-79h-58q-8 0 -14.5 -6.5t-6.5 -15.5v-474z" />
<glyph unicode="&#xd9;" d="M67 700v-79h79v-67h-112q-14 0 -24 9.5t-10 23.5v113h67zM55 609v79h-43v-101q0 -9 6.5 -15t15.5 -6h100v43h-79zM67 67h12v475h67v-508q0 -14 -9.5 -24t-23.5 -10h-79q-14 0 -24 10t-10 24v508h67v-475zM55 55v475h-43v-496q0 -9 6.5 -15.5t15.5 -6.5h79q9 0 15 6.5 t6 15.5v496h-43v-475h-36z" />
<glyph unicode="&#xda;" d="M146 700v-113q0 -14 -10 -23.5t-24 -9.5h-112v67h79v79h67zM12 609v-43h100q9 0 15.5 6t6.5 15v101h-43v-79h-79zM67 67h12v475h67v-508q0 -14 -9.5 -24t-23.5 -10h-79q-14 0 -24 10t-10 24v508h67v-475zM55 55v475h-43v-496q0 -9 6.5 -15.5t15.5 -6.5h79q9 0 15 6.5 t6 15.5v496h-43v-475h-36z" />
<glyph unicode="&#xdb;" d="M136 651q10 -10 10 -24v-73h-67v59l-6 6l-6 -6v-59h-67v73q0 12 10 24l39 39q10 10 24 10t24 -10zM134 627q0 9 -6 15l-40 40q-6 6 -15 6t-15 -6l-40 -40q-6 -6 -6 -15v-61h43v52l18 18l18 -18v-52h43v61zM67 67h12v475h67v-508q0 -14 -9.5 -24t-23.5 -10h-79 q-14 0 -24 10t-10 24v508h67v-475zM55 55v475h-43v-496q0 -9 6.5 -15.5t15.5 -6.5h79q9 0 15 6.5t6 15.5v496h-43v-475h-36z" />
<glyph unicode="&#xdc;" d="M91 688v-122h43v122h-43zM12 688v-122h43v122h-43zM146 554h-67v146h67v-146zM67 554h-67v146h67v-146zM67 67h12v475h67v-508q0 -14 -9.5 -24t-23.5 -10h-79q-14 0 -24 10t-10 24v508h67v-475zM55 55v475h-43v-496q0 -9 6.5 -15.5t15.5 -6.5h79q9 0 15 6.5t6 15.5v496 h-43v-475h-36z" />
<glyph unicode="&#xdd;" d="M34 237h6v-237h66v237h7q14 0 23.5 9.5t9.5 23.5v272h-67v-238h-12v238h-67v-272q0 -14 10 -23.5t24 -9.5zM12 530h43v-238h36v238h43v-260q0 -8 -6 -14.5t-15 -6.5h-19v-237h-42v237h-18q-9 0 -15.5 6.5t-6.5 14.5v260zM146 700v-113q0 -14 -10 -23.5t-24 -9.5h-112v67 h79v79h67zM12 609v-43h100q9 0 15.5 6t6.5 15v101h-43v-79h-79z" />
<glyph unicode="&#xde;" d="M0 700h67v-79h46q14 0 23.5 -10t9.5 -24v-474q0 -14 -9.5 -24t-23.5 -10h-46v-79h-67v700zM12 12h43v79h58q8 0 14.5 6.5t6.5 15.5v474q0 9 -6.5 15.5t-14.5 6.5h-58v79h-43v-676zM55 134v432h36v-432h-36zM67 146h12v408h-12v-408z" />
<glyph unicode="&#xdf;" horiz-adv-x="198" d="M67 356v-12h85q14 0 24 -10t10 -24v-277q0 -14 -10 -23.5t-24 -9.5h-73v67h40v210h-52v-277h-67v666q0 14 9.5 24t23.5 10h80q14 0 23.5 -10t9.5 -24v-276q0 -14 -9.5 -24t-23.5 -10h-46zM55 332v36h58q8 0 14.5 6.5t6.5 15.5v276q0 9 -6.5 15.5t-14.5 6.5h-80 q-8 0 -14.5 -6.5t-6.5 -15.5v-654h43v277h76v-234h-40v-43h61q9 0 15.5 6.5t6.5 14.5v277q0 9 -6.5 15.5t-15.5 6.5h-97zM55 411v234h36v-234h-36zM67 423h12v210h-12v-210z" />
<glyph unicode="&#xe0;" d="M91 250v-194h-36v194h36zM79 238h-12v-170h12v170zM0 509q0 14 10 23.5t24 9.5h79q14 0 23.5 -9.5t9.5 -23.5v-509h-112q-14 0 -24 10t-10 24v237q0 14 10 24t24 10h45v170h-12v-158h-67v192zM12 329h43v158h36v-194h-57q-9 0 -15.5 -6.5t-6.5 -15.5v-237q0 -9 6.5 -15.5 t15.5 -6.5h100v497q0 9 -6 15t-15 6h-79q-9 0 -15.5 -6t-6.5 -15v-180zM67 700v-79h79v-67h-112q-14 0 -24 9.5t-10 23.5v113h67zM55 609v79h-43v-101q0 -9 6.5 -15t15.5 -6h100v43h-79z" />
<glyph unicode="&#xe1;" d="M91 250v-194h-36v194h36zM79 238h-12v-170h12v170zM0 509q0 14 10 23.5t24 9.5h79q14 0 23.5 -9.5t9.5 -23.5v-509h-112q-14 0 -24 10t-10 24v237q0 14 10 24t24 10h45v170h-12v-158h-67v192zM12 329h43v158h36v-194h-57q-9 0 -15.5 -6.5t-6.5 -15.5v-237q0 -9 6.5 -15.5 t15.5 -6.5h100v497q0 9 -6 15t-15 6h-79q-9 0 -15.5 -6t-6.5 -15v-180zM146 700v-113q0 -14 -10 -23.5t-24 -9.5h-112v67h79v79h67zM12 609v-43h100q9 0 15.5 6t6.5 15v101h-43v-79h-79z" />
<glyph unicode="&#xe2;" d="M91 250v-194h-36v194h36zM79 238h-12v-170h12v170zM0 509q0 14 10 23.5t24 9.5h79q14 0 23.5 -9.5t9.5 -23.5v-509h-112q-14 0 -24 10t-10 24v237q0 14 10 24t24 10h45v170h-12v-158h-67v192zM12 329h43v158h36v-194h-57q-9 0 -15.5 -6.5t-6.5 -15.5v-237q0 -9 6.5 -15.5 t15.5 -6.5h100v497q0 9 -6 15t-15 6h-79q-9 0 -15.5 -6t-6.5 -15v-180zM136 651q10 -10 10 -24v-73h-67v59l-6 6l-6 -6v-59h-67v73q0 12 10 24l39 39q10 10 24 10t24 -10zM134 627q0 9 -6 15l-40 40q-6 6 -15 6t-15 -6l-40 -40q-6 -6 -6 -15v-61h43v52l18 18l18 -18v-52h43 v61z" />
<glyph unicode="&#xe3;" d="M91 250v-194h-36v194h36zM79 238h-12v-170h12v170zM0 509q0 14 10 23.5t24 9.5h79q14 0 23.5 -9.5t9.5 -23.5v-509h-112q-14 0 -24 10t-10 24v237q0 14 10 24t24 10h45v170h-12v-158h-67v192zM12 329h43v158h36v-194h-57q-9 0 -15.5 -6.5t-6.5 -15.5v-237q0 -9 6.5 -15.5 t15.5 -6.5h100v497q0 9 -6 15t-15 6h-79q-9 0 -15.5 -6t-6.5 -15v-180zM79 700h67v-73q0 -14 -10 -24t-24 -10h-45v-39h-67v73q0 14 9.5 23.5t23.5 9.5h46v40zM91 648h-58q-8 0 -14.5 -6t-6.5 -15v-61h43v39h57q9 0 15.5 6.5t6.5 15.5v61h-43v-40z" />
<glyph unicode="&#xe4;" d="M91 250v-194h-36v194h36zM79 238h-12v-170h12v170zM0 509q0 14 10 23.5t24 9.5h79q14 0 23.5 -9.5t9.5 -23.5v-509h-112q-14 0 -24 10t-10 24v237q0 14 10 24t24 10h45v170h-12v-158h-67v192zM12 329h43v158h36v-194h-57q-9 0 -15.5 -6.5t-6.5 -15.5v-237q0 -9 6.5 -15.5 t15.5 -6.5h100v497q0 9 -6 15t-15 6h-79q-9 0 -15.5 -6t-6.5 -15v-180zM91 688v-122h43v122h-43zM12 688v-122h43v122h-43zM146 554h-67v146h67v-146zM67 554h-67v146h67v-146z" />
<glyph unicode="&#xe5;" d="M91 250v-194h-36v194h36zM79 238h-12v-170h12v170zM0 509q0 14 10 23.5t24 9.5h79q14 0 23.5 -9.5t9.5 -23.5v-509h-112q-14 0 -24 10t-10 24v237q0 14 10 24t24 10h45v170h-12v-158h-67v192zM12 329h43v158h36v-194h-57q-9 0 -15.5 -6.5t-6.5 -15.5v-237q0 -9 6.5 -15.5 t15.5 -6.5h100v497q0 9 -6 15t-15 6h-79q-9 0 -15.5 -6t-6.5 -15v-180zM91 645v-36h-36v36h36zM79 633h-12v-12h12v12zM112 700q14 0 24 -10t10 -24v-79q0 -14 -10 -23.5t-24 -9.5h-79q-14 0 -23.5 9.5t-9.5 23.5v79q0 14 9.5 24t23.5 10h79zM134 666q0 9 -6.5 15.5 t-15.5 6.5h-79q-9 0 -15 -6.5t-6 -15.5v-79q0 -9 6 -15t15 -6h79q9 0 15.5 6t6.5 15v79z" />
<glyph unicode="&#xe6;" horiz-adv-x="237" d="M134 292v195h36v-195h-36zM146 304h12v171h-12v-171zM0 508q0 14 9.5 24t23.5 10h159q14 0 23.5 -10t9.5 -24v-271h-79v-170h12v158h67v-192q0 -14 -9.5 -23.5t-23.5 -9.5h-159q-14 0 -23.5 9.5t-9.5 23.5v238q0 14 9.5 23.5t23.5 9.5h46v171h-12v-159h-67v192zM213 508 q0 9 -6 15.5t-15 6.5h-159q-8 0 -14.5 -6.5t-6.5 -15.5v-180h43v159h36v-195h-58q-8 0 -14.5 -6t-6.5 -15v-238q0 -8 6.5 -14.5t14.5 -6.5h159q9 0 15 6.5t6 14.5v180h-43v-158h-36v194h79v259zM91 249v-194h-36v194h36zM79 237h-12v-170h12v170z" />
<glyph unicode="&#xe7;" d="M0 508q0 14 9.5 24t23.5 10h80q14 0 23.5 -10t9.5 -24v-231h-67v198h-12v-408h12v198h67v-232q0 -14 -9.5 -23.5t-23.5 -9.5h-6v-12h6q14 0 23.5 -10t9.5 -24v-79q0 -14 -9.5 -23.5t-23.5 -9.5h-73v67h39v12h-6q-14 0 -23.5 9.5t-9.5 23.5v46h-7q-14 0 -23.5 9.5 t-9.5 23.5v475zM134 508q0 9 -6.5 15.5t-14.5 6.5h-80q-8 0 -14.5 -6.5t-6.5 -15.5v-475q0 -8 6.5 -14.5t14.5 -6.5h19v-58q0 -9 6 -15t15 -6h18v-36h-39v-43h61q8 0 14.5 6t6.5 15v79q0 9 -6.5 15.5t-14.5 6.5h-18v36h18q8 0 14.5 6.5t6.5 14.5v220h-43v-198h-36v432h36 v-198h43v219z" />
<glyph unicode="&#xe8;" d="M55 292v195h36v-195h-36zM67 304h12v171h-12v-171zM0 508q0 14 10 24t24 10h79q14 0 23.5 -10t9.5 -24v-271h-79v-170h12v158h67v-191q0 -14 -9.5 -24t-23.5 -10h-79q-14 0 -24 10t-10 24v474zM12 34q0 -9 6.5 -15.5t15.5 -6.5h79q9 0 15 6.5t6 15.5v179h-43v-158h-36 v194h79v259q0 9 -6 15.5t-15 6.5h-79q-9 0 -15.5 -6.5t-6.5 -15.5v-474zM67 700v-79h79v-67h-112q-14 0 -24 9.5t-10 23.5v113h67zM55 609v79h-43v-101q0 -9 6.5 -15t15.5 -6h100v43h-79z" />
<glyph unicode="&#xe9;" d="M55 292v195h36v-195h-36zM67 304h12v171h-12v-171zM0 508q0 14 10 24t24 10h79q14 0 23.5 -10t9.5 -24v-271h-79v-170h12v158h67v-191q0 -14 -9.5 -24t-23.5 -10h-79q-14 0 -24 10t-10 24v474zM12 34q0 -9 6.5 -15.5t15.5 -6.5h79q9 0 15 6.5t6 15.5v179h-43v-158h-36 v194h79v259q0 9 -6 15.5t-15 6.5h-79q-9 0 -15.5 -6.5t-6.5 -15.5v-474zM146 700v-113q0 -14 -10 -23.5t-24 -9.5h-112v67h79v79h67zM12 609v-43h100q9 0 15.5 6t6.5 15v101h-43v-79h-79z" />
<glyph unicode="&#xea;" d="M55 292v195h36v-195h-36zM67 304h12v171h-12v-171zM0 508q0 14 10 24t24 10h79q14 0 23.5 -10t9.5 -24v-271h-79v-170h12v158h67v-191q0 -14 -9.5 -24t-23.5 -10h-79q-14 0 -24 10t-10 24v474zM12 34q0 -9 6.5 -15.5t15.5 -6.5h79q9 0 15 6.5t6 15.5v179h-43v-158h-36 v194h79v259q0 9 -6 15.5t-15 6.5h-79q-9 0 -15.5 -6.5t-6.5 -15.5v-474zM136 651q10 -10 10 -24v-73h-67v59l-6 6l-6 -6v-59h-67v73q0 12 10 24l39 39q10 10 24 10t24 -10zM134 627q0 9 -6 15l-40 40q-6 6 -15 6t-15 -6l-40 -40q-6 -6 -6 -15v-61h43v52l18 18l18 -18v-52h43 v61z" />
<glyph unicode="&#xeb;" d="M55 292v195h36v-195h-36zM67 304h12v171h-12v-171zM0 508q0 14 10 24t24 10h79q14 0 23.5 -10t9.5 -24v-271h-79v-170h12v158h67v-191q0 -14 -9.5 -24t-23.5 -10h-79q-14 0 -24 10t-10 24v474zM12 34q0 -9 6.5 -15.5t15.5 -6.5h79q9 0 15 6.5t6 15.5v179h-43v-158h-36 v194h79v259q0 9 -6 15.5t-15 6.5h-79q-9 0 -15.5 -6.5t-6.5 -15.5v-474zM91 688v-122h43v122h-43zM12 688v-122h43v122h-43zM146 554h-67v146h67v-146zM67 554h-67v146h67v-146z" />
<glyph unicode="&#xec;" d="M107 0h-67v542h67v-542zM95 530h-43v-518h43v518zM67 700v-79h79v-67h-112q-14 0 -24 9.5t-10 23.5v113h67zM55 609v79h-43v-101q0 -9 6.5 -15t15.5 -6h100v43h-79z" />
<glyph unicode="&#xed;" d="M107 0h-67v542h67v-542zM95 530h-43v-518h43v518zM146 700v-113q0 -14 -10 -23.5t-24 -9.5h-112v67h79v79h67zM12 609v-43h100q9 0 15.5 6t6.5 15v101h-43v-79h-79z" />
<glyph unicode="&#xee;" d="M107 0h-67v542h67v-542zM95 530h-43v-518h43v518zM136 651q10 -10 10 -24v-73h-67v59l-6 6l-6 -6v-59h-67v73q0 12 10 24l39 39q10 10 24 10t24 -10zM134 627q0 9 -6 15l-40 40q-6 6 -15 6t-15 -6l-40 -40q-6 -6 -6 -15v-61h43v52l18 18l18 -18v-52h43v61z" />
<glyph unicode="&#xef;" d="M107 0h-67v542h67v-542zM95 530h-43v-518h43v518zM91 688v-122h43v122h-43zM12 688v-122h43v122h-43zM146 554h-67v146h67v-146zM67 554h-67v146h67v-146z" />
<glyph unicode="&#xf0;" horiz-adv-x="198" d="M146 0h-113q-14 0 -23.5 9.5t-9.5 23.5v475q0 14 9.5 24t23.5 10h46v12h-39v67h39v79h67v-79h40v-67h-40v-554zM134 566h40v43h-40v79h-43v-79h-39v-43h39v-36h-58q-8 0 -14.5 -6.5t-6.5 -15.5v-475q0 -8 6.5 -14.5t14.5 -6.5h101v554zM91 487v-432h-36v432h36zM79 475 h-12v-408h12v408z" />
<glyph unicode="&#xf1;" d="M113 542q14 0 23.5 -10t9.5 -24v-508h-67v475h-12v-475h-67v542h113zM134 508q0 9 -6 15.5t-15 6.5h-101v-518h43v475h36v-475h43v496zM79 700h67v-73q0 -14 -10 -24t-24 -10h-45v-39h-67v73q0 14 9.5 23.5t23.5 9.5h46v40zM91 648h-58q-8 0 -14.5 -6t-6.5 -15v-61h43v39 h57q9 0 15.5 6.5t6.5 15.5v61h-43v-40z" />
<glyph unicode="&#xf2;" d="M112 542q14 0 24 -10t10 -24v-474q0 -14 -10 -24t-24 -10h-79q-14 0 -23.5 10t-9.5 24v474q0 14 9.5 24t23.5 10h79zM134 508q0 9 -6.5 15.5t-15.5 6.5h-79q-9 0 -15 -6.5t-6 -15.5v-474q0 -9 6 -15.5t15 -6.5h79q9 0 15.5 6.5t6.5 15.5v474zM91 487v-432h-37v432h37z M79 475h-13v-408h13v408zM67 700v-79h79v-67h-112q-14 0 -24 9.5t-10 23.5v113h67zM55 609v79h-43v-101q0 -9 6.5 -15t15.5 -6h100v43h-79z" />
<glyph unicode="&#xf3;" d="M112 542q14 0 24 -10t10 -24v-474q0 -14 -10 -24t-24 -10h-79q-14 0 -23.5 10t-9.5 24v474q0 14 9.5 24t23.5 10h79zM134 508q0 9 -6.5 15.5t-15.5 6.5h-79q-9 0 -15 -6.5t-6 -15.5v-474q0 -9 6 -15.5t15 -6.5h79q9 0 15.5 6.5t6.5 15.5v474zM91 487v-432h-37v432h37z M79 475h-13v-408h13v408zM146 700v-113q0 -14 -10 -23.5t-24 -9.5h-112v67h79v79h67zM12 609v-43h100q9 0 15.5 6t6.5 15v101h-43v-79h-79z" />
<glyph unicode="&#xf4;" d="M112 542q14 0 24 -10t10 -24v-474q0 -14 -10 -24t-24 -10h-79q-14 0 -23.5 10t-9.5 24v474q0 14 9.5 24t23.5 10h79zM134 508q0 9 -6.5 15.5t-15.5 6.5h-79q-9 0 -15 -6.5t-6 -15.5v-474q0 -9 6 -15.5t15 -6.5h79q9 0 15.5 6.5t6.5 15.5v474zM91 487v-432h-37v432h37z M79 475h-13v-408h13v408zM136 651q10 -10 10 -24v-73h-67v59l-6 6l-6 -6v-59h-67v73q0 12 10 24l39 39q10 10 24 10t24 -10zM134 627q0 9 -6 15l-40 40q-6 6 -15 6t-15 -6l-40 -40q-6 -6 -6 -15v-61h43v52l18 18l18 -18v-52h43v61z" />
<glyph unicode="&#xf5;" d="M112 542q14 0 24 -10t10 -24v-474q0 -14 -10 -24t-24 -10h-79q-14 0 -23.5 10t-9.5 24v474q0 14 9.5 24t23.5 10h79zM134 508q0 9 -6.5 15.5t-15.5 6.5h-79q-9 0 -15 -6.5t-6 -15.5v-474q0 -9 6 -15.5t15 -6.5h79q9 0 15.5 6.5t6.5 15.5v474zM91 487v-432h-37v432h37z M79 475h-13v-408h13v408zM79 700h67v-73q0 -14 -10 -24t-24 -10h-45v-39h-67v73q0 14 9.5 23.5t23.5 9.5h46v40zM91 648h-58q-8 0 -14.5 -6t-6.5 -15v-61h43v39h57q9 0 15.5 6.5t6.5 15.5v61h-43v-40z" />
<glyph unicode="&#xf6;" d="M112 542q14 0 24 -10t10 -24v-474q0 -14 -10 -24t-24 -10h-79q-14 0 -23.5 10t-9.5 24v474q0 14 9.5 24t23.5 10h79zM134 508q0 9 -6.5 15.5t-15.5 6.5h-79q-9 0 -15 -6.5t-6 -15.5v-474q0 -9 6 -15.5t15 -6.5h79q9 0 15.5 6.5t6.5 15.5v474zM91 487v-432h-37v432h37z M79 475h-13v-408h13v408zM91 688v-122h43v122h-43zM12 688v-122h43v122h-43zM146 554h-67v146h67v-146zM67 554h-67v146h67v-146z" />
<glyph unicode="&#xf8;" horiz-adv-x="237" d="M55 55v432h36v-432h-36zM67 67h12v408h-12v-408zM134 55v432h36v-432h-36zM146 67h12v408h-12v-408zM0 508q0 14 9.5 24t23.5 10h46v79h67v-79h46q14 0 23.5 -10t9.5 -24v-474q0 -14 -9.5 -24t-23.5 -10h-46v-79h-67v79h-46q-14 0 -23.5 10t-9.5 24v474zM12 34 q0 -9 6.5 -15.5t14.5 -6.5h58v-79h43v79h58q9 0 15 6.5t6 15.5v474q0 9 -6 15.5t-15 6.5h-58v79h-43v-79h-58q-8 0 -14.5 -6.5t-6.5 -15.5v-474z" />
<glyph unicode="&#xf9;" d="M67 67h12v475h67v-508q0 -14 -9.5 -24t-23.5 -10h-79q-14 0 -24 10t-10 24v508h67v-475zM55 55v475h-43v-496q0 -9 6.5 -15.5t15.5 -6.5h79q9 0 15 6.5t6 15.5v496h-43v-475h-36zM67 700v-79h79v-67h-112q-14 0 -24 9.5t-10 23.5v113h67zM55 609v79h-43v-101 q0 -9 6.5 -15t15.5 -6h100v43h-79z" />
<glyph unicode="&#xfa;" d="M67 67h12v475h67v-508q0 -14 -9.5 -24t-23.5 -10h-79q-14 0 -24 10t-10 24v508h67v-475zM55 55v475h-43v-496q0 -9 6.5 -15.5t15.5 -6.5h79q9 0 15 6.5t6 15.5v496h-43v-475h-36zM146 700v-113q0 -14 -10 -23.5t-24 -9.5h-112v67h79v79h67zM12 609v-43h100q9 0 15.5 6 t6.5 15v101h-43v-79h-79z" />
<glyph unicode="&#xfb;" d="M67 67h12v475h67v-508q0 -14 -9.5 -24t-23.5 -10h-79q-14 0 -24 10t-10 24v508h67v-475zM55 55v475h-43v-496q0 -9 6.5 -15.5t15.5 -6.5h79q9 0 15 6.5t6 15.5v496h-43v-475h-36zM136 651q10 -10 10 -24v-73h-67v59l-6 6l-6 -6v-59h-67v73q0 12 10 24l39 39q10 10 24 10 t24 -10zM134 627q0 9 -6 15l-40 40q-6 6 -15 6t-15 -6l-40 -40q-6 -6 -6 -15v-61h43v52l18 18l18 -18v-52h43v61z" />
<glyph unicode="&#xfc;" d="M67 67h12v475h67v-508q0 -14 -9.5 -24t-23.5 -10h-79q-14 0 -24 10t-10 24v508h67v-475zM55 55v475h-43v-496q0 -9 6.5 -15.5t15.5 -6.5h79q9 0 15 6.5t6 15.5v496h-43v-475h-36zM91 688v-122h43v122h-43zM12 688v-122h43v122h-43zM146 554h-67v146h67v-146zM67 554h-67 v146h67v-146z" />
<glyph unicode="&#xfd;" d="M67 67h12v475h67v-667q0 -14 -9.5 -23.5t-23.5 -9.5h-80q-14 0 -23.5 9.5t-9.5 23.5v113h67v-79h12v91h-46q-14 0 -23.5 10t-9.5 24v508h67v-475zM55 55v475h-43v-496q0 -9 6.5 -15.5t14.5 -6.5h58v-115h-36v79h-43v-101q0 -9 6.5 -15t14.5 -6h80q8 0 14.5 6t6.5 15v655 h-43v-475h-36zM146 700v-113q0 -14 -10 -23.5t-24 -9.5h-112v67h79v79h67zM12 609v-43h100q9 0 15.5 6t6.5 15v101h-43v-79h-79z" />
<glyph unicode="&#xfe;" d="M0 700h67v-158h46q14 0 23.5 -10t9.5 -24v-474q0 -14 -9.5 -24t-23.5 -10h-46v-158h-67v858zM12 -146h43v158h58q8 0 14.5 6.5t6.5 15.5v474q0 9 -6.5 15.5t-14.5 6.5h-58v158h-43v-834zM55 55v432h36v-432h-36zM67 67h12v408h-12v-408z" />
<glyph unicode="&#xff;" d="M67 67h12v475h67v-667q0 -14 -9.5 -23.5t-23.5 -9.5h-80q-14 0 -23.5 9.5t-9.5 23.5v113h67v-79h12v91h-46q-14 0 -23.5 10t-9.5 24v508h67v-475zM55 55v475h-43v-496q0 -9 6.5 -15.5t14.5 -6.5h58v-115h-36v79h-43v-101q0 -9 6.5 -15t14.5 -6h80q8 0 14.5 6t6.5 15v655 h-43v-475h-36zM91 688v-122h43v122h-43zM12 688v-122h43v122h-43zM146 554h-67v146h67v-146zM67 554h-67v146h67v-146z" />
<glyph unicode="&#x100;" d="M33 609q-9 0 -15 -6.5t-6 -15.5v-575h43v276h36v-276h43v575q0 9 -6.5 15.5t-15.5 6.5h-79zM55 566h36v-234h-36v234zM112 621q14 0 24 -10t10 -24v-587h-67v276h-12v-276h-67v587q0 14 9.5 24t23.5 10h79zM79 344v210h-12v-210h12zM12 688v-43h122v43h-122zM146 633 h-146v67h146v-67z" />
<glyph unicode="&#x101;" d="M91 250v-194h-36v194h36zM79 238h-12v-170h12v170zM0 509q0 14 10 23.5t24 9.5h79q14 0 23.5 -9.5t9.5 -23.5v-509h-112q-14 0 -24 10t-10 24v237q0 14 10 24t24 10h45v170h-12v-158h-67v192zM12 329h43v158h36v-194h-57q-9 0 -15.5 -6.5t-6.5 -15.5v-237q0 -9 6.5 -15.5 t15.5 -6.5h100v497q0 9 -6 15t-15 6h-79q-9 0 -15.5 -6t-6.5 -15v-180zM12 609v-43h122v43h-122zM146 554h-146v67h146v-67z" />
<glyph unicode="&#x102;" d="M33 530q-9 0 -15 -6.5t-6 -15.5v-496h43v236h36v-236h43v496q0 9 -6.5 15.5t-15.5 6.5h-79zM55 487h36v-195h-36v195zM112 542q14 0 24 -10t10 -24v-508h-67v236h-12v-236h-67v508q0 14 9.5 24t23.5 10h79zM79 304v171h-12v-171h12zM33 553q-14 0 -23.5 10t-9.5 24v113 h67v-80h12v80h67v-113q0 -14 -9.5 -24t-23.5 -10h-80zM12 587q0 -9 6.5 -15.5t14.5 -6.5h80q8 0 14.5 6.5t6.5 15.5v101h-43v-80h-36v80h-43v-101z" />
<glyph unicode="&#x103;" d="M91 250v-194h-36v194h36zM79 238h-12v-170h12v170zM0 509q0 14 10 23.5t24 9.5h79q14 0 23.5 -9.5t9.5 -23.5v-509h-112q-14 0 -24 10t-10 24v237q0 14 10 24t24 10h45v170h-12v-158h-67v192zM12 329h43v158h36v-194h-57q-9 0 -15.5 -6.5t-6.5 -15.5v-237q0 -9 6.5 -15.5 t15.5 -6.5h100v497q0 9 -6 15t-15 6h-79q-9 0 -15.5 -6t-6.5 -15v-180zM33 553q-14 0 -23.5 10t-9.5 24v113h67v-80h12v80h67v-113q0 -14 -9.5 -24t-23.5 -10h-80zM12 587q0 -9 6.5 -15.5t14.5 -6.5h80q8 0 14.5 6.5t6.5 15.5v101h-43v-80h-36v80h-43v-101z" />
<glyph unicode="&#x104;" d="M91 645v-273h-36v273h36zM79 633h-12v-249h12v249zM146 -12h40v-67h-73q-14 0 -24 9.5t-10 23.5v363h-12v-317h-67v667q0 14 9.5 23.5t23.5 9.5h80q14 0 23.5 -9.5t9.5 -23.5v-679zM134 -24v691q0 8 -6.5 14.5t-14.5 6.5h-80q-8 0 -14.5 -6.5t-6.5 -14.5v-655h43v317h36 v-375q0 -8 6.5 -14.5t15.5 -6.5h61v43h-40z" />
<glyph unicode="&#x105;" d="M79 304v171h-12v-158h-67v191q0 14 10 24t24 10h79q14 0 23.5 -10t9.5 -24v-520h40v-67h-73q-14 0 -24 9.5t-10 23.5v46h-45q-14 0 -24 10t-10 24v237q0 14 10 23.5t24 9.5h45zM91 487v-195h-57q-9 0 -15.5 -6t-6.5 -15v-237q0 -9 6.5 -15.5t15.5 -6.5h57v-58 q0 -8 6.5 -14.5t15.5 -6.5h61v43h-40v532q0 9 -6 15.5t-15 6.5h-79q-9 0 -15.5 -6.5t-6.5 -15.5v-179h43v158h36zM91 249v-194h-36v194h36zM79 237h-12v-170h12v170z" />
<glyph unicode="&#x106;" d="M146 700v-113q0 -14 -10 -23.5t-24 -9.5h-112v67h79v79h67zM12 609v-43h100q9 0 15.5 6t6.5 15v101h-43v-79h-79zM0 508q0 14 10 24t24 10h79q14 0 23.5 -10t9.5 -24v-231h-67v198h-12v-408h12v198h67v-231q0 -14 -9.5 -24t-23.5 -10h-79q-14 0 -24 10t-10 24v474zM12 34 q0 -9 6.5 -15.5t15.5 -6.5h79q9 0 15 6.5t6 15.5v219h-43v-198h-36v432h36v-198h43v219q0 9 -6 15.5t-15 6.5h-79q-9 0 -15.5 -6.5t-6.5 -15.5v-474z" />
<glyph unicode="&#x107;" d="M0 508q0 14 10 24t24 10h79q14 0 23.5 -10t9.5 -24v-231h-67v198h-12v-408h12v198h67v-231q0 -14 -9.5 -24t-23.5 -10h-79q-14 0 -24 10t-10 24v474zM12 34q0 -9 6.5 -15.5t15.5 -6.5h79q9 0 15 6.5t6 15.5v219h-43v-198h-36v432h36v-198h43v219q0 9 -6 15.5t-15 6.5h-79 q-9 0 -15.5 -6.5t-6.5 -15.5v-474zM146 700v-113q0 -14 -10 -23.5t-24 -9.5h-112v67h79v79h67zM12 609v-43h100q9 0 15.5 6t6.5 15v101h-43v-79h-79z" />
<glyph unicode="&#x108;" d="M136 651q10 -10 10 -24v-73h-67v59l-6 6l-6 -6v-59h-67v73q0 12 10 24l39 39q10 10 24 10t24 -10zM134 627q0 9 -6 15l-40 40q-6 6 -15 6t-15 -6l-40 -40q-6 -6 -6 -15v-61h43v52l18 18l18 -18v-52h43v61zM0 508q0 14 10 24t24 10h79q14 0 23.5 -10t9.5 -24v-231h-67v198 h-12v-408h12v198h67v-231q0 -14 -9.5 -24t-23.5 -10h-79q-14 0 -24 10t-10 24v474zM12 34q0 -9 6.5 -15.5t15.5 -6.5h79q9 0 15 6.5t6 15.5v219h-43v-198h-36v432h36v-198h43v219q0 9 -6 15.5t-15 6.5h-79q-9 0 -15.5 -6.5t-6.5 -15.5v-474z" />
<glyph unicode="&#x109;" d="M0 508q0 14 10 24t24 10h79q14 0 23.5 -10t9.5 -24v-231h-67v198h-12v-408h12v198h67v-231q0 -14 -9.5 -24t-23.5 -10h-79q-14 0 -24 10t-10 24v474zM12 34q0 -9 6.5 -15.5t15.5 -6.5h79q9 0 15 6.5t6 15.5v219h-43v-198h-36v432h36v-198h43v219q0 9 -6 15.5t-15 6.5h-79 q-9 0 -15.5 -6.5t-6.5 -15.5v-474zM136 651q10 -10 10 -24v-73h-67v59l-6 6l-6 -6v-59h-67v73q0 12 10 24l39 39q10 10 24 10t24 -10zM134 627q0 9 -6 15l-40 40q-6 6 -15 6t-15 -6l-40 -40q-6 -6 -6 -15v-61h43v52l18 18l18 -18v-52h43v61z" />
<glyph unicode="&#x10a;" d="M52 688v-122h43v122h-43zM107 554h-67v146h67v-146zM0 508q0 14 10 24t24 10h79q14 0 23.5 -10t9.5 -24v-231h-67v198h-12v-408h12v198h67v-231q0 -14 -9.5 -24t-23.5 -10h-79q-14 0 -24 10t-10 24v474zM12 34q0 -9 6.5 -15.5t15.5 -6.5h79q9 0 15 6.5t6 15.5v219h-43 v-198h-36v432h36v-198h43v219q0 9 -6 15.5t-15 6.5h-79q-9 0 -15.5 -6.5t-6.5 -15.5v-474z" />
<glyph unicode="&#x10b;" d="M0 508q0 14 10 24t24 10h79q14 0 23.5 -10t9.5 -24v-231h-67v198h-12v-408h12v198h67v-231q0 -14 -9.5 -24t-23.5 -10h-79q-14 0 -24 10t-10 24v474zM12 34q0 -9 6.5 -15.5t15.5 -6.5h79q9 0 15 6.5t6 15.5v219h-43v-198h-36v432h36v-198h43v219q0 9 -6 15.5t-15 6.5h-79 q-9 0 -15.5 -6.5t-6.5 -15.5v-474zM52 688v-122h43v122h-43zM107 554h-67v146h67v-146z" />
<glyph unicode="&#x10c;" d="M97 564q-10 -10 -24 -10t-24 10l-39 39q-10 12 -10 24v73h67v-59l6 -6l6 6v59h67v-73q0 -14 -10 -24zM134 688h-43v-52l-18 -18l-18 18v52h-43v-61q0 -9 6 -15l40 -40q6 -6 15 -6t15 6l40 40q6 6 6 15v61zM0 508q0 14 10 24t24 10h79q14 0 23.5 -10t9.5 -24v-231h-67v198 h-12v-408h12v198h67v-231q0 -14 -9.5 -24t-23.5 -10h-79q-14 0 -24 10t-10 24v474zM12 34q0 -9 6.5 -15.5t15.5 -6.5h79q9 0 15 6.5t6 15.5v219h-43v-198h-36v432h36v-198h43v219q0 9 -6 15.5t-15 6.5h-79q-9 0 -15.5 -6.5t-6.5 -15.5v-474z" />
<glyph unicode="&#x10d;" d="M0 508q0 14 10 24t24 10h79q14 0 23.5 -10t9.5 -24v-231h-67v198h-12v-408h12v198h67v-231q0 -14 -9.5 -24t-23.5 -10h-79q-14 0 -24 10t-10 24v474zM12 34q0 -9 6.5 -15.5t15.5 -6.5h79q9 0 15 6.5t6 15.5v219h-43v-198h-36v432h36v-198h43v219q0 9 -6 15.5t-15 6.5h-79 q-9 0 -15.5 -6.5t-6.5 -15.5v-474zM97 564q-10 -10 -24 -10t-24 10l-39 39q-10 12 -10 24v73h67v-59l6 -6l6 6v59h67v-73q0 -14 -10 -24zM134 688h-43v-52l-18 -18l-18 18v52h-43v-61q0 -9 6 -15l40 -40q6 -6 15 -6t15 6l40 40q6 6 6 15v61z" />
<glyph unicode="&#x10e;" horiz-adv-x="237" d="M12 530v-241h43v198h36v-432h-36v198h-43v-241h180q9 0 15 6.5t6 15.5v474q0 9 -6 15.5t-15 6.5h-180zM134 487h36v-432h-36v432zM192 542q14 0 23.5 -10t9.5 -24v-474q0 -14 -9.5 -24t-23.5 -10h-192v265h67v-198h12v408h-12v-198h-67v265h192zM158 67v408h-12v-408h12z M136 564q-10 -10 -24 -10t-24 10l-39 39q-10 12 -10 24v73h67v-59l6 -6l6 6v59h67v-73q0 -14 -10 -24zM173 688h-43v-52l-18 -18l-18 18v52h-43v-61q0 -9 6 -15l40 -40q6 -6 15 -6t15 6l40 40q6 6 6 15v61z" />
<glyph unicode="&#x10f;" horiz-adv-x="237" d="M91 487v-432h-36v432h36zM67 67h12v408h-12v-408zM146 700v-700h-113q-14 0 -23.5 10t-9.5 24v474q0 14 9.5 24t23.5 10h46v158h67zM33 530q-9 0 -15 -6.5t-6 -15.5v-474q0 -9 6 -15.5t15 -6.5h101v676h-43v-158h-58zM170 688v-122h43v122h-43zM225 554h-67v146h67v-146z " />
<glyph unicode="&#x110;" horiz-adv-x="237" d="M170 645v-274h-36v274h36zM158 633h-12v-250h12v250zM170 328v-273h-36v273h36zM158 316h-12v-249h12v249zM225 33q0 -14 -9.5 -23.5t-23.5 -9.5h-192v304h67v-237h12v249h-79v67h79v250h-12v-237h-67v304h192q14 0 23.5 -10t9.5 -24v-633zM213 666q0 9 -6 15.5t-15 6.5 h-180v-280h43v237h36v-274h-79v-43h79v-273h-36v237h-43v-280h180q9 0 15 6.5t6 14.5v633z" />
<glyph unicode="&#x111;" horiz-adv-x="198" d="M146 0h-113q-14 0 -23.5 9.5t-9.5 23.5v475q0 14 9.5 24t23.5 10h46v12h-39v67h39v79h67v-79h40v-67h-40v-554zM134 566h40v43h-40v79h-43v-79h-39v-43h39v-36h-58q-8 0 -14.5 -6.5t-6.5 -15.5v-475q0 -8 6.5 -14.5t14.5 -6.5h101v554zM91 487v-432h-36v432h36zM79 475 h-12v-408h12v408z" />
<glyph unicode="&#x112;" d="M12 608v-596h122v239h-43v-196h-36v232h79v44h-79v234h36v-198h43v241h-122zM146 355h-67v198h-12v-210h79v-68h-79v-208h12v196h67v-263h-146v620h146v-265zM12 688v-43h122v43h-122zM146 633h-146v67h146v-67z" />
<glyph unicode="&#x113;" d="M55 292v195h36v-195h-36zM67 304h12v171h-12v-171zM0 508q0 14 10 24t24 10h79q14 0 23.5 -10t9.5 -24v-271h-79v-170h12v158h67v-191q0 -14 -9.5 -24t-23.5 -10h-79q-14 0 -24 10t-10 24v474zM12 34q0 -9 6.5 -15.5t15.5 -6.5h79q9 0 15 6.5t6 15.5v179h-43v-158h-36 v194h79v259q0 9 -6 15.5t-15 6.5h-79q-9 0 -15.5 -6.5t-6.5 -15.5v-474zM12 609v-43h122v43h-122zM146 554h-146v67h146v-67z" />
<glyph unicode="&#x114;" d="M12 530v-518h122v201h-43v-158h-36v194h79v44h-79v194h36v-158h43v201h-122zM146 317h-67v158h-12v-170h79v-68h-79v-170h12v158h67v-225h-146v542h146v-225zM33 553q-14 0 -23.5 10t-9.5 24v113h67v-80h12v80h67v-113q0 -14 -9.5 -24t-23.5 -10h-80zM12 587 q0 -9 6.5 -15.5t14.5 -6.5h80q8 0 14.5 6.5t6.5 15.5v101h-43v-80h-36v80h-43v-101z" />
<glyph unicode="&#x115;" d="M55 292v195h36v-195h-36zM67 304h12v171h-12v-171zM0 508q0 14 10 24t24 10h79q14 0 23.5 -10t9.5 -24v-271h-79v-170h12v158h67v-191q0 -14 -9.5 -24t-23.5 -10h-79q-14 0 -24 10t-10 24v474zM12 34q0 -9 6.5 -15.5t15.5 -6.5h79q9 0 15 6.5t6 15.5v179h-43v-158h-36 v194h79v259q0 9 -6 15.5t-15 6.5h-79q-9 0 -15.5 -6.5t-6.5 -15.5v-474zM33 553q-14 0 -23.5 10t-9.5 24v113h67v-80h12v80h67v-113q0 -14 -9.5 -24t-23.5 -10h-80zM12 587q0 -9 6.5 -15.5t14.5 -6.5h80q8 0 14.5 6.5t6.5 15.5v101h-43v-80h-36v80h-43v-101z" />
<glyph unicode="&#x116;" d="M12 530v-518h122v201h-43v-158h-36v194h79v44h-79v194h36v-158h43v201h-122zM146 317h-67v158h-12v-170h79v-68h-79v-170h12v158h67v-225h-146v542h146v-225zM52 688v-122h43v122h-43zM107 554h-67v146h67v-146z" />
<glyph unicode="&#x117;" d="M55 292v195h36v-195h-36zM67 304h12v171h-12v-171zM0 508q0 14 10 24t24 10h79q14 0 23.5 -10t9.5 -24v-271h-79v-170h12v158h67v-191q0 -14 -9.5 -24t-23.5 -10h-79q-14 0 -24 10t-10 24v474zM12 34q0 -9 6.5 -15.5t15.5 -6.5h79q9 0 15 6.5t6 15.5v179h-43v-158h-36 v194h79v259q0 9 -6 15.5t-15 6.5h-79q-9 0 -15.5 -6.5t-6.5 -15.5v-474zM52 688v-122h43v122h-43zM107 554h-67v146h67v-146z" />
<glyph unicode="&#x118;" d="M0 700h146v-304h-67v237h-12v-250h79v-67h-79v-249h12v237h67v-304h-39v-12h39v-67h-73q-14 0 -23.5 9.5t-9.5 23.5v46h-40v700zM12 12h28h12v-12v-46q0 -9 6 -15t15 -6h61v43h-39v36h39v280h-43v-237h-36v273h79v43h-79v274h36v-12v-225h43v280h-122v-676z" />
<glyph unicode="&#x119;" d="M55 292v195h36v-195h-36zM67 304h12v171h-12v-171zM73 -79q-14 0 -23.5 9.5t-9.5 23.5v46h-6q-14 0 -24 9.5t-10 23.5v475q0 14 10 24t24 10h79q14 0 23.5 -10t9.5 -24v-271h-79v-170h12v158h67v-192q0 -14 -9.5 -23.5t-23.5 -9.5h-6v-12h39v-67h-73zM52 -46q0 -9 6 -15 t15 -6h61v43h-39v36h18q9 0 15 6.5t6 14.5v180h-43v-158h-36v194h79v259q0 9 -6 15.5t-15 6.5h-79q-9 0 -15.5 -6.5t-6.5 -15.5v-475q0 -8 6.5 -14.5t15.5 -6.5h18v-58z" />
<glyph unicode="&#x11a;" d="M12 530v-518h122v201h-43v-158h-36v194h79v44h-79v194h36v-158h43v201h-122zM146 317h-67v158h-12v-170h79v-68h-79v-170h12v158h67v-225h-146v542h146v-225zM97 564q-10 -10 -24 -10t-24 10l-39 39q-10 12 -10 24v73h67v-59l6 -6l6 6v59h67v-73q0 -14 -10 -24zM134 688 h-43v-52l-18 -18l-18 18v52h-43v-61q0 -9 6 -15l40 -40q6 -6 15 -6t15 6l40 40q6 6 6 15v61z" />
<glyph unicode="&#x11b;" d="M55 292v195h36v-195h-36zM67 304h12v171h-12v-171zM0 508q0 14 10 24t24 10h79q14 0 23.5 -10t9.5 -24v-271h-79v-170h12v158h67v-191q0 -14 -9.5 -24t-23.5 -10h-79q-14 0 -24 10t-10 24v474zM12 34q0 -9 6.5 -15.5t15.5 -6.5h79q9 0 15 6.5t6 15.5v179h-43v-158h-36 v194h79v259q0 9 -6 15.5t-15 6.5h-79q-9 0 -15.5 -6.5t-6.5 -15.5v-474zM97 564q-10 -10 -24 -10t-24 10l-39 39q-10 12 -10 24v73h67v-59l6 -6l6 6v59h67v-73q0 -14 -10 -24zM134 688h-43v-52l-18 -18l-18 18v52h-43v-61q0 -9 6 -15l40 -40q6 -6 15 -6t15 6l40 40q6 6 6 15 v61z" />
<glyph unicode="&#x11c;" horiz-adv-x="198" d="M34 530q-10 0 -16 -6.5t-6 -15.5v-474q0 -9 6 -15.5t16 -6.5h100v198h40v43h-83v-198h-36v432h36v-198h43v219q0 9 -6.5 15.5t-15.5 6.5h-78zM112 542q14 0 24 -10t10 -24v-231h-67v198h-12v-408h12v198h107v-67h-40v-198h-112q-14 0 -24 10t-10 24v474q0 14 10 24t24 10 h78zM136 651q10 -10 10 -24v-73h-67v59l-6 6l-6 -6v-59h-67v73q0 12 10 24l39 39q10 10 24 10t24 -10zM134 627q0 9 -6 15l-40 40q-6 6 -15 6t-15 -6l-40 -40q-6 -6 -6 -15v-61h43v52l18 18l18 -18v-52h43v61z" />
<glyph unicode="&#x11d;" d="M91 56h-36v431h36v-431zM79 475h-12v-407h12v407zM67 -12v-79h12v91h-45q-14 0 -24 10t-10 24v475q0 14 10 23.5t24 9.5h112v-666q0 -14 -9.5 -24t-23.5 -10h-79q-14 0 -24 10t-10 24v112h67zM55 -103v79h-43v-100q0 -9 6.5 -15.5t15.5 -6.5h79q9 0 15 6.5t6 15.5v654 h-100q-9 0 -15.5 -6t-6.5 -15v-475q0 -9 6.5 -15.5t15.5 -6.5h57v-115h-36zM136 651q10 -10 10 -24v-73h-67v59l-6 6l-6 -6v-59h-67v73q0 12 10 24l39 39q10 10 24 10t24 -10zM134 627q0 9 -6 15l-40 40q-6 6 -15 6t-15 -6l-40 -40q-6 -6 -6 -15v-61h43v52l18 18l18 -18v-52 h43v61z" />
<glyph unicode="&#x11e;" horiz-adv-x="198" d="M34 530q-10 0 -16 -6.5t-6 -15.5v-474q0 -9 6 -15.5t16 -6.5h100v198h40v43h-83v-198h-36v432h36v-198h43v219q0 9 -6.5 15.5t-15.5 6.5h-78zM112 542q14 0 24 -10t10 -24v-231h-67v198h-12v-408h12v198h107v-67h-40v-198h-112q-14 0 -24 10t-10 24v474q0 14 10 24t24 10 h78zM33 553q-14 0 -23.5 10t-9.5 24v113h67v-80h12v80h67v-113q0 -14 -9.5 -24t-23.5 -10h-80zM12 587q0 -9 6.5 -15.5t14.5 -6.5h80q8 0 14.5 6.5t6.5 15.5v101h-43v-80h-36v80h-43v-101z" />
<glyph unicode="&#x11f;" d="M91 56h-36v431h36v-431zM79 475h-12v-407h12v407zM67 -12v-79h12v91h-45q-14 0 -24 10t-10 24v475q0 14 10 23.5t24 9.5h112v-666q0 -14 -9.5 -24t-23.5 -10h-79q-14 0 -24 10t-10 24v112h67zM55 -103v79h-43v-100q0 -9 6.5 -15.5t15.5 -6.5h79q9 0 15 6.5t6 15.5v654 h-100q-9 0 -15.5 -6t-6.5 -15v-475q0 -9 6.5 -15.5t15.5 -6.5h57v-115h-36zM33 553q-14 0 -23.5 10t-9.5 24v113h67v-80h12v80h67v-113q0 -14 -9.5 -24t-23.5 -10h-80zM12 587q0 -9 6.5 -15.5t14.5 -6.5h80q8 0 14.5 6.5t6.5 15.5v101h-43v-80h-36v80h-43v-101z" />
<glyph unicode="&#x120;" horiz-adv-x="198" d="M34 530q-10 0 -16 -6.5t-6 -15.5v-474q0 -9 6 -15.5t16 -6.5h100v198h40v43h-83v-198h-36v432h36v-198h43v219q0 9 -6.5 15.5t-15.5 6.5h-78zM112 542q14 0 24 -10t10 -24v-231h-67v198h-12v-408h12v198h107v-67h-40v-198h-112q-14 0 -24 10t-10 24v474q0 14 10 24t24 10 h78zM52 688v-122h43v122h-43zM107 554h-67v146h67v-146z" />
<glyph unicode="&#x121;" d="M91 56h-36v431h36v-431zM79 475h-12v-407h12v407zM67 -12v-79h12v91h-45q-14 0 -24 10t-10 24v475q0 14 10 23.5t24 9.5h112v-666q0 -14 -9.5 -24t-23.5 -10h-79q-14 0 -24 10t-10 24v112h67zM55 -103v79h-43v-100q0 -9 6.5 -15.5t15.5 -6.5h79q9 0 15 6.5t6 15.5v654 h-100q-9 0 -15.5 -6t-6.5 -15v-475q0 -9 6.5 -15.5t15.5 -6.5h57v-115h-36zM52 688v-122h43v122h-43zM107 554h-67v146h67v-146z" />
<glyph unicode="&#x122;" horiz-adv-x="198" d="M51 -24v-79h-39v-43h61q9 0 15 6.5t6 15.5v100h-43zM106 -124q0 -14 -9.5 -24t-23.5 -10h-73v67h39v79h67v-112zM34 688q-10 0 -16 -6.5t-6 -15.5v-632q0 -9 6 -15.5t16 -6.5h100v277h40v43h-83v-277h-36v590h36v-277h43v298q0 9 -6.5 15.5t-15.5 6.5h-78zM112 700 q14 0 24 -10t10 -24v-310h-67v277h-12v-566h12v277h107v-67h-40v-277h-112q-14 0 -24 10t-10 24v632q0 14 10 24t24 10h78z" />
<glyph unicode="&#x123;" d="M94 566v79h40v43h-62q-9 0 -15 -6.5t-6 -15.5v-100h43zM39 666q0 14 9.5 24t23.5 10h74v-67h-40v-79h-67v112zM91 56h-36v431h36v-431zM79 475h-12v-407h12v407zM67 -12v-79h12v91h-45q-14 0 -24 10t-10 24v475q0 14 10 23.5t24 9.5h112v-666q0 -14 -9.5 -24t-23.5 -10 h-79q-14 0 -24 10t-10 24v112h67zM55 -103v79h-43v-100q0 -9 6.5 -15.5t15.5 -6.5h79q9 0 15 6.5t6 15.5v654h-100q-9 0 -15.5 -6t-6.5 -15v-475q0 -9 6.5 -15.5t15.5 -6.5h57v-115h-36z" />
<glyph unicode="&#x124;" d="M91 530v-237h-36v237h-43v-518h43v237h36v-237h43v518h-43zM146 0h-67v237h-12v-237h-67v542h67v-237h12v237h67v-542zM136 651q10 -10 10 -24v-73h-67v59l-6 6l-6 -6v-59h-67v73q0 12 10 24l39 39q10 10 24 10t24 -10zM134 627q0 9 -6 15l-40 40q-6 6 -15 6t-15 -6 l-40 -40q-6 -6 -6 -15v-61h43v52l18 18l18 -18v-52h43v61z" />
<glyph unicode="&#x125;" d="M67 542v-78h46q14 0 23.5 -10t9.5 -24v-430h-67v397h-12v-397h-67v542h67zM55 452v78h-43v-518h43v397h36v-397h43v418q0 9 -6 15.5t-15 6.5h-58zM136 651q10 -10 10 -24v-73h-67v59l-6 6l-6 -6v-59h-67v73q0 12 10 24l39 39q10 10 24 10t24 -10zM134 627q0 9 -6 15 l-40 40q-6 6 -15 6t-15 -6l-40 -40q-6 -6 -6 -15v-61h43v52l18 18l18 -18v-52h43v61z" />
<glyph unicode="&#x126;" horiz-adv-x="237" d="M225 475h-39v-475h-67v316h-12v-316h-67v475h-40v67h40v158h67v-158h12v158h67v-158h39v-67zM213 530h-39v158h-43v-158h-36v158h-43v-158h-40v-43h40v-475h43v316h36v-316h43v475h39v43zM131 487v-116h-36v116h36zM119 475h-12v-92h12v92z" />
<glyph unicode="&#x127;" horiz-adv-x="198" d="M107 554v-12h46q14 0 23.5 -10t9.5 -24v-508h-67v475h-12v-475h-67v554h-40v67h40v79h67v-79h40v-67h-40zM95 530v36h40v43h-40v79h-43v-79h-40v-43h40v-554h43v475h36v-475h43v496q0 9 -6 15.5t-15 6.5h-58z" />
<glyph unicode="&#x128;" horiz-adv-x="237" d="M12 530v-241h43v198h36v-432h-36v198h-43v-241h201v241h-43v-198h-36v432h36v-198h43v241h-201zM225 277h-67v198h-12v-408h12v198h67v-265h-225v265h67v-198h12v408h-12v-198h-67v265h225v-265zM118 700h67v-73q0 -14 -10 -24t-24 -10h-45v-39h-67v73q0 14 9.5 23.5 t23.5 9.5h46v40zM130 648h-58q-8 0 -14.5 -6t-6.5 -15v-61h43v39h57q9 0 15.5 6.5t6.5 15.5v61h-43v-40z" />
<glyph unicode="&#x129;" d="M107 0h-67v542h67v-542zM95 530h-43v-518h43v518zM79 700h67v-73q0 -14 -10 -24t-24 -10h-45v-39h-67v73q0 14 9.5 23.5t23.5 9.5h46v40zM91 648h-58q-8 0 -14.5 -6t-6.5 -15v-61h43v39h57q9 0 15.5 6.5t6.5 15.5v61h-43v-40z" />
<glyph unicode="&#x12a;" horiz-adv-x="237" d="M12 609v-280h43v237h36v-511h-36v238h-43v-281h201v281h-43v-238h-36v511h36v-237h43v280h-201zM225 317h-67v237h-12v-487h12v238h67v-305h-225v305h67v-238h12v487h-12v-237h-67v304h225v-304zM52 688v-43h122v43h-122zM186 633h-146v67h146v-67z" />
<glyph unicode="&#x12b;" d="M106 0h-67v542h67v-542zM94 530h-43v-518h43v518zM12 609v-43h122v43h-122zM146 554h-146v67h146v-67z" />
<glyph unicode="&#x12c;" horiz-adv-x="237" d="M12 530v-241h43v198h36v-432h-36v198h-43v-241h201v241h-43v-198h-36v432h36v-198h43v241h-201zM225 277h-67v198h-12v-408h12v198h67v-265h-225v265h67v-198h12v408h-12v-198h-67v265h225v-265zM72 553q-14 0 -23.5 10t-9.5 24v113h67v-80h12v80h67v-113q0 -14 -9.5 -24 t-23.5 -10h-80zM51 587q0 -9 6.5 -15.5t14.5 -6.5h80q8 0 14.5 6.5t6.5 15.5v101h-43v-80h-36v80h-43v-101z" />
<glyph unicode="&#x12d;" d="M107 0h-67v542h67v-542zM95 530h-43v-518h43v518zM33 553q-14 0 -23.5 10t-9.5 24v113h67v-80h12v80h67v-113q0 -14 -9.5 -24t-23.5 -10h-80zM12 587q0 -9 6.5 -15.5t14.5 -6.5h80q8 0 14.5 6.5t6.5 15.5v101h-43v-80h-36v80h-43v-101z" />
<glyph unicode="&#x12e;" horiz-adv-x="237" d="M67 344v-277h12v566h-12v-277h-67v344h225v-344h-67v277h-12v-566h12v277h67v-344h-79v-12h40v-67h-73q-14 0 -24 9.5t-10 23.5v46h-79v344h67zM55 55v277h-43v-320h79v-58q0 -8 6.5 -14.5t15.5 -6.5h61v43h-40v36h79v320h-43v-277h-36v590h36v-277h43v320h-201v-320h43 v277h36v-590h-36z" />
<glyph unicode="&#x12f;" horiz-adv-x="79" d="M107 -79h-73q-14 0 -24 9.5t-10 23.5v588h67v-554h40v-67zM95 -24h-40v554h-43v-576q0 -8 6.5 -14.5t15.5 -6.5h61v43zM67 554h-67v146h67v-146zM55 688h-43v-122h43v122z" />
<glyph unicode="&#x130;" horiz-adv-x="237" d="M12 530v-241h43v198h36v-432h-36v198h-43v-241h201v241h-43v-198h-36v432h36v-198h43v241h-201zM225 277h-67v198h-12v-408h12v198h67v-265h-225v265h67v-198h12v408h-12v-198h-67v265h225v-265zM91 688v-122h43v122h-43zM146 554h-67v146h67v-146z" />
<glyph unicode="&#x131;" horiz-adv-x="79" d="M67 0h-67v542h67v-542zM55 530h-43v-518h43v518z" />
<glyph unicode="&#x132;" horiz-adv-x="395" d="M12 688v-320h43v277h36v-590h-36v277h-43v-320h201v320h-43v-277h-36v590h36v-277h43v320h-201zM225 356h-67v277h-12v-566h12v277h67v-344h-225v344h67v-277h12v566h-12v-277h-67v344h225v-344zM249 688v-122h43v79h36v-590h-36v277h-43v-298q0 -9 6.5 -15.5t15.5 -6.5 h79q9 0 15 6.5t6 15.5v654h-122zM383 34q0 -14 -9.5 -24t-23.5 -10h-79q-14 0 -24 10t-10 24v310h67v-277h12v566h-12v-79h-67v146h146v-666z" />
<glyph unicode="&#x133;" d="M67 0h-67v542h67v-542zM55 530h-43v-518h43v518zM67 554h-67v146h67v-146zM55 688h-43v-122h43v122zM34 -158q-14 0 -24 9.5t-10 23.5v113h67v-79h12v633h67v-667q0 -14 -9.5 -23.5t-23.5 -9.5h-79zM12 -125q0 -9 6.5 -15t15.5 -6h79q9 0 15 6t6 15v655h-43v-633h-36v79 h-43v-101zM79 700h67v-146h-67v146zM91 566h43v122h-43v-122z" />
<glyph unicode="&#x134;" d="M34 0q-14 0 -24 9.5t-10 23.5v310h67v-276h12v475h67v-509q0 -14 -9.5 -23.5t-23.5 -9.5h-79zM12 33q0 -9 6.5 -15t15.5 -6h79q9 0 15 6t6 15v497h-43v-475h-36v276h-43v-298zM136 651q10 -10 10 -24v-73h-67v59l-6 6l-6 -6v-59h-67v73q0 12 10 24l39 39q10 10 24 10 t24 -10zM134 627q0 9 -6 15l-40 40q-6 6 -15 6t-15 -6l-40 -40q-6 -6 -6 -15v-61h43v52l18 18l18 -18v-52h43v61z" />
<glyph unicode="&#x135;" d="M34 -158q-14 0 -24 9.5t-10 23.5v113h67v-79h12v633h67v-667q0 -14 -9.5 -23.5t-23.5 -9.5h-79zM12 -125q0 -9 6.5 -15t15.5 -6h79q9 0 15 6t6 15v655h-43v-633h-36v79h-43v-101zM136 651q10 -10 10 -24v-73h-67v59l-6 6l-6 -6v-59h-67v73q0 12 10 24l39 39q10 10 24 10 t24 -10zM134 627q0 9 -6 15l-40 40q-6 6 -15 6t-15 -6l-40 -40q-6 -6 -6 -15v-61h43v52l18 18l18 -18v-52h43v61z" />
<glyph unicode="&#x136;" d="M51 -24v-79h-39v-43h61q9 0 15 6.5t6 15.5v100h-43zM106 -124q0 -14 -9.5 -24t-23.5 -10h-73v67h39v79h67v-112zM91 688v-277h-36v277h-43v-676h43v277h36v-277h43v298q0 9 -6.5 15.5t-15.5 6.5h-57v36h57q9 0 15.5 6.5t6.5 15.5v298h-43zM146 390q0 -14 -10 -24t-24 -10 h-45v-12h45q14 0 24 -10t10 -24v-310h-67v277h-12v-277h-67v700h67v-277h12v277h67v-310z" />
<glyph unicode="&#x137;" d="M51 -24v-79h-39v-43h61q9 0 15 6.5t6 15.5v100h-43zM106 -124q0 -14 -9.5 -24t-23.5 -10h-73v67h39v79h67v-112zM68 0h-68v700h68v-356h12v198h66v-232q0 -14 -9.5 -23.5t-23.5 -9.5h-45v-12h45q14 0 23.5 -10t9.5 -24v-231h-66v198h-12v-198zM56 210h36v-198h43v219 q0 9 -6.5 15.5t-15.5 6.5h-57v36h57q9 0 15.5 6.5t6.5 14.5v220h-43v-198h-36v356h-44v-676h44v198z" />
<glyph unicode="&#x138;" d="M91 530v-197h-36v197h-43v-518h43v199h36v-199h43v220q0 9 -6.5 15.5t-15.5 6.5h-57v36h57q9 0 15.5 6.5t6.5 15.5v218h-43zM146 312q0 -14 -10 -24t-24 -10h-45v-12h45q14 0 24 -10t10 -24v-232h-67v199h-12v-199h-67v542h67v-197h12v197h67v-230z" />
<glyph unicode="&#x139;" d="M55 530v-475h36v277h43v-320h-122v518h43zM67 542h-67v-542h146v344h-67v-277h-12v475zM146 700v-113q0 -14 -10 -23.5t-24 -9.5h-112v67h79v79h67zM12 609v-43h100q9 0 15.5 6t6.5 15v101h-43v-79h-79z" />
<glyph unicode="&#x13a;" d="M107 621h-67v-621h67v621zM95 12h-43v597h43v-597zM146 779v-113q0 -14 -10 -23.5t-24 -9.5h-112v67h79v79h67zM12 688v-43h100q9 0 15.5 6t6.5 15v101h-43v-79h-79z" />
<glyph unicode="&#x13b;" d="M51 -24v-79h-39v-43h61q9 0 15 6.5t6 15.5v100h-43zM106 -124q0 -14 -9.5 -24t-23.5 -10h-73v67h39v79h67v-112zM12 688v-676h122v320h-43v-277h-36v633h-43zM67 67h12v277h67v-344h-146v700h67v-633z" />
<glyph unicode="&#x13c;" horiz-adv-x="79" d="M12 -24v-79h-39v-43h61q9 0 15 6.5t6 15.5v100h-43zM67 -124q0 -14 -9.5 -24t-23.5 -10h-73v67h39v79h67v-112zM67 0h-67v700h67v-700zM55 688h-43v-676h43v676z" />
<glyph unicode="&#x13d;" d="M12 688v-676h122v320h-43v-277h-36v633h-43zM67 67h12v277h67v-344h-146v700h67v-633zM91 688v-122h43v122h-43zM146 554h-67v146h67v-146z" />
<glyph unicode="&#x13e;" d="M67 0h-67v700h67v-700zM55 688h-43v-676h43v676zM91 688v-122h43v122h-43zM146 554h-67v146h67v-146z" />
<glyph unicode="&#x13f;" d="M12 688v-676h122v241h-43v-198h-36v633h-43zM67 67h12v198h67v-265h-146v700h67v-633zM91 411v-122h44v122h-44zM146 277h-67v146h67v-146z" />
<glyph unicode="&#x140;" d="M67 0h-67v700h67v-700zM55 688h-43v-676h43v676zM91 411v-122h44v122h-44zM146 277h-67v146h67v-146z" />
<glyph unicode="&#x141;" horiz-adv-x="198" d="M186 0h-146v356h-40v67h40v277h67v-277h39v-67h-39v-289h12v277h67v-344zM51 368l1 -356h122v320h-43v-277h-36v313h39v43h-39v277h-43v-277h-40v-43h39z" />
<glyph unicode="&#x142;" d="M107 0h-67v356h-40v67h40v277h67v-277h39v-67h-39v-356zM95 368h39v43h-39v277h-43v-277h-40v-43h40v-356h43v356z" />
<glyph unicode="&#x143;" horiz-adv-x="237" d="M213 530v-518h-100q-9 0 -15 6.5t-6 15.5v453h-36v-475h-44v518h101q9 0 15 -6.5t6 -15.5v-453h36v12v463h43zM225 542h-67v-475h-11v441q0 14 -10 24t-24 10h-113v-542h68v475h12v-441q0 -14 9.5 -24t23.5 -10h112v542zM185 700v-113q0 -14 -10 -23.5t-24 -9.5h-112v67 h79v79h67zM51 609v-43h100q9 0 15.5 6t6.5 15v101h-43v-79h-79z" />
<glyph unicode="&#x144;" d="M113 542q14 0 23.5 -10t9.5 -24v-508h-67v475h-12v-475h-67v542h113zM134 508q0 9 -6 15.5t-15 6.5h-101v-518h43v475h36v-475h43v496zM146 700v-113q0 -14 -10 -23.5t-24 -9.5h-112v67h79v79h67zM12 609v-43h100q9 0 15.5 6t6.5 15v101h-43v-79h-79z" />
<glyph unicode="&#x145;" horiz-adv-x="237" d="M91 -24v-79h-39v-43h61q9 0 15 6.5t6 15.5v100h-43zM146 -124q0 -14 -9.5 -24t-23.5 -10h-73v67h39v79h67v-112zM170 688v-621v-12h-36v611q0 9 -6 15.5t-15 6.5h-101v-676h44v633h36v-611q0 -9 6 -15.5t15 -6.5h100v676h-43zM225 0h-112q-14 0 -23.5 10t-9.5 24v599h-12 v-633h-68v700h113q14 0 23.5 -10t9.5 -24v-599h12v633h67v-700z" />
<glyph unicode="&#x146;" d="M51 -24v-79h-39v-43h61q9 0 15 6.5t6 15.5v100h-43zM106 -124q0 -14 -9.5 -24t-23.5 -10h-73v67h39v79h67v-112zM113 542q14 0 23.5 -10t9.5 -24v-508h-67v475h-12v-475h-67v542h113zM134 508q0 9 -6 15.5t-15 6.5h-101v-518h43v475h36v-475h43v496z" />
<glyph unicode="&#x147;" horiz-adv-x="237" d="M170 530v-463v-12h-36v453q0 9 -6 15.5t-15 6.5h-101v-518h44v475h36v-453q0 -9 6 -15.5t15 -6.5h100v518h-43zM225 0h-112q-14 0 -23.5 10t-9.5 24v441h-12v-475h-68v542h113q14 0 24 -10t10 -24v-441h11v475h67v-542zM136 564q-10 -10 -24 -10t-24 10l-39 39 q-10 12 -10 24v73h67v-59l6 -6l6 6v59h67v-73q0 -14 -10 -24zM173 688h-43v-52l-18 -18l-18 18v52h-43v-61q0 -9 6 -15l40 -40q6 -6 15 -6t15 6l40 40q6 6 6 15v61z" />
<glyph unicode="&#x148;" d="M113 542q14 0 23.5 -10t9.5 -24v-508h-67v475h-12v-475h-67v542h113zM134 508q0 9 -6 15.5t-15 6.5h-101v-518h43v475h36v-475h43v496zM97 564q-10 -10 -24 -10t-24 10l-39 39q-10 12 -10 24v73h67v-59l6 -6l6 6v59h67v-73q0 -14 -10 -24zM134 688h-43v-52l-18 -18 l-18 18v52h-43v-61q0 -9 6 -15l40 -40q6 -6 15 -6t15 6l40 40q6 6 6 15v61z" />
<glyph unicode="&#x149;" d="M113 542q14 0 23.5 -10t9.5 -24v-508h-67v475h-12v-475h-67v542h113zM134 508q0 9 -6 15.5t-15 6.5h-101v-518h43v475h36v-475h43v496z" />
<glyph unicode="&#x14a;" d="M79 -12v645h-12v-633h-67v700h113q14 0 23.5 -10t9.5 -24v-712q0 -14 -9.5 -23.5t-23.5 -9.5h-73v67h39zM91 645v-669h-39v-43h61q8 0 14.5 6t6.5 15v712q0 9 -6.5 15.5t-14.5 6.5h-101v-676h43v633h36z" />
<glyph unicode="&#x14b;" d="M79 -12v487h-12v-475h-67v542h113q14 0 23.5 -10t9.5 -24v-554q0 -14 -9.5 -23.5t-23.5 -9.5h-73v67h39zM91 487v-511h-39v-43h61q8 0 14.5 6t6.5 15v554q0 9 -6.5 15.5t-14.5 6.5h-101v-518h43v475h36z" />
<glyph unicode="&#x14c;" d="M112 621q14 0 24 -10t10 -24v-553q0 -14 -10 -24t-24 -10h-79q-14 0 -23.5 10t-9.5 24v553q0 14 9.5 24t23.5 10h79zM134 587q0 9 -6.5 15.5t-15.5 6.5h-79q-9 0 -15 -6.5t-6 -15.5v-553q0 -9 6 -15.5t15 -6.5h79q9 0 15.5 6.5t6.5 15.5v553zM91 566v-511h-37v511h37z M79 554h-13v-487h13v487zM12 688v-43h122v43h-122zM146 633h-146v67h146v-67z" />
<glyph unicode="&#x14d;" d="M112 542q14 0 24 -10t10 -24v-474q0 -14 -10 -24t-24 -10h-79q-14 0 -23.5 10t-9.5 24v474q0 14 9.5 24t23.5 10h79zM134 508q0 9 -6.5 15.5t-15.5 6.5h-79q-9 0 -15 -6.5t-6 -15.5v-474q0 -9 6 -15.5t15 -6.5h79q9 0 15.5 6.5t6.5 15.5v474zM91 487v-432h-37v432h37z M79 475h-13v-408h13v408zM12 609v-43h122v43h-122zM146 554h-146v67h146v-67z" />
<glyph unicode="&#x14e;" d="M33 553q-14 0 -23.5 10t-9.5 24v113h67v-80h12v80h67v-113q0 -14 -9.5 -24t-23.5 -10h-80zM12 587q0 -9 6.5 -15.5t14.5 -6.5h80q8 0 14.5 6.5t6.5 15.5v101h-43v-80h-36v80h-43v-101zM112 542q14 0 24 -10t10 -24v-474q0 -14 -10 -24t-24 -10h-79q-14 0 -23.5 10 t-9.5 24v474q0 14 9.5 24t23.5 10h79zM134 508q0 9 -6.5 15.5t-15.5 6.5h-79q-9 0 -15 -6.5t-6 -15.5v-474q0 -9 6 -15.5t15 -6.5h79q9 0 15.5 6.5t6.5 15.5v474zM91 487v-432h-37v432h37zM79 475h-13v-408h13v408z" />
<glyph unicode="&#x14f;" d="M112 542q14 0 24 -10t10 -24v-474q0 -14 -10 -24t-24 -10h-79q-14 0 -23.5 10t-9.5 24v474q0 14 9.5 24t23.5 10h79zM134 508q0 9 -6.5 15.5t-15.5 6.5h-79q-9 0 -15 -6.5t-6 -15.5v-474q0 -9 6 -15.5t15 -6.5h79q9 0 15.5 6.5t6.5 15.5v474zM91 487v-432h-37v432h37z M79 475h-13v-408h13v408zM33 553q-14 0 -23.5 10t-9.5 24v113h67v-80h12v80h67v-113q0 -14 -9.5 -24t-23.5 -10h-80zM12 587q0 -9 6.5 -15.5t14.5 -6.5h80q8 0 14.5 6.5t6.5 15.5v101h-43v-80h-36v80h-43v-101z" />
<glyph unicode="&#x150;" d="M91 688v-122h43v122h-43zM12 688v-122h43v122h-43zM146 554h-67v146h67v-146zM67 554h-67v146h67v-146zM112 542q14 0 24 -10t10 -24v-474q0 -14 -10 -24t-24 -10h-79q-14 0 -23.5 10t-9.5 24v474q0 14 9.5 24t23.5 10h79zM134 508q0 9 -6.5 15.5t-15.5 6.5h-79 q-9 0 -15 -6.5t-6 -15.5v-474q0 -9 6 -15.5t15 -6.5h79q9 0 15.5 6.5t6.5 15.5v474zM91 487v-432h-37v432h37zM79 475h-13v-408h13v408z" />
<glyph unicode="&#x151;" d="M112 542q14 0 24 -10t10 -24v-474q0 -14 -10 -24t-24 -10h-79q-14 0 -23.5 10t-9.5 24v474q0 14 9.5 24t23.5 10h79zM134 508q0 9 -6.5 15.5t-15.5 6.5h-79q-9 0 -15 -6.5t-6 -15.5v-474q0 -9 6 -15.5t15 -6.5h79q9 0 15.5 6.5t6.5 15.5v474zM91 487v-432h-37v432h37z M79 475h-13v-408h13v408zM91 688v-122h43v122h-43zM12 688v-122h43v122h-43zM146 554h-67v146h67v-146zM67 554h-67v146h67v-146z" />
<glyph unicode="&#x152;" horiz-adv-x="237" d="M55 55v590h36v-590h-36zM67 67h12v566h-12v-566zM33 0q-14 0 -23.5 9.5t-9.5 23.5v633q0 14 9.5 24t23.5 10h192v-304h-67v237h-12v-250h79v-67h-79v-249h12v237h67v-304h-192zM12 33q0 -8 6.5 -14.5t14.5 -6.5h180v280h-43v-237h-36v273h79v43h-79v274h36v-237h43v280 h-180q-8 0 -14.5 -6.5t-6.5 -15.5v-633z" />
<glyph unicode="&#x153;" horiz-adv-x="237" d="M55 55v432h36v-432h-36zM67 67h12v408h-12v-408zM134 292v195h36v-195h-36zM146 304h12v171h-12v-171zM34 0q-14 0 -24 9.5t-10 23.5v475q0 14 10 24t24 10h157q14 0 24 -10t10 -24v-271h-79v-170h12v158h67v-192q0 -14 -10 -23.5t-24 -9.5h-157zM12 33q0 -8 6.5 -14.5 t15.5 -6.5h157q9 0 15.5 6.5t6.5 14.5v180h-43v-158h-36v194h79v259q0 9 -6.5 15.5t-15.5 6.5h-157q-9 0 -15.5 -6.5t-6.5 -15.5v-475z" />
<glyph unicode="&#x154;" d="M55 487v-155h36v155h-36zM79 344h-12v131h12v-131zM113 542h-113v-542h67v198h12v-198h67v231q0 14 -9.5 24t-23.5 10h-46v12h46q14 0 23.5 10t9.5 24v197q0 14 -9.5 24t-23.5 10zM134 311q0 -9 -6 -15.5t-15 -6.5h-58v-36h12h46q9 0 15 -6.5t6 -15.5v-219h-43v198h-36 v-198h-43v518h101q9 0 15 -6.5t6 -15.5v-197zM146 700v-113q0 -14 -10 -23.5t-24 -9.5h-112v67h79v79h67zM12 609v-43h100q9 0 15.5 6t6.5 15v101h-43v-79h-79z" />
<glyph unicode="&#x155;" d="M113 542q14 0 23.5 -10t9.5 -24v-192h-67v159h-12v-475h-67v542h113zM134 508q0 9 -6 15.5t-15 6.5h-101v-518h43v475h36v-159h43v180zM146 700v-113q0 -14 -10 -23.5t-24 -9.5h-112v67h79v79h67zM12 609v-43h100q9 0 15.5 6t6.5 15v101h-43v-79h-79z" />
<glyph unicode="&#x156;" d="M51 -24v-79h-39v-43h61q9 0 15 6.5t6 15.5v100h-43zM106 -124q0 -14 -9.5 -24t-23.5 -10h-73v67h39v79h67v-112zM91 645v-234h-36v234h36zM79 633h-12v-210h12v210zM113 700q14 0 23.5 -10t9.5 -24v-276q0 -14 -9.5 -24t-23.5 -10h-46v-12h46q14 0 23.5 -10t9.5 -24v-310 h-67v277h-12v-277h-67v700h113zM134 666q0 9 -6 15.5t-15 6.5h-101v-676h43v277h36v-277h43v298q0 9 -6 15.5t-15 6.5h-46h-12v36h58q9 0 15 6.5t6 15.5v276z" />
<glyph unicode="&#x157;" d="M12 -24v-79h-39v-43h61q9 0 15 6.5t6 15.5v100h-43zM67 -124q0 -14 -9.5 -24t-23.5 -10h-73v67h39v79h67v-112zM113 542q14 0 23.5 -10t9.5 -24v-192h-67v159h-12v-475h-67v542h113zM134 508q0 9 -6 15.5t-15 6.5h-101v-518h43v475h36v-159h43v180z" />
<glyph unicode="&#x158;" d="M91 487v-155h-36v155h36zM79 475h-12v-131h12v131zM113 542q14 0 23.5 -10t9.5 -24v-197q0 -14 -9.5 -24t-23.5 -10h-46v-12h46q14 0 23.5 -10t9.5 -24v-231h-67v198h-12v-198h-67v542h113zM134 508q0 9 -6 15.5t-15 6.5h-101v-518h43v198h36v-198h43v219q0 9 -6 15.5 t-15 6.5h-46h-12v36h58q9 0 15 6.5t6 15.5v197zM97 564q-10 -10 -24 -10t-24 10l-39 39q-10 12 -10 24v73h67v-59l6 -6l6 6v59h67v-73q0 -14 -10 -24zM134 688h-43v-52l-18 -18l-18 18v52h-43v-61q0 -9 6 -15l40 -40q6 -6 15 -6t15 6l40 40q6 6 6 15v61z" />
<glyph unicode="&#x159;" d="M113 542q14 0 23.5 -10t9.5 -24v-192h-67v159h-12v-475h-67v542h113zM134 508q0 9 -6 15.5t-15 6.5h-101v-518h43v475h36v-159h43v180zM97 564q-10 -10 -24 -10t-24 10l-39 39q-10 12 -10 24v73h67v-59l6 -6l6 6v59h67v-73q0 -14 -10 -24zM134 688h-43v-52l-18 -18 l-18 18v52h-43v-61q0 -9 6 -15l40 -40q6 -6 15 -6t15 6l40 40q6 6 6 15v61z" />
<glyph unicode="&#x15a;" d="M146 700v-113q0 -14 -10 -23.5t-24 -9.5h-112v67h79v79h67zM12 609v-43h100q9 0 15.5 6t6.5 15v101h-43v-79h-79zM33 0q-14 0 -23.5 10t-9.5 24v191h67v-158h12v170h-46q-14 0 -23.5 10t-9.5 24v237q0 14 9.5 24t23.5 10h80q14 0 23.5 -10t9.5 -24v-192h-67v159h-12v-171 h46q14 0 23.5 -9.5t9.5 -23.5v-237q0 -14 -9.5 -24t-23.5 -10h-80zM12 34q0 -9 6.5 -15.5t14.5 -6.5h80q8 0 14.5 6.5t6.5 15.5v237q0 9 -6.5 15t-14.5 6h-58v195h36v-159h43v180q0 9 -6.5 15.5t-14.5 6.5h-80q-8 0 -14.5 -6.5t-6.5 -15.5v-237q0 -9 6.5 -15.5t14.5 -6.5h58 v-194h-36v158h-43v-179z" />
<glyph unicode="&#x15b;" d="M33 0q-14 0 -23.5 10t-9.5 24v191h67v-158h12v170h-46q-14 0 -23.5 10t-9.5 24v237q0 14 9.5 24t23.5 10h80q14 0 23.5 -10t9.5 -24v-192h-67v159h-12v-171h46q14 0 23.5 -9.5t9.5 -23.5v-237q0 -14 -9.5 -24t-23.5 -10h-80zM12 34q0 -9 6.5 -15.5t14.5 -6.5h80 q8 0 14.5 6.5t6.5 15.5v237q0 9 -6.5 15t-14.5 6h-58v195h36v-159h43v180q0 9 -6.5 15.5t-14.5 6.5h-80q-8 0 -14.5 -6.5t-6.5 -15.5v-237q0 -9 6.5 -15.5t14.5 -6.5h58v-194h-36v158h-43v-179zM146 700v-113q0 -14 -10 -23.5t-24 -9.5h-112v67h79v79h67zM12 609v-43h100 q9 0 15.5 6t6.5 15v101h-43v-79h-79z" />
<glyph unicode="&#x15c;" d="M136 651q10 -10 10 -24v-73h-67v59l-6 6l-6 -6v-59h-67v73q0 12 10 24l39 39q10 10 24 10t24 -10zM134 627q0 9 -6 15l-40 40q-6 6 -15 6t-15 -6l-40 -40q-6 -6 -6 -15v-61h43v52l18 18l18 -18v-52h43v61zM33 0q-14 0 -23.5 10t-9.5 24v191h67v-158h12v170h-46 q-14 0 -23.5 10t-9.5 24v237q0 14 9.5 24t23.5 10h80q14 0 23.5 -10t9.5 -24v-192h-67v159h-12v-171h46q14 0 23.5 -9.5t9.5 -23.5v-237q0 -14 -9.5 -24t-23.5 -10h-80zM12 34q0 -9 6.5 -15.5t14.5 -6.5h80q8 0 14.5 6.5t6.5 15.5v237q0 9 -6.5 15t-14.5 6h-58v195h36v-159 h43v180q0 9 -6.5 15.5t-14.5 6.5h-80q-8 0 -14.5 -6.5t-6.5 -15.5v-237q0 -9 6.5 -15.5t14.5 -6.5h58v-194h-36v158h-43v-179z" />
<glyph unicode="&#x15d;" d="M33 0q-14 0 -23.5 10t-9.5 24v191h67v-158h12v170h-46q-14 0 -23.5 10t-9.5 24v237q0 14 9.5 24t23.5 10h80q14 0 23.5 -10t9.5 -24v-192h-67v159h-12v-171h46q14 0 23.5 -9.5t9.5 -23.5v-237q0 -14 -9.5 -24t-23.5 -10h-80zM12 34q0 -9 6.5 -15.5t14.5 -6.5h80 q8 0 14.5 6.5t6.5 15.5v237q0 9 -6.5 15t-14.5 6h-58v195h36v-159h43v180q0 9 -6.5 15.5t-14.5 6.5h-80q-8 0 -14.5 -6.5t-6.5 -15.5v-237q0 -9 6.5 -15.5t14.5 -6.5h58v-194h-36v158h-43v-179zM136 651q10 -10 10 -24v-73h-67v59l-6 6l-6 -6v-59h-67v73q0 12 10 24l39 39 q10 10 24 10t24 -10zM134 627q0 9 -6 15l-40 40q-6 6 -15 6t-15 -6l-40 -40q-6 -6 -6 -15v-61h43v52l18 18l18 -18v-52h43v61z" />
<glyph unicode="&#x15e;" d="M79 396v237h-12v-250h46q14 0 23.5 -9.5t9.5 -23.5v-317q0 -14 -9.5 -23.5t-23.5 -9.5h-6v-12h6q14 0 23.5 -10t9.5 -24v-79q0 -14 -9.5 -23.5t-23.5 -9.5h-73v67h39v12h-6q-14 0 -23.5 9.5t-9.5 23.5v46h-7q-14 0 -23.5 9.5t-9.5 23.5v271h67v-237h12v249h-46 q-14 0 -23.5 10t-9.5 24v316q0 14 9.5 24t23.5 10h80q14 0 23.5 -10t9.5 -24v-270h-67zM91 645v-237h43v258q0 9 -6.5 15.5t-14.5 6.5h-80q-8 0 -14.5 -6.5t-6.5 -15.5v-316q0 -9 6.5 -15.5t14.5 -6.5h58v-273h-36v237h-43v-259q0 -8 6.5 -14.5t14.5 -6.5h19v-58q0 -9 6 -15 t15 -6h18v-36h-39v-43h61q8 0 14.5 6t6.5 15v79q0 9 -6.5 15.5t-14.5 6.5h-18v36h18q8 0 14.5 6.5t6.5 14.5v317q0 9 -6.5 15t-14.5 6h-58v274h36z" />
<glyph unicode="&#x15f;" d="M79 317v158h-12v-171h46q14 0 23.5 -9.5t9.5 -23.5v-238q0 -14 -9.5 -23.5t-23.5 -9.5h-6v-12h6q14 0 23.5 -10t9.5 -24v-79q0 -14 -9.5 -23.5t-23.5 -9.5h-73v67h39v12h-6q-14 0 -23.5 9.5t-9.5 23.5v46h-7q-14 0 -23.5 9.5t-9.5 23.5v192h67v-158h12v170h-46 q-14 0 -23.5 10t-9.5 24v237q0 14 9.5 24t23.5 10h80q14 0 23.5 -10t9.5 -24v-191h-67zM91 487v-158h43v179q0 9 -6.5 15.5t-14.5 6.5h-80q-8 0 -14.5 -6.5t-6.5 -15.5v-237q0 -9 6.5 -15.5t14.5 -6.5h58v-194h-36v158h-43v-180q0 -8 6.5 -14.5t14.5 -6.5h19v-58q0 -9 6 -15 t15 -6h18v-36h-39v-43h61q8 0 14.5 6t6.5 15v79q0 9 -6.5 15.5t-14.5 6.5h-18v36h18q8 0 14.5 6.5t6.5 14.5v238q0 9 -6.5 15t-14.5 6h-58v195h36z" />
<glyph unicode="&#x160;" d="M97 564q-10 -10 -24 -10t-24 10l-39 39q-10 12 -10 24v73h67v-59l6 -6l6 6v59h67v-73q0 -14 -10 -24zM134 688h-43v-52l-18 -18l-18 18v52h-43v-61q0 -9 6 -15l40 -40q6 -6 15 -6t15 6l40 40q6 6 6 15v61zM33 0q-14 0 -23.5 10t-9.5 24v191h67v-158h12v170h-46 q-14 0 -23.5 10t-9.5 24v237q0 14 9.5 24t23.5 10h80q14 0 23.5 -10t9.5 -24v-192h-67v159h-12v-171h46q14 0 23.5 -9.5t9.5 -23.5v-237q0 -14 -9.5 -24t-23.5 -10h-80zM12 34q0 -9 6.5 -15.5t14.5 -6.5h80q8 0 14.5 6.5t6.5 15.5v237q0 9 -6.5 15t-14.5 6h-58v195h36v-159 h43v180q0 9 -6.5 15.5t-14.5 6.5h-80q-8 0 -14.5 -6.5t-6.5 -15.5v-237q0 -9 6.5 -15.5t14.5 -6.5h58v-194h-36v158h-43v-179z" />
<glyph unicode="&#x161;" d="M33 0q-14 0 -23.5 10t-9.5 24v191h67v-158h12v170h-46q-14 0 -23.5 10t-9.5 24v237q0 14 9.5 24t23.5 10h80q14 0 23.5 -10t9.5 -24v-192h-67v159h-12v-171h46q14 0 23.5 -9.5t9.5 -23.5v-237q0 -14 -9.5 -24t-23.5 -10h-80zM12 34q0 -9 6.5 -15.5t14.5 -6.5h80 q8 0 14.5 6.5t6.5 15.5v237q0 9 -6.5 15t-14.5 6h-58v195h36v-159h43v180q0 9 -6.5 15.5t-14.5 6.5h-80q-8 0 -14.5 -6.5t-6.5 -15.5v-237q0 -9 6.5 -15.5t14.5 -6.5h58v-194h-36v158h-43v-179zM97 564q-10 -10 -24 -10t-24 10l-39 39q-10 12 -10 24v73h67v-59l6 -6l6 6v59 h67v-73q0 -14 -10 -24zM134 688h-43v-52l-18 -18l-18 18v52h-43v-61q0 -9 6 -15l40 -40q6 -6 15 -6t15 6l40 40q6 6 6 15v61z" />
<glyph unicode="&#x162;" horiz-adv-x="237" d="M91 -24v-79h-39v-43h61q9 0 15 6.5t6 15.5v100h-43zM146 -124q0 -14 -9.5 -24t-23.5 -10h-73v67h39v79h67v-112zM67 356h-67v344h225v-344h-67v277h-12v-633h-67v633h-12v-277zM55 645h36v-633h43v633h36v-277h43v320h-201v-320h43v277z" />
<glyph unicode="&#x163;" horiz-adv-x="119" d="M12 -24v-79h-39v-43h61q9 0 15 6.5t6 15.5v100h-43zM67 -124q0 -14 -9.5 -24t-23.5 -10h-73v67h39v79h67v-112zM67 700v-158h40v-67h-40v-475h-67v700h67zM55 530v158h-43v-676h43v475h40v43h-40z" />
<glyph unicode="&#x164;" horiz-adv-x="237" d="M67 277h-67v265h225v-265h-67v198h-12v-475h-67v475h-12v-198zM55 487h36v-475h43v475h36v-198h43v241h-201v-241h43v198zM137 564q-10 -10 -24 -10t-24 10l-39 39q-10 12 -10 24v73h67v-59l6 -6l6 6v59h67v-73q0 -14 -10 -24zM174 688h-43v-52l-18 -18l-18 18v52h-43 v-61q0 -9 6 -15l40 -40q6 -6 15 -6t15 6l40 40q6 6 6 15v61z" />
<glyph unicode="&#x165;" d="M67 700v-158h40v-67h-40v-475h-67v700h67zM55 530v158h-43v-676h43v475h40v43h-40zM91 688v-122h43v122h-43zM146 554h-67v146h67v-146z" />
<glyph unicode="&#x166;" horiz-adv-x="237" d="M158 396v237h-12v-249h79v-67h-79v-317h-67v317h-79v67h79v249h-12v-237h-67v304h225v-304h-67zM170 645v-237h43v280h-201v-280h43v237h36v-273h-79v-43h79v-317h43v317h79v43h-79v273h36z" />
<glyph unicode="&#x167;" d="M107 475v-12h39v-67h-39v-396h-67v396h-40v67h40v237h67v-158h39v-67h-39zM95 451v36h39v43h-39v158h-43v-237h-12h-28v-43h40v-396h43v396h39v43h-39z" />
<glyph unicode="&#x168;" d="M79 700h67v-73q0 -14 -10 -24t-24 -10h-45v-39h-67v73q0 14 9.5 23.5t23.5 9.5h46v40zM91 648h-58q-8 0 -14.5 -6t-6.5 -15v-61h43v39h57q9 0 15.5 6.5t6.5 15.5v61h-43v-40zM67 67h12v475h67v-508q0 -14 -9.5 -24t-23.5 -10h-79q-14 0 -24 10t-10 24v508h67v-475zM55 55 v475h-43v-496q0 -9 6.5 -15.5t15.5 -6.5h79q9 0 15 6.5t6 15.5v496h-43v-475h-36z" />
<glyph unicode="&#x169;" d="M67 67h12v475h67v-508q0 -14 -9.5 -24t-23.5 -10h-79q-14 0 -24 10t-10 24v508h67v-475zM55 55v475h-43v-496q0 -9 6.5 -15.5t15.5 -6.5h79q9 0 15 6.5t6 15.5v496h-43v-475h-36zM79 700h67v-73q0 -14 -10 -24t-24 -10h-45v-39h-67v73q0 14 9.5 23.5t23.5 9.5h46v40z M91 648h-58q-8 0 -14.5 -6t-6.5 -15v-61h43v39h57q9 0 15.5 6.5t6.5 15.5v61h-43v-40z" />
<glyph unicode="&#x16a;" d="M67 67h12v554h67v-587q0 -14 -9.5 -24t-23.5 -10h-79q-14 0 -24 10t-10 24v587h67v-554zM55 55v554h-43v-575q0 -9 6.5 -15.5t15.5 -6.5h79q9 0 15 6.5t6 15.5v575h-43v-554h-36zM12 688v-43h122v43h-122zM146 633h-146v67h146v-67z" />
<glyph unicode="&#x16b;" d="M67 67h12v475h67v-508q0 -14 -9.5 -24t-23.5 -10h-79q-14 0 -24 10t-10 24v508h67v-475zM55 55v475h-43v-496q0 -9 6.5 -15.5t15.5 -6.5h79q9 0 15 6.5t6 15.5v496h-43v-475h-36zM12 609v-43h122v43h-122zM146 554h-146v67h146v-67z" />
<glyph unicode="&#x16c;" d="M33 553q-14 0 -23.5 10t-9.5 24v113h67v-80h12v80h67v-113q0 -14 -9.5 -24t-23.5 -10h-80zM12 587q0 -9 6.5 -15.5t14.5 -6.5h80q8 0 14.5 6.5t6.5 15.5v101h-43v-80h-36v80h-43v-101zM67 67h12v475h67v-508q0 -14 -9.5 -24t-23.5 -10h-79q-14 0 -24 10t-10 24v508h67 v-475zM55 55v475h-43v-496q0 -9 6.5 -15.5t15.5 -6.5h79q9 0 15 6.5t6 15.5v496h-43v-475h-36z" />
<glyph unicode="&#x16d;" d="M67 67h12v475h67v-508q0 -14 -9.5 -24t-23.5 -10h-79q-14 0 -24 10t-10 24v508h67v-475zM55 55v475h-43v-496q0 -9 6.5 -15.5t15.5 -6.5h79q9 0 15 6.5t6 15.5v496h-43v-475h-36zM33 553q-14 0 -23.5 10t-9.5 24v113h67v-80h12v80h67v-113q0 -14 -9.5 -24t-23.5 -10h-80z M12 587q0 -9 6.5 -15.5t14.5 -6.5h80q8 0 14.5 6.5t6.5 15.5v101h-43v-80h-36v80h-43v-101z" />
<glyph unicode="&#x16e;" d="M91 645v-36h-36v36h36zM79 633h-12v-12h12v12zM112 700q14 0 24 -10t10 -24v-79q0 -14 -10 -23.5t-24 -9.5h-79q-14 0 -23.5 9.5t-9.5 23.5v79q0 14 9.5 24t23.5 10h79zM134 666q0 9 -6.5 15.5t-15.5 6.5h-79q-9 0 -15 -6.5t-6 -15.5v-79q0 -9 6 -15t15 -6h79q9 0 15.5 6 t6.5 15v79zM67 67h12v475h67v-508q0 -14 -9.5 -24t-23.5 -10h-79q-14 0 -24 10t-10 24v508h67v-475zM55 55v475h-43v-496q0 -9 6.5 -15.5t15.5 -6.5h79q9 0 15 6.5t6 15.5v496h-43v-475h-36z" />
<glyph unicode="&#x16f;" d="M67 67h12v475h67v-508q0 -14 -9.5 -24t-23.5 -10h-79q-14 0 -24 10t-10 24v508h67v-475zM55 55v475h-43v-496q0 -9 6.5 -15.5t15.5 -6.5h79q9 0 15 6.5t6 15.5v496h-43v-475h-36zM91 645v-36h-36v36h36zM79 633h-12v-12h12v12zM112 700q14 0 24 -10t10 -24v-79 q0 -14 -10 -23.5t-24 -9.5h-79q-14 0 -23.5 9.5t-9.5 23.5v79q0 14 9.5 24t23.5 10h79zM134 666q0 9 -6.5 15.5t-15.5 6.5h-79q-9 0 -15 -6.5t-6 -15.5v-79q0 -9 6 -15t15 -6h79q9 0 15.5 6t6.5 15v79z" />
<glyph unicode="&#x170;" d="M91 688v-122h43v122h-43zM12 688v-122h43v122h-43zM146 554h-67v146h67v-146zM67 554h-67v146h67v-146zM67 67h12v475h67v-508q0 -14 -9.5 -24t-23.5 -10h-79q-14 0 -24 10t-10 24v508h67v-475zM55 55v475h-43v-496q0 -9 6.5 -15.5t15.5 -6.5h79q9 0 15 6.5t6 15.5v496 h-43v-475h-36z" />
<glyph unicode="&#x171;" d="M67 67h12v475h67v-508q0 -14 -9.5 -24t-23.5 -10h-79q-14 0 -24 10t-10 24v508h67v-475zM55 55v475h-43v-496q0 -9 6.5 -15.5t15.5 -6.5h79q9 0 15 6.5t6 15.5v496h-43v-475h-36zM91 688v-122h43v122h-43zM12 688v-122h43v122h-43zM146 554h-67v146h67v-146zM67 554h-67 v146h67v-146z" />
<glyph unicode="&#x172;" d="M146 -79h-73q-14 0 -23.5 9.5t-9.5 23.5v46h-6q-14 0 -24 9.5t-10 23.5v667h67v-633h12v633h67v-667q0 -14 -9.5 -23.5t-23.5 -9.5h-6v-12h39v-67zM134 -24h-39v36h18q9 0 15 6.5t6 14.5v655h-43v-633h-36v633h-43v-655q0 -8 6.5 -14.5t15.5 -6.5h18v-58q0 -9 6.5 -15 t14.5 -6h61v43z" />
<glyph unicode="&#x173;" d="M112 -79q-14 0 -23.5 9.5t-9.5 23.5v46h-46q-14 0 -23.5 9.5t-9.5 23.5v509h67v-475h12v475h67v-554h40v-67h-74zM91 -46q0 -9 6 -15t15 -6h62v43h-40v554h-43v-475h-36v475h-43v-497q0 -8 6 -14.5t15 -6.5h46h12v-12v-46z" />
<glyph unicode="&#x174;" horiz-adv-x="237" d="M176 651q10 -10 10 -24v-73h-67v59l-6 6l-6 -6v-59h-67v73q0 12 10 24l39 39q10 10 24 10t24 -10zM174 627q0 9 -6 15l-40 40q-6 6 -15 6t-15 -6l-40 -40q-6 -6 -6 -15v-61h43v52l18 18l18 -18v-52h43v61zM225 34q0 -14 -9.5 -24t-23.5 -10h-192v542h67v-475h12v475h67 v-475h12v475h67v-508zM12 12h180q9 0 15 6.5t6 15.5v496h-43v-475h-36v475h-43v-475h-36v475h-43v-518z" />
<glyph unicode="&#x175;" horiz-adv-x="237" d="M225 34q0 -14 -9.5 -24t-23.5 -10h-192v542h67v-475h12v475h67v-475h12v475h67v-508zM12 12h180q9 0 15 6.5t6 15.5v496h-43v-475h-36v475h-43v-475h-36v475h-43v-518zM176 651q10 -10 10 -24v-73h-67v59l-6 6l-6 -6v-59h-67v73q0 12 10 24l39 39q10 10 24 10t24 -10z M174 627q0 9 -6 15l-40 40q-6 6 -15 6t-15 -6l-40 -40q-6 -6 -6 -15v-61h43v52l18 18l18 -18v-52h43v61z" />
<glyph unicode="&#x176;" d="M34 237q-14 0 -24 9.5t-10 23.5v272h67v-238h12v238h67v-272q0 -14 -9.5 -23.5t-23.5 -9.5h-7v-237h-66v237h-6zM12 270q0 -8 6.5 -14.5t15.5 -6.5h18v-237h42v237h19q9 0 15 6.5t6 14.5v260h-43v-238h-36v238h-43v-260zM136 651q10 -10 10 -24v-73h-67v59l-6 6l-6 -6 v-59h-67v73q0 12 10 24l39 39q10 10 24 10t24 -10zM134 627q0 9 -6 15l-40 40q-6 6 -15 6t-15 -6l-40 -40q-6 -6 -6 -15v-61h43v52l18 18l18 -18v-52h43v61z" />
<glyph unicode="&#x177;" d="M67 67h12v475h67v-667q0 -14 -9.5 -23.5t-23.5 -9.5h-80q-14 0 -23.5 9.5t-9.5 23.5v113h67v-79h12v91h-46q-14 0 -23.5 10t-9.5 24v508h67v-475zM55 55v475h-43v-496q0 -9 6.5 -15.5t14.5 -6.5h58v-115h-36v79h-43v-101q0 -9 6.5 -15t14.5 -6h80q8 0 14.5 6t6.5 15v655 h-43v-475h-36zM136 651q10 -10 10 -24v-73h-67v59l-6 6l-6 -6v-59h-67v73q0 12 10 24l39 39q10 10 24 10t24 -10zM134 627q0 9 -6 15l-40 40q-6 6 -15 6t-15 -6l-40 -40q-6 -6 -6 -15v-61h43v52l18 18l18 -18v-52h43v61z" />
<glyph unicode="&#x178;" d="M34 237q-14 0 -24 9.5t-10 23.5v272h67v-238h12v238h67v-272q0 -14 -9.5 -23.5t-23.5 -9.5h-7v-237h-66v237h-6zM12 270q0 -8 6.5 -14.5t15.5 -6.5h18v-237h42v237h19q9 0 15 6.5t6 14.5v260h-43v-238h-36v238h-43v-260zM91 688v-122h43v122h-43zM12 688v-122h43v122h-43 zM146 554h-67v146h67v-146zM67 554h-67v146h67v-146z" />
<glyph unicode="&#x179;" d="M146 700v-113q0 -14 -10 -23.5t-24 -9.5h-112v67h79v79h67zM12 609v-43h100q9 0 15.5 6t6.5 15v101h-43v-79h-79zM79 324v151h-12v-119h-67v186h146v-232q0 -14 -9 -23l-70 -70v-150h12v119h67v-186h-146v231q0 14 10 24zM91 487v-168l-72 -72q-7 -7 -7 -16v-219h123v162 h-44v-119h-36v167l73 73q7 7 7 15v220h-123v-162h43v119h36z" />
<glyph unicode="&#x17a;" d="M79 324v151h-12v-119h-67v186h146v-232q0 -14 -9 -23l-70 -70v-150h12v119h67v-186h-146v231q0 14 10 24zM91 487v-168l-72 -72q-7 -7 -7 -16v-219h123v162h-44v-119h-36v167l73 73q7 7 7 15v220h-123v-162h43v119h36zM146 700v-113q0 -14 -10 -23.5t-24 -9.5h-112v67h79 v79h67zM12 609v-43h100q9 0 15.5 6t6.5 15v101h-43v-79h-79z" />
<glyph unicode="&#x17b;" d="M52 688v-122h43v122h-43zM107 554h-67v146h67v-146zM79 324v151h-12v-119h-67v186h146v-232q0 -14 -9 -23l-70 -70v-150h12v119h67v-186h-146v231q0 14 10 24zM91 487v-168l-72 -72q-7 -7 -7 -16v-219h123v162h-44v-119h-36v167l73 73q7 7 7 15v220h-123v-162h43v119h36z " />
<glyph unicode="&#x17c;" d="M79 324v151h-12v-119h-67v186h146v-232q0 -14 -9 -23l-70 -70v-150h12v119h67v-186h-146v231q0 14 10 24zM91 487v-168l-72 -72q-7 -7 -7 -16v-219h123v162h-44v-119h-36v167l73 73q7 7 7 15v220h-123v-162h43v119h36zM52 688v-122h43v122h-43zM107 554h-67v146h67v-146z " />
<glyph unicode="&#x17d;" d="M97 564q-10 -10 -24 -10t-24 10l-39 39q-10 12 -10 24v73h67v-59l6 -6l6 6v59h67v-73q0 -14 -10 -24zM134 688h-43v-52l-18 -18l-18 18v52h-43v-61q0 -9 6 -15l40 -40q6 -6 15 -6t15 6l40 40q6 6 6 15v61zM79 324v151h-12v-119h-67v186h146v-232q0 -14 -9 -23l-70 -70 v-150h12v119h67v-186h-146v231q0 14 10 24zM91 487v-168l-72 -72q-7 -7 -7 -16v-219h123v162h-44v-119h-36v167l73 73q7 7 7 15v220h-123v-162h43v119h36z" />
<glyph unicode="&#x17e;" d="M79 324v151h-12v-119h-67v186h146v-232q0 -14 -9 -23l-70 -70v-150h12v119h67v-186h-146v231q0 14 10 24zM91 487v-168l-72 -72q-7 -7 -7 -16v-219h123v162h-44v-119h-36v167l73 73q7 7 7 15v220h-123v-162h43v119h36zM97 564q-10 -10 -24 -10t-24 10l-39 39 q-10 12 -10 24v73h67v-59l6 -6l6 6v59h67v-73q0 -14 -10 -24zM134 688h-43v-52l-18 -18l-18 18v52h-43v-61q0 -9 6 -15l40 -40q6 -6 15 -6t15 6l40 40q6 6 6 15v61z" />
<glyph unicode="&#x17f;" horiz-adv-x="198" d="M186 475h-67v158h-12v-633h-67v396h-40v67h40v203q0 14 9.5 24t23.5 10h79q14 0 24 -10t10 -24v-191zM174 666q0 9 -6.5 15.5t-15.5 6.5h-79q-9 0 -15 -6.5t-6 -15.5v-215h-40v-43h40v-396h43v633h36v-158h43v179z" />
<glyph unicode="&#x1fa;" d="M33 451q-9 0 -15 -6.5t-6 -15.5v-417h43v197h36v-197h43v417q0 9 -6.5 15.5t-15.5 6.5h-79zM55 408h36v-155h-36v155zM112 463q14 0 24 -10t10 -24v-429h-67v197h-12v-197h-67v429q0 14 9.5 24t23.5 10h79zM79 265v131h-12v-131h12zM91 566v-36h-36v36h36zM79 554h-12 v-12h12v12zM112 621q14 0 24 -10t10 -24v-79q0 -14 -10 -23.5t-24 -9.5h-79q-14 0 -23.5 9.5t-9.5 23.5v79q0 14 9.5 24t23.5 10h79zM134 587q0 9 -6.5 15.5t-15.5 6.5h-79q-9 0 -15 -6.5t-6 -15.5v-79q0 -9 6 -15t15 -6h79q9 0 15.5 6t6.5 15v79zM12 688v-43h122v43h-122z M146 633h-146v67h146v-67z" />
<glyph unicode="&#x1fb;" d="M91 210v-154h-36v154h36zM79 198h-12v-130h12v130zM0 430q0 14 10 23.5t24 9.5h79q14 0 23.5 -9.5t9.5 -23.5v-430h-112q-14 0 -24 10t-10 24v197q0 14 10 24t24 10h45v131h-12v-119h-67v153zM12 289h43v119h36v-155h-57q-9 0 -15.5 -6.5t-6.5 -15.5v-197q0 -9 6.5 -15.5 t15.5 -6.5h100v418q0 9 -6 15t-15 6h-79q-9 0 -15.5 -6t-6.5 -15v-141zM91 566v-36h-36v36h36zM79 554h-12v-12h12v12zM112 621q14 0 24 -10t10 -24v-79q0 -14 -10 -23.5t-24 -9.5h-79q-14 0 -23.5 9.5t-9.5 23.5v79q0 14 9.5 24t23.5 10h79zM134 587q0 9 -6.5 15.5 t-15.5 6.5h-79q-9 0 -15 -6.5t-6 -15.5v-79q0 -9 6 -15t15 -6h79q9 0 15.5 6t6.5 15v79zM12 688v-43h122v43h-122zM146 633h-146v67h146v-67z" />
<glyph unicode="&#x1fc;" horiz-adv-x="237" d="M91 291v196h-36v-196h36zM67 475h12v-172h-12v172zM0 508v-508h67v236h12v-236h146v224h-67v-157h-12v169h79v67h-79v172h12v-159h67v226h-192q-14 0 -23.5 -10t-9.5 -24zM12 508q0 9 6.5 15.5t14.5 6.5h180v-202h-43v159h-36v-196h79v-43h-79v-193h36v157h43v-200h-122 v236h-36v-236h-43v496zM186 700v-113q0 -14 -10 -23.5t-24 -9.5h-112v67h79v79h67zM52 609v-43h100q9 0 15.5 6t6.5 15v101h-43v-79h-79z" />
<glyph unicode="&#x1fd;" horiz-adv-x="237" d="M134 292v195h36v-195h-36zM146 304h12v171h-12v-171zM0 508q0 14 9.5 24t23.5 10h159q14 0 23.5 -10t9.5 -24v-271h-79v-170h12v158h67v-192q0 -14 -9.5 -23.5t-23.5 -9.5h-159q-14 0 -23.5 9.5t-9.5 23.5v238q0 14 9.5 23.5t23.5 9.5h46v171h-12v-159h-67v192zM213 508 q0 9 -6 15.5t-15 6.5h-159q-8 0 -14.5 -6.5t-6.5 -15.5v-180h43v159h36v-195h-58q-8 0 -14.5 -6t-6.5 -15v-238q0 -8 6.5 -14.5t14.5 -6.5h159q9 0 15 6.5t6 14.5v180h-43v-158h-36v194h79v259zM91 249v-194h-36v194h36zM79 237h-12v-170h12v170zM185 700v-113 q0 -14 -10 -23.5t-24 -9.5h-112v67h79v79h67zM51 609v-43h100q9 0 15.5 6t6.5 15v101h-43v-79h-79z" />
<glyph unicode="&#x1fe;" horiz-adv-x="237" d="M225 508q0 14 -9.5 24t-23.5 10h-159q-14 0 -23.5 -10t-9.5 -24v-396q0 -14 9.5 -23.5t23.5 -9.5h46v-79h67v79h46q14 0 23.5 9.5t9.5 23.5v396zM213 112q0 -8 -6 -14.5t-15 -6.5h-58v-79h-43v79h-58q-8 0 -14.5 6.5t-6.5 14.5v396q0 9 6.5 15.5t14.5 6.5h159 q9 0 15 -6.5t6 -15.5v-396zM55 487v-353h36v353h-36zM79 146h-12v329h12v-329zM134 487v-353h36v353h-36zM158 146h-12v329h12v-329zM186 700v-113q0 -14 -10 -23.5t-24 -9.5h-112v67h79v79h67zM52 609v-43h100q9 0 15.5 6t6.5 15v101h-43v-79h-79z" />
<glyph unicode="&#x1ff;" horiz-adv-x="237" d="M225 508q0 14 -9.5 24t-23.5 10h-159q-14 0 -23.5 -10t-9.5 -24v-475q0 -14 9.5 -23.5t23.5 -9.5h46v-79h67v79h46q14 0 23.5 9.5t9.5 23.5v475zM213 33q0 -8 -6 -14.5t-15 -6.5h-58v-79h-43v79h-58q-8 0 -14.5 6.5t-6.5 14.5v475q0 9 6.5 15.5t14.5 6.5h159q9 0 15 -6.5 t6 -15.5v-475zM55 487v-432h36v432h-36zM79 67h-12v408h12v-408zM134 487v-432h36v432h-36zM158 67h-12v408h12v-408zM186 700v-113q0 -14 -10 -23.5t-24 -9.5h-112v67h79v79h67zM52 609v-43h100q9 0 15.5 6t6.5 15v101h-43v-79h-79z" />
<glyph unicode="&#x218;" d="M51 -24v-79h-39v-43h61q9 0 15 6.5t6 15.5v100h-43zM106 -124q0 -14 -9.5 -24t-23.5 -10h-73v67h39v79h67v-112zM34 0q-14 0 -24 10t-10 24v270h67v-237h12v249h-45q-14 0 -24 10t-10 24v316q0 14 10 24t24 10h79q14 0 23.5 -10t9.5 -24v-270h-67v237h-12v-249h46 q14 0 23.5 -10t9.5 -24v-316q0 -14 -9.5 -24t-23.5 -10h-79zM12 34q0 -9 6.5 -15.5t15.5 -6.5h79q9 0 15 6.5t6 15.5v316q0 9 -6 15.5t-15 6.5h-58v273h36v-237h43v258q0 9 -6 15.5t-15 6.5h-79q-9 0 -15.5 -6.5t-6.5 -15.5v-316q0 -9 6.5 -15.5t15.5 -6.5h57v-273h-36v237 h-43v-258z" />
<glyph unicode="&#x219;" d="M51 -24v-79h-39v-43h61q9 0 15 6.5t6 15.5v100h-43zM106 -124q0 -14 -9.5 -24t-23.5 -10h-73v67h39v79h67v-112zM33 0q-14 0 -23.5 10t-9.5 24v191h67v-158h12v170h-46q-14 0 -23.5 10t-9.5 24v237q0 14 9.5 24t23.5 10h80q14 0 23.5 -10t9.5 -24v-192h-67v159h-12v-171 h46q14 0 23.5 -9.5t9.5 -23.5v-237q0 -14 -9.5 -24t-23.5 -10h-80zM12 34q0 -9 6.5 -15.5t14.5 -6.5h80q8 0 14.5 6.5t6.5 15.5v237q0 9 -6.5 15t-14.5 6h-58v195h36v-159h43v180q0 9 -6.5 15.5t-14.5 6.5h-80q-8 0 -14.5 -6.5t-6.5 -15.5v-237q0 -9 6.5 -15.5t14.5 -6.5h58 v-194h-36v158h-43v-179z" />
<glyph unicode="&#x21a;" horiz-adv-x="237" d="M91 -24v-79h-39v-43h61q9 0 15 6.5t6 15.5v100h-43zM146 -124q0 -14 -9.5 -24t-23.5 -10h-73v67h39v79h67v-112zM67 356h-67v344h225v-344h-67v277h-12v-633h-67v633h-12v-277zM55 645h36v-633h43v633h36v-277h43v320h-201v-320h43v277z" />
<glyph unicode="&#x21b;" horiz-adv-x="119" d="M12 -24v-79h-39v-43h61q9 0 15 6.5t6 15.5v100h-43zM67 -124q0 -14 -9.5 -24t-23.5 -10h-73v67h39v79h67v-112zM67 700v-158h40v-67h-40v-475h-67v700h67zM55 530v158h-43v-676h43v475h40v43h-40z" />
<glyph unicode="&#x2c6;" d="M136 651q10 -10 10 -24v-73h-67v59l-6 6l-6 -6v-59h-67v73q0 12 10 24l39 39q10 10 24 10t24 -10zM134 627q0 9 -6 15l-40 40q-6 6 -15 6t-15 -6l-40 -40q-6 -6 -6 -15v-61h43v52l18 18l18 -18v-52h43v61z" />
<glyph unicode="&#x2c7;" d="M97 564q-10 -10 -24 -10t-24 10l-39 39q-10 12 -10 24v73h67v-59l6 -6l6 6v59h67v-73q0 -14 -10 -24zM134 688h-43v-52l-18 -18l-18 18v52h-43v-61q0 -9 6 -15l40 -40q6 -6 15 -6t15 6l40 40q6 6 6 15v61z" />
<glyph unicode="&#x2d8;" d="M33 553q-14 0 -23.5 10t-9.5 24v113h67v-80h12v80h67v-113q0 -14 -9.5 -24t-23.5 -10h-80zM12 587q0 -9 6.5 -15.5t14.5 -6.5h80q8 0 14.5 6.5t6.5 15.5v101h-43v-80h-36v80h-43v-101z" />
<glyph unicode="&#x2d9;" horiz-adv-x="79" d="M12 688v-122h43v122h-43zM67 554h-67v146h67v-146z" />
<glyph unicode="&#x2da;" d="M91 645v-36h-36v36h36zM79 633h-12v-12h12v12zM112 700q14 0 24 -10t10 -24v-79q0 -14 -10 -23.5t-24 -9.5h-79q-14 0 -23.5 9.5t-9.5 23.5v79q0 14 9.5 24t23.5 10h79zM134 666q0 9 -6.5 15.5t-15.5 6.5h-79q-9 0 -15 -6.5t-6 -15.5v-79q0 -9 6 -15t15 -6h79q9 0 15.5 6 t6.5 15v79z" />
<glyph unicode="&#x2db;" horiz-adv-x="119" d="M107 -79h-74q-14 0 -23.5 9.5t-9.5 23.5v113h67v-79h40v-67zM95 -24h-40v79h-43v-101q0 -8 6.5 -14.5t14.5 -6.5h62v43z" />
<glyph unicode="&#x2dc;" d="M79 700h67v-73q0 -14 -10 -24t-24 -10h-45v-39h-67v73q0 14 9.5 23.5t23.5 9.5h46v40zM91 648h-58q-8 0 -14.5 -6t-6.5 -15v-61h43v39h57q9 0 15.5 6.5t6.5 15.5v61h-43v-40z" />
<glyph unicode="&#x2dd;" d="M91 688v-122h43v122h-43zM12 688v-122h43v122h-43zM146 554h-67v146h67v-146zM67 554h-67v146h67v-146z" />
<glyph unicode="&#x400;" d="M12 530v-518h122v201h-43v-158h-36v194h79v44h-79v194h36v-158h43v201h-122zM146 317h-67v158h-12v-170h79v-68h-79v-170h12v158h67v-225h-146v542h146v-225zM67 700v-79h79v-67h-112q-14 0 -24 9.5t-10 23.5v113h67zM55 609v79h-43v-101q0 -9 6.5 -15t15.5 -6h100v43 h-79z" />
<glyph unicode="&#x401;" d="M12 530v-518h122v201h-43v-158h-36v194h79v44h-79v194h36v-158h43v201h-122zM146 317h-67v158h-12v-170h79v-68h-79v-170h12v158h67v-225h-146v542h146v-225zM91 688v-122h43v122h-43zM12 688v-122h43v122h-43zM146 554h-67v146h67v-146zM67 554h-67v146h67v-146z" />
<glyph unicode="&#x402;" horiz-adv-x="237" d="M158 475v158h-12v-170h46q14 0 23.5 -10t9.5 -24v-475q0 -14 -9.5 -23.5t-23.5 -9.5h-73v67h39v408h-12v-396h-67v633h-12v-158h-67v225h225v-225h-67zM170 645v-158h43v201h-201v-201h43v158h36v-633h43v396h36v-432h-39v-43h61q9 0 15 6.5t6 14.5v475q0 9 -6 15.5 t-15 6.5h-58v194h36z" />
<glyph unicode="&#x403;" d="M67 475h79v67h-146v-542h67v475zM55 12h-43v518h122v-43h-79v-475zM146 700v-113q0 -14 -10 -23.5t-24 -9.5h-112v67h79v79h67zM12 609v-43h100q9 0 15.5 6t6.5 15v101h-43v-79h-79z" />
<glyph unicode="&#x404;" d="M146 34q0 -14 -10 -24t-24 -10h-79q-14 0 -23.5 10t-9.5 24v633q0 14 9.5 23.5t23.5 9.5h79q14 0 24 -9.5t10 -23.5v-271h-67v237h-12v-249h79v-67h-79v-250h12v237h67v-270zM134 292h-43v-237h-36v274h79v43h-79v273h36v-237h43v259q0 8 -6.5 14.5t-15.5 6.5h-79 q-9 0 -15 -6.5t-6 -14.5v-633q0 -9 6 -15.5t15 -6.5h79q9 0 15.5 6.5t6.5 15.5v258z" />
<glyph unicode="&#x405;" d="M34 0q-14 0 -24 10t-10 24v270h67v-237h12v249h-45q-14 0 -24 10t-10 24v316q0 14 10 24t24 10h79q14 0 23.5 -10t9.5 -24v-270h-67v237h-12v-249h46q14 0 23.5 -10t9.5 -24v-316q0 -14 -9.5 -24t-23.5 -10h-79zM12 34q0 -9 6.5 -15.5t15.5 -6.5h79q9 0 15 6.5t6 15.5 v316q0 9 -6 15.5t-15 6.5h-58v273h36v-237h43v258q0 9 -6 15.5t-15 6.5h-79q-9 0 -15.5 -6.5t-6.5 -15.5v-316q0 -9 6.5 -15.5t15.5 -6.5h57v-273h-36v237h-43v-258z" />
<glyph unicode="&#x406;" horiz-adv-x="237" d="M12 688v-320h43v277h36v-590h-36v277h-43v-320h201v320h-43v-277h-36v590h36v-277h43v320h-201zM225 356h-67v277h-12v-566h12v277h67v-344h-225v344h67v-277h12v566h-12v-277h-67v344h225v-344z" />
<glyph unicode="&#x407;" horiz-adv-x="237" d="M12 530v-241h43v198h36v-432h-36v198h-43v-241h201v241h-43v-198h-36v432h36v-198h43v241h-201zM225 277h-67v198h-12v-408h12v198h67v-265h-225v265h67v-198h12v408h-12v-198h-67v265h225v-265zM130 688v-122h43v122h-43zM51 688v-122h43v122h-43zM185 554h-67v146h67 v-146zM106 554h-67v146h67v-146z" />
<glyph unicode="&#x408;" d="M12 688v-122h43v79h36v-590h-36v277h-43v-298q0 -9 6.5 -15.5t15.5 -6.5h79q9 0 15 6.5t6 15.5v654h-122zM146 34q0 -14 -9.5 -24t-23.5 -10h-79q-14 0 -24 10t-10 24v310h67v-277h12v566h-12v-79h-67v146h146v-666z" />
<glyph unicode="&#x409;" horiz-adv-x="316" d="M249 487v-432h-36v432h36zM237 475h-12v-408h12v408zM304 33q0 -14 -9.5 -23.5t-23.5 -9.5h-79q-14 0 -24 9.5t-10 23.5v600h-12v-600q0 -14 -9.5 -23.5t-23.5 -9.5h-80q-14 0 -23.5 9.5t-9.5 23.5v311h67v-277h12v566h-12v-79h-67v146h225v-158h46q14 0 23.5 -10 t9.5 -24v-475zM170 33q0 -8 6.5 -14.5t15.5 -6.5h79q9 0 15 6.5t6 14.5v475q0 9 -6 15.5t-15 6.5h-58v158h-201v-122h43v79h36v-590h-36v277h-43v-299q0 -8 6.5 -14.5t14.5 -6.5h80q8 0 14.5 6.5t6.5 14.5v612h36v-612z" />
<glyph unicode="&#x40a;" horiz-adv-x="237" d="M225 33q0 -14 -9.5 -23.5t-23.5 -9.5h-113v316h-12v-316h-67v700h67v-317h12v317h67v-237h46q14 0 23.5 -10t9.5 -24v-396zM91 328v-316h101q9 0 15 6.5t6 14.5v396q0 9 -6 15.5t-15 6.5h-58v237h-43v-317h-36v317h-43v-676h43v316h36zM134 55v353h36v-353h-36zM146 67 h12v329h-12v-329z" />
<glyph unicode="&#x40b;" horiz-adv-x="237" d="M79 0v633h-12v-158h-67v225h225v-225h-67v158h-12v-170h46q14 0 23.5 -10t9.5 -24v-429h-67v396h-12v-396h-67zM91 645v-633h43v396h36v-396h43v417q0 9 -6 15.5t-15 6.5h-58v194h36v-158h43v201h-201v-201h43v158h36z" />
<glyph unicode="&#x40c;" d="M134 530v-218q0 -9 -6.5 -15.5t-15.5 -6.5h-57v-36h57q9 0 15.5 -6.5t6.5 -15.5v-220h-43v199h-36v-199h-43v518h43v-197h36v197h43zM146 542h-67v-197h-12v197h-67v-542h67v199h12v-199h67v232q0 14 -10 24t-24 10h-45v12h45q14 0 24 10t10 24v230zM146 700v-113 q0 -14 -10 -23.5t-24 -9.5h-112v67h79v79h67zM12 609v-43h100q9 0 15.5 6t6.5 15v101h-43v-79h-79z" />
<glyph unicode="&#x40d;" horiz-adv-x="237" d="M170 530v-463v-12h-36v453q0 9 -6 15.5t-15 6.5h-101v-518h44v475h36v-453q0 -9 6 -15.5t15 -6.5h100v518h-43zM225 0h-112q-14 0 -23.5 10t-9.5 24v441h-12v-475h-68v542h113q14 0 24 -10t10 -24v-441h11v475h67v-542zM107 700v-79h79v-67h-112q-14 0 -24 9.5t-10 23.5 v113h67zM95 609v79h-43v-101q0 -9 6.5 -15t15.5 -6h100v43h-79z" />
<glyph unicode="&#x40e;" d="M67 304h12v238h67v-509q0 -14 -9.5 -23.5t-23.5 -9.5h-80q-14 0 -23.5 9.5t-9.5 23.5v192h67v-158h12v170h-46q-14 0 -23.5 10t-9.5 24v271h67v-238zM55 292v238h-43v-259q0 -9 6.5 -15.5t14.5 -6.5h58v-194h-36v158h-43v-180q0 -9 6.5 -15t14.5 -6h80q8 0 14.5 6t6.5 15 v497h-43v-238h-36zM33 553q-14 0 -23.5 10t-9.5 24v113h67v-80h12v80h67v-113q0 -14 -9.5 -24t-23.5 -10h-80zM12 587q0 -9 6.5 -15.5t14.5 -6.5h80q8 0 14.5 6.5t6.5 15.5v101h-43v-80h-36v80h-43v-101z" />
<glyph unicode="&#x40f;" d="M79 700h67v-700h-39v-79h-67v79h-40v700h67v-633h12v633zM91 55h-36v633h-43v-676h40v-79h43v79h39v676h-43v-633z" />
<glyph unicode="&#x410;" d="M33 688q-9 0 -15 -6.5t-6 -15.5v-654h43v316h36v-316h43v654q0 9 -6.5 15.5t-15.5 6.5h-79zM55 645h36v-273h-36v273zM112 700q14 0 24 -10t10 -24v-666h-67v316h-12v-316h-67v666q0 14 9.5 24t23.5 10h79zM79 384v249h-12v-249h12z" />
<glyph unicode="&#x411;" d="M146 33q0 -14 -9.5 -23.5t-23.5 -9.5h-80q-14 0 -23.5 9.5t-9.5 23.5v633q0 14 9.5 24t23.5 10h113v-67h-79v-91h46q14 0 23.5 -10t9.5 -24v-475zM134 508q0 9 -6.5 15.5t-14.5 6.5h-58v115h79v43h-101q-8 0 -14.5 -6.5t-6.5 -15.5v-633q0 -8 6.5 -14.5t14.5 -6.5h80 q8 0 14.5 6.5t6.5 14.5v475zM91 487v-432h-36v432h36zM79 475h-12v-408h12v408z" />
<glyph unicode="&#x412;" d="M13 688v-676h100q9 0 15.5 6.5t6.5 15.5v276q0 9 -6.5 15.5t-15.5 6.5h-57v36h57q9 0 15.5 6.5t6.5 15.5v276q0 9 -6.5 15.5t-15.5 6.5h-100zM56 645h36v-234h-36v234zM56 289h36v-234h-36v234zM113 700q14 0 24 -10t10 -24v-276q0 -14 -10 -24t-24 -10h-45v-12h45 q14 0 24 -10t10 -24v-276q0 -14 -10 -24t-24 -10h-112v700h112zM80 423v210h-12v-210h12zM80 67v210h-12v-210h12z" />
<glyph unicode="&#x413;" d="M146 633h-79v-633h-67v700h146v-67zM134 688h-122v-676h43v633h79v43z" />
<glyph unicode="&#x414;" horiz-adv-x="237" d="M158 -79v79h-91v-79h-67v115l40 238v426h146v-633h6q14 0 23.5 -9.5t9.5 -23.5v-113h-67zM170 -67h43v101q0 8 -6 14.5t-15 6.5h-18v633h-122v-415l-40 -235v-105h43v79h115v-79zM131 55h-72q13 80 20.5 124t11 64t4 24l0.5 4v374h36v-590zM119 633h-12v-362 q0 -1 -0.5 -4.5t-4 -23t-10.5 -60.5t-19 -116h46v566z" />
<glyph unicode="&#x415;" d="M12 688v-676h122v280h-43v-237h-36v273h79v44h-79v273h36v-237h43v280h-122zM146 396h-67v237h-12v-249h79v-68h-79v-249h12v237h67v-304h-146v700h146v-304z" />
<glyph unicode="&#x416;" horiz-adv-x="237" d="M158 277h-12v-277h-67v277h-12v-277h-67v310q0 14 9.5 24t23.5 10h46v12h-46q-14 0 -23.5 10t-9.5 24v310h67v-277h12v277h67v-277h12v277h67v-310q0 -14 -10 -24t-24 -10h-45v-12h45q14 0 24 -10t10 -24v-310h-67v277zM170 12h43v298q0 9 -6.5 15.5t-15.5 6.5h-57v36h57 q9 0 15.5 6.5t6.5 15.5v298h-43v-277h-36v277h-43v-277h-36v277h-43v-298q0 -9 6 -15.5t15 -6.5h58v-36h-58q-9 0 -15 -6.5t-6 -15.5v-298h43v277h36v-277h43v277h36v-277z" />
<glyph unicode="&#x417;" d="M0 304h67v-237h12v250h-79v67h79v249h-12v-237h-67v271q0 14 10 23.5t24 9.5h79q14 0 23.5 -9.5t9.5 -23.5v-633q0 -14 -9.5 -24t-23.5 -10h-79q-14 0 -24 10t-10 24v270zM12 34q0 -9 6.5 -15.5t15.5 -6.5h79q9 0 15 6.5t6 15.5v633q0 8 -6 14.5t-15 6.5h-79 q-9 0 -15.5 -6.5t-6.5 -14.5v-259h43v237h36v-273h-79v-43h79v-274h-36v237h-43v-258z" />
<glyph unicode="&#x418;" horiz-adv-x="237" d="M55.0107 688v-621v-12h35.9971v611q0 9 6 15.5t14.999 6.5h100.994v-676h-43.9971v633h-35.998v-611q0 -9 -6 -15.5t-14.999 -6.5h-99.9941v676h42.998zM0.0136719 0h111.993q13.999 0 23.499 10q9.49902 10 9.49902 24v599h11.999v-633h67.9961v700h-112.993 q-13.999 0 -23.498 -10q-9.5 -10 -9.5 -24v-599h-11.999v633h-66.9961v-700z" />
<glyph unicode="&#x419;" horiz-adv-x="237" d="M170 530v-463v-12h-36v453q0 9 -6 15.5t-15 6.5h-101v-518h44v475h36v-453q0 -9 6 -15.5t15 -6.5h100v518h-43zM225 0h-112q-14 0 -23.5 10t-9.5 24v441h-12v-475h-68v542h113q14 0 24 -10t10 -24v-441h11v475h67v-542zM73 553q-14 0 -23.5 10t-9.5 24v113h67v-80h12v80 h67v-113q0 -14 -9.5 -24t-23.5 -10h-80zM52 587q0 -9 6.5 -15.5t14.5 -6.5h80q8 0 14.5 6.5t6.5 15.5v101h-43v-80h-36v80h-43v-101z" />
<glyph unicode="&#x41a;" d="M91 688v-277h-36v277h-43v-676h43v277h36v-277h43v298q0 9 -6.5 15.5t-15.5 6.5h-57v36h57q9 0 15.5 6.5t6.5 15.5v298h-43zM146 390q0 -14 -10 -24t-24 -10h-45v-12h45q14 0 24 -10t10 -24v-310h-67v277h-12v-277h-67v700h67v-277h12v277h67v-310z" />
<glyph unicode="&#x41b;" horiz-adv-x="198" d="M119 0v633h-12v-600q0 -14 -10 -23.5t-24 -9.5h-73v67h40v633h146v-700h-67zM131 12h43v676h-122v-633h-40v-43h61q9 0 15.5 6.5t6.5 14.5v612h36v-633z" />
<glyph unicode="&#x41c;" horiz-adv-x="237" d="M225 666v-666h-67v633h-12v-633h-67v633h-12v-633h-67v700h192q14 0 23.5 -10t9.5 -24zM12 12h43v633h36v-633h43v633h36v-633h43v654q0 9 -6 15.5t-15 6.5h-180v-676z" />
<glyph unicode="&#x41d;" d="M91 688v-316h-36v316h-43v-676h43v316h36v-316h43v676h-43zM146 0h-67v316h-12v-316h-67v700h67v-316h12v316h67v-700z" />
<glyph unicode="&#x41e;" d="M34 688q-9 0 -15.5 -6.5t-6.5 -15.5v-633q0 -9 6.5 -15t15.5 -6h79q9 0 15 6t6 15v633q0 9 -6 15.5t-15 6.5h-79zM55 644h36v-590h-36v590zM113 700q14 0 23.5 -10t9.5 -24v-633q0 -14 -9.5 -23.5t-23.5 -9.5h-79q-14 0 -24 9.5t-10 23.5v633q0 14 10 24t24 10h79zM79 66 v566h-12v-566h12z" />
<glyph unicode="&#x41f;" d="M79 0v633h-12v-633h-67v700h146v-700h-67zM91 12h43v676h-122v-676h43v633h36v-633z" />
<glyph unicode="&#x420;" d="M67 0h-67v700h113q14 0 23.5 -10t9.5 -24v-316q0 -14 -9.5 -24t-23.5 -10h-46v-316zM55 328h58q9 0 15 6.5t6 15.5v316q0 9 -6 15.5t-15 6.5h-101v-676h43v316zM55 372v273h36v-273h-36zM67 384h12v249h-12v-249z" />
<glyph unicode="&#x421;" d="M34 688q-9 0 -15.5 -6.5t-6.5 -15.5v-632q0 -9 6.5 -15.5t15.5 -6.5h79q9 0 15 6.5t6 15.5v298h-43v-277h-36v590h36v-277h43v298q0 9 -6 15.5t-15 6.5h-79zM113 700q14 0 23.5 -10t9.5 -24v-310h-67v277h-12v-566h12v277h67v-310q0 -14 -9.5 -24t-23.5 -10h-79 q-14 0 -24 10t-10 24v632q0 14 10 24t24 10h79z" />
<glyph unicode="&#x422;" horiz-adv-x="237" d="M67 356h-67v344h225v-344h-67v277h-12v-633h-67v633h-12v-277zM55 645h36v-633h43v633h36v-277h43v320h-201v-320h43v277z" />
<glyph unicode="&#x423;" d="M67 304h12v396h67v-667q0 -14 -9.5 -23.5t-23.5 -9.5h-80q-14 0 -23.5 9.5t-9.5 23.5v192h67v-158h12v170h-46q-14 0 -23.5 10t-9.5 24v429h67v-396zM55 292v396h-43v-417q0 -9 6.5 -15.5t14.5 -6.5h58v-194h-36v158h-43v-180q0 -9 6.5 -15t14.5 -6h80q8 0 14.5 6t6.5 15 v655h-43v-396h-36z" />
<glyph unicode="&#x424;" horiz-adv-x="237" d="M55 134v432h36v-432h-36zM67 146h12v408h-12v-408zM134 134v432h36v-432h-36zM146 146h12v408h-12v-408zM0 587q0 14 9.5 24t23.5 10h46v79h67v-79h46q14 0 23.5 -10t9.5 -24v-474q0 -14 -9.5 -24t-23.5 -10h-46v-79h-67v79h-46q-14 0 -23.5 10t-9.5 24v474zM12 113 q0 -9 6.5 -15.5t14.5 -6.5h58v-79h43v79h58q9 0 15 6.5t6 15.5v474q0 9 -6 15.5t-15 6.5h-58v79h-43v-79h-58q-8 0 -14.5 -6.5t-6.5 -15.5v-474z" />
<glyph unicode="&#x425;" d="M67 0h-67v310q0 14 10 24t24 10h6v12h-6q-14 0 -24 9.5t-10 23.5v311h67v-278h12v278h67v-311q0 -14 -9.5 -23.5t-23.5 -9.5h-7v-12h7q14 0 23.5 -10t9.5 -24v-310h-67v276h-12v-276zM55 288h36v-276h43v298q0 9 -6 15.5t-15 6.5h-19v36h19q9 0 15 6t6 15v299h-43v-277 h-36v277h-43v-299q0 -9 6.5 -15t15.5 -6h18v-36h-18q-9 0 -15.5 -6.5t-6.5 -15.5v-298h43v276z" />
<glyph unicode="&#x426;" horiz-adv-x="198" d="M119 -79v79h-119v700h67v-633h12v633h67v-633h6q14 0 24 -9.5t10 -23.5v-113h-67zM131 12v-79h43v101q0 8 -6.5 14.5t-15.5 6.5h-18v633h-43v-633h-36v633h-43v-676h119z" />
<glyph unicode="&#x427;" d="M79 700h67v-700h-67v237h-45q-14 0 -24 10t-10 24v429h67v-396h12v396zM55 292v396h-43v-417q0 -9 6.5 -15.5t15.5 -6.5h57v-237h43v676h-43v-396h-36z" />
<glyph unicode="&#x428;" horiz-adv-x="237" d="M0 0v700h67v-633h12v633h67v-633h12v633h67v-700h-225zM12 12h201v676h-43v-633h-36v633h-43v-633h-36v633h-43v-676z" />
<glyph unicode="&#x429;" horiz-adv-x="277" d="M198 -79v79h-198v700h67v-633h12v633h67v-633h12v633h67v-633h6q14 0 24 -9.5t10 -23.5v-113h-67zM210 12v-79h43v101q0 8 -6.5 14.5t-15.5 6.5h-18v633h-43v-633h-36v633h-43v-633h-36v633h-43v-676h198z" />
<glyph unicode="&#x42a;" horiz-adv-x="198" d="M153 542q14 0 23.5 -10t9.5 -24v-474q0 -14 -9.5 -24t-23.5 -10h-113v633h-40v67h107v-158h46zM174 508q0 9 -6.5 15.5t-14.5 6.5h-58v158h-83v-43h40v-633h101q8 0 14.5 6.5t6.5 15.5v474zM131 55h-36v432h36v-432zM119 475h-12v-408h12v408z" />
<glyph unicode="&#x42b;" horiz-adv-x="237" d="M91 487v-432h-36v432h36zM79 475h-12v-408h12v408zM67 700v-158h46q14 0 23.5 -10t9.5 -24v-474q0 -14 -9.5 -24t-23.5 -10h-113v700h67zM55 530v158h-43v-676h101q9 0 15 6.5t6 15.5v474q0 9 -6 15.5t-15 6.5h-58zM225 0h-67v700h67v-700zM213 688h-43v-676h43v676z" />
<glyph unicode="&#x42c;" d="M91 487v-432h-36v432h36zM79 475h-12v-408h12v408zM67 700v-158h46q14 0 23.5 -10t9.5 -24v-474q0 -14 -9.5 -24t-23.5 -10h-113v700h67zM55 530v158h-43v-676h101q9 0 15 6.5t6 15.5v474q0 9 -6 15.5t-15 6.5h-58z" />
<glyph unicode="&#x42d;" d="M0.00878906 34q0 -14 9.99902 -24q10 -10 23.999 -10h78.9951q13.999 0 23.499 10q9.49902 10 9.49902 24v633q0 14 -9.49902 23.5q-9.5 9.5 -23.499 9.5h-78.9951q-13.999 0 -23.999 -9.5q-9.99902 -9.5 -9.99902 -23.5v-271h66.9961v237h11.999v-249h-78.9951v-67 h78.9951v-250h-11.999v237h-66.9961v-270zM12.0078 292h42.998v-237h35.9971v274h-78.9951v43h78.9951v273h-35.9971v-237h-42.998v259q0 8 6.5 14.5t15.499 6.5h78.9951q9 0 14.999 -6.5q6 -6.5 6 -14.5v-633q0 -9 -6 -15.5q-5.99902 -6.5 -14.999 -6.5h-78.9951 q-8.99902 0 -15.499 6.5t-6.5 15.5v258z" />
<glyph unicode="&#x42e;" horiz-adv-x="237" d="M192 700q14 0 23.5 -9.5t9.5 -23.5v-633q0 -14 -9.5 -24t-23.5 -10h-79q-14 0 -24 10t-10 24v283h-12v-317h-67v700h67v-316h12v283q0 14 10 23.5t24 9.5h79zM213 667q0 9 -6 15t-15 6h-79q-9 0 -15.5 -6t-6.5 -15v-295h-36v316h-43v-676h43v317h36v-295q0 -9 6.5 -15.5 t15.5 -6.5h79q9 0 15 6.5t6 15.5v633zM170 55h-36v590h36v-590zM158 633h-12v-566h12v566z" />
<glyph unicode="&#x42f;" d="M55.0059 645v-234h35.9971v234h-35.9971zM67.0049 633h11.999v-210h-11.999v210zM33.0068 700q-13.999 0 -23.498 -10q-9.5 -10 -9.5 -24v-276q0 -14 9.5 -24q9.49902 -10 23.498 -10h45.9971v-12h-45.9971q-13.999 0 -23.498 -10q-9.5 -10 -9.5 -24v-310h66.9961v277 h11.999v-277h66.9961v700h-112.993zM12.0078 666q0 9 6 15.5t14.999 6.5h100.994v-676h-42.998v277h-35.9971v-277h-42.998v298q0 9 6 15.5t14.999 6.5h45.9971h11.999v36h-57.9961q-8.99902 0 -14.999 6.5t-6 15.5v276z" />
<glyph unicode="&#x430;" d="M91 250v-194h-36v194h36zM79 238h-12v-170h12v170zM0 509q0 14 10 23.5t24 9.5h79q14 0 23.5 -9.5t9.5 -23.5v-509h-112q-14 0 -24 10t-10 24v237q0 14 10 24t24 10h45v170h-12v-158h-67v192zM12 329h43v158h36v-194h-57q-9 0 -15.5 -6.5t-6.5 -15.5v-237q0 -9 6.5 -15.5 t15.5 -6.5h100v497q0 9 -6 15t-15 6h-79q-9 0 -15.5 -6t-6.5 -15v-180z" />
<glyph unicode="&#x431;" d="M146 33q0 -14 -9.5 -23.5t-23.5 -9.5h-80q-14 0 -23.5 9.5t-9.5 23.5v633q0 14 9.5 24t23.5 10h113v-67h-79v-91h46q14 0 23.5 -10t9.5 -24v-475zM134 508q0 9 -6.5 15.5t-14.5 6.5h-58v115h79v43h-101q-8 0 -14.5 -6.5t-6.5 -15.5v-633q0 -8 6.5 -14.5t14.5 -6.5h80 q8 0 14.5 6.5t6.5 14.5v475zM91 487v-432h-36v432h36zM79 475h-12v-408h12v408z" />
<glyph unicode="&#x432;" d="M12 530v-518h100q9 0 15.5 6.5t6.5 15.5v197q0 9 -6.5 15.5t-15.5 6.5h-57v36h57q9 0 15.5 6.5t6.5 15.5v197q0 9 -6.5 15.5t-15.5 6.5h-100zM55 487h36v-155h-36v155zM55 210h36v-155h-36v155zM112 542q14 0 24 -10t10 -24v-197q0 -14 -10 -24t-24 -10h-45v-12h45 q14 0 24 -10t10 -24v-197q0 -14 -10 -24t-24 -10h-112v542h112zM79 344v131h-12v-131h12zM79 67v131h-12v-131h12z" />
<glyph unicode="&#x433;" d="M146 475h-79v-475h-67v542h146v-67zM134 530h-122v-518h43v475h79v43z" />
<glyph unicode="&#x434;" horiz-adv-x="237" d="M158 0h-91v-79h-67v113q0 1 0.5 5.5t4.5 27t12 70.5t23 137v268h146v-475h6q14 0 23.5 -10t9.5 -24v-112h-67v79zM170 -67h43v100q0 9 -6 15.5t-15 6.5h-18v475h-122v-257l-40 -235v-105h43v79h115v-79zM131 55h-72q13 80 20.5 123.5t11 64t4 24.5l0.5 4v216h36v-432z M119 475h-12v-204q0 -1 -0.5 -4.5t-4 -23t-10.5 -60.5t-19 -116h46v408z" />
<glyph unicode="&#x435;" d="M55 292v195h36v-195h-36zM67 304h12v171h-12v-171zM0 508q0 14 10 24t24 10h79q14 0 23.5 -10t9.5 -24v-271h-79v-170h12v158h67v-191q0 -14 -9.5 -24t-23.5 -10h-79q-14 0 -24 10t-10 24v474zM12 34q0 -9 6.5 -15.5t15.5 -6.5h79q9 0 15 6.5t6 15.5v179h-43v-158h-36 v194h79v259q0 9 -6 15.5t-15 6.5h-79q-9 0 -15.5 -6.5t-6.5 -15.5v-474z" />
<glyph unicode="&#x436;" horiz-adv-x="237" d="M158 198h-12v-198h-67v198h-12v-198h-67v231q0 14 9.5 24t23.5 10h46v12h-46q-14 0 -23.5 10t-9.5 24v231h67v-198h12v198h67v-198h12v198h67v-231q0 -14 -10 -24t-24 -10h-45v-12h45q14 0 24 -10t10 -24v-231h-67v198zM170 12h43v219q0 9 -6.5 15.5t-15.5 6.5h-57v36h57 q9 0 15.5 6.5t6.5 15.5v219h-43v-198h-36v198h-43v-198h-36v198h-43v-219q0 -9 6 -15.5t15 -6.5h58v-36h-58q-9 0 -15 -6.5t-6 -15.5v-219h43v198h36v-198h43v198h36v-198z" />
<glyph unicode="&#x437;" d="M0 225h67v-158h12v171h-79v67h79v170h-12v-158h-67v192q0 14 10 23.5t24 9.5h79q14 0 23.5 -9.5t9.5 -23.5v-475q0 -14 -9.5 -24t-23.5 -10h-79q-14 0 -24 10t-10 24v191zM12 34q0 -9 6.5 -15.5t15.5 -6.5h79q9 0 15 6.5t6 15.5v475q0 8 -6 14.5t-15 6.5h-79 q-9 0 -15.5 -6.5t-6.5 -14.5v-180h43v158h36v-194h-79v-43h79v-195h-36v158h-43v-179z" />
<glyph unicode="&#x438;" horiz-adv-x="237" d="M12 530v-518h100q9 0 15 6.5t6 15.5v453h36v-475h44v518h-101q-9 0 -15 -6.5t-6 -15.5v-453h-36v12v463h-43zM0 542h67v-475h11v441q0 14 10 24t24 10h113v-542h-68v475h-12v-441q0 -14 -9.5 -24t-23.5 -10h-112v542z" />
<glyph unicode="&#x439;" horiz-adv-x="237" d="M12 530v-518h100q9 0 15 6.5t6 15.5v453h36v-475h44v518h-101q-9 0 -15 -6.5t-6 -15.5v-453h-36v12v463h-43zM0 542h67v-475h11v441q0 14 10 24t24 10h113v-542h-68v475h-12v-441q0 -14 -9.5 -24t-23.5 -10h-112v542zM73 553q-14 0 -23.5 10t-9.5 24v113h67v-80h12v80h67 v-113q0 -14 -9.5 -24t-23.5 -10h-80zM52 587q0 -9 6.5 -15.5t14.5 -6.5h80q8 0 14.5 6.5t6.5 15.5v101h-43v-80h-36v80h-43v-101z" />
<glyph unicode="&#x43a;" d="M91 530v-197h-36v197h-43v-518h43v199h36v-199h43v220q0 9 -6.5 15.5t-15.5 6.5h-57v36h57q9 0 15.5 6.5t6.5 15.5v218h-43zM146 312q0 -14 -10 -24t-24 -10h-45v-12h45q14 0 24 -10t10 -24v-232h-67v199h-12v-199h-67v542h67v-197h12v197h67v-230z" />
<glyph unicode="&#x43b;" horiz-adv-x="198" d="M119 0v475h-12v-442q0 -14 -10 -23.5t-24 -9.5h-73v67h40v475h146v-542h-67zM131 12h43v518h-122v-475h-40v-43h61q9 0 15.5 6.5t6.5 14.5v454h36v-475z" />
<glyph unicode="&#x43c;" horiz-adv-x="237" d="M67 0h-67v542h192q14 0 23.5 -10t9.5 -24v-508h-67v475h-12v-475h-67v475h-12v-475zM55 487h36v-475h43v475h36v-475h43v496q0 9 -6.5 15.5t-14.5 6.5h-180v-518h43v475z" />
<glyph unicode="&#x43d;" d="M91 530v-238h-36v238h-43v-518h43v236h36v-236h43v518h-43zM146 0h-67v236h-12v-236h-67v542h67v-238h12v238h67v-542z" />
<glyph unicode="&#x43e;" d="M112 542q14 0 24 -10t10 -24v-474q0 -14 -10 -24t-24 -10h-79q-14 0 -23.5 10t-9.5 24v474q0 14 9.5 24t23.5 10h79zM134 508q0 9 -6.5 15.5t-15.5 6.5h-79q-9 0 -15 -6.5t-6 -15.5v-474q0 -9 6 -15.5t15 -6.5h79q9 0 15.5 6.5t6.5 15.5v474zM91 487v-432h-37v432h37z M79 475h-13v-408h13v408z" />
<glyph unicode="&#x43f;" d="M79 0v475h-12v-475h-67v542h146v-542h-67zM91 12h43v518h-122v-518h43v475h36v-475z" />
<glyph unicode="&#x440;" d="M55 55v432h36v-432h-36zM79 475h-12v-408h12v408zM0 -158v700h113q14 0 23.5 -10t9.5 -24v-474q0 -14 -9.5 -24t-23.5 -10h-46v-158h-67zM113 12q9 0 15 6.5t6 15.5v474q0 9 -6 15.5t-15 6.5h-101v-676h43v158h58z" />
<glyph unicode="&#x441;" d="M0 508q0 14 10 24t24 10h79q14 0 23.5 -10t9.5 -24v-231h-67v198h-12v-408h12v198h67v-231q0 -14 -9.5 -24t-23.5 -10h-79q-14 0 -24 10t-10 24v474zM12 34q0 -9 6.5 -15.5t15.5 -6.5h79q9 0 15 6.5t6 15.5v219h-43v-198h-36v432h36v-198h43v219q0 9 -6 15.5t-15 6.5h-79 q-9 0 -15.5 -6.5t-6.5 -15.5v-474z" />
<glyph unicode="&#x442;" horiz-adv-x="237" d="M67 277h-67v265h225v-265h-67v198h-12v-475h-67v475h-12v-198zM55 487h36v-475h43v475h36v-198h43v241h-201v-241h43v198z" />
<glyph unicode="&#x443;" d="M67 67h12v475h67v-667q0 -14 -9.5 -23.5t-23.5 -9.5h-80q-14 0 -23.5 9.5t-9.5 23.5v113h67v-79h12v91h-46q-14 0 -23.5 10t-9.5 24v508h67v-475zM55 55v475h-43v-496q0 -9 6.5 -15.5t14.5 -6.5h58v-115h-36v79h-43v-101q0 -9 6.5 -15t14.5 -6h80q8 0 14.5 6t6.5 15v655 h-43v-475h-36z" />
<glyph unicode="&#x444;" horiz-adv-x="237" d="M55 55v432h36v-432h-36zM67 67h12v408h-12v-408zM134 55v432h36v-432h-36zM146 67h12v408h-12v-408zM0 508q0 14 9.5 24t23.5 10h46v158h67v-158h46q14 0 23.5 -10t9.5 -24v-474q0 -14 -9.5 -24t-23.5 -10h-46v-158h-67v158h-46q-14 0 -23.5 10t-9.5 24v474zM12 34 q0 -9 6.5 -15.5t14.5 -6.5h58v-158h43v158h58q9 0 15 6.5t6 15.5v474q0 9 -6 15.5t-15 6.5h-58v158h-43v-158h-58q-8 0 -14.5 -6.5t-6.5 -15.5v-474z" />
<glyph unicode="&#x445;" d="M67 0h-67v232q0 14 10 24t24 10h6v12h-6q-14 0 -24 9.5t-10 23.5v231h67v-198h12v198h67v-231q0 -14 -9.5 -23.5t-23.5 -9.5h-7v-12h7q14 0 23.5 -10t9.5 -24v-232h-67v198h-12v-198zM55 210h36v-198h43v220q0 9 -6 15.5t-15 6.5h-19v36h19q9 0 15 6t6 15v219h-43v-197 h-36v197h-43v-219q0 -9 6.5 -15t15.5 -6h18v-36h-18q-9 0 -15.5 -6.5t-6.5 -15.5v-220h43v198z" />
<glyph unicode="&#x446;" horiz-adv-x="198" d="M119 -79v79h-119v542h67v-475h12v475h67v-475h6q14 0 24 -9.5t10 -23.5v-113h-67zM131 12v-79h43v101q0 8 -6.5 14.5t-15.5 6.5h-18v475h-43v-475h-36v475h-43v-518h119z" />
<glyph unicode="&#x447;" d="M79 542h67v-542h-67v237h-45q-14 0 -24 10t-10 24v271h67v-238h12v238zM55 292v238h-43v-259q0 -9 6.5 -15.5t15.5 -6.5h57v-237h43v518h-43v-238h-36z" />
<glyph unicode="&#x448;" horiz-adv-x="237" d="M0 0v542h67v-475h12v475h67v-475h12v475h67v-542h-225zM12 12h201v518h-43v-475h-36v475h-43v-475h-36v475h-43v-518z" />
<glyph unicode="&#x449;" horiz-adv-x="277" d="M198 -79v79h-198v542h67v-475h12v475h67v-475h12v475h67v-475h6q14 0 24 -9.5t10 -23.5v-113h-67zM210 12v-79h43v101q0 8 -6.5 14.5t-15.5 6.5h-18v475h-43v-475h-36v475h-43v-475h-36v475h-43v-518h198z" />
<glyph unicode="&#x44a;" horiz-adv-x="198" d="M153 384q14 0 23.5 -10t9.5 -24v-316q0 -14 -9.5 -24t-23.5 -10h-113v475h-40v67h107v-158h46zM174 350q0 9 -6.5 15.5t-14.5 6.5h-58v158h-83v-43h40v-475h101q8 0 14.5 6.5t6.5 15.5v316zM131 55h-36v274h36v-274zM119 317h-12v-250h12v250z" />
<glyph unicode="&#x44b;" horiz-adv-x="237" d="M225 0h-67v542h67v-542zM213 530h-43v-518h43v518zM91 329v-274h-36v274h36zM79 317h-12v-250h12v250zM67 542v-158h46q14 0 23.5 -10t9.5 -24v-316q0 -14 -9.5 -24t-23.5 -10h-113v542h67zM55 372v158h-43v-518h101q9 0 15 6.5t6 15.5v316q0 9 -6 15.5t-15 6.5h-58z" />
<glyph unicode="&#x44c;" d="M91 329v-274h-36v274h36zM79 317h-12v-250h12v250zM67 542v-158h46q14 0 23.5 -10t9.5 -24v-316q0 -14 -9.5 -24t-23.5 -10h-113v542h67zM55 372v158h-43v-518h101q9 0 15 6.5t6 15.5v316q0 9 -6 15.5t-15 6.5h-58z" />
<glyph unicode="&#x44d;" d="M0 225h67v-158h12v171h-79v67h79v170h-12v-158h-67v192q0 14 10 23.5t24 9.5h79q14 0 23.5 -9.5t9.5 -23.5v-475q0 -14 -9.5 -24t-23.5 -10h-79q-14 0 -24 10t-10 24v191zM12 34q0 -9 6.5 -15.5t15.5 -6.5h79q9 0 15 6.5t6 15.5v475q0 8 -6 14.5t-15 6.5h-79 q-9 0 -15.5 -6.5t-6.5 -14.5v-180h43v158h36v-194h-79v-43h79v-195h-36v158h-43v-179z" />
<glyph unicode="&#x44e;" horiz-adv-x="237" d="M192 542q14 0 23.5 -9.5t9.5 -23.5v-475q0 -14 -9.5 -24t-23.5 -10h-79q-14 0 -24 10t-10 24v203h-12v-237h-67v542h67v-238h12v205q0 14 10 23.5t24 9.5h79zM213 509q0 9 -6 15t-15 6h-79q-9 0 -15.5 -6t-6.5 -15v-217h-36v238h-43v-518h43v237h36v-215q0 -9 6.5 -15.5 t15.5 -6.5h79q9 0 15 6.5t6 15.5v475zM170 55h-36v432h36v-432zM158 475h-12v-408h12v408z" />
<glyph unicode="&#x44f;" d="M91 487v-155h-36v155h36zM67 344h12v131h-12v-131zM146 542v-542h-67v198h-12v-198h-67v231q0 14 9.5 24t23.5 10h46v12h-46q-14 0 -23.5 10t-9.5 24v197q0 14 9.5 24t23.5 10h113zM12 311q0 -9 6 -15.5t15 -6.5h58v-36h-12h-46q-9 0 -15 -6.5t-6 -15.5v-219h43v198h36 v-198h43v518h-101q-9 0 -15 -6.5t-6 -15.5v-197z" />
<glyph unicode="&#x450;" d="M55 292v195h36v-195h-36zM67 304h12v171h-12v-171zM0 508q0 14 10 24t24 10h79q14 0 23.5 -10t9.5 -24v-271h-79v-170h12v158h67v-191q0 -14 -9.5 -24t-23.5 -10h-79q-14 0 -24 10t-10 24v474zM12 34q0 -9 6.5 -15.5t15.5 -6.5h79q9 0 15 6.5t6 15.5v179h-43v-158h-36 v194h79v259q0 9 -6 15.5t-15 6.5h-79q-9 0 -15.5 -6.5t-6.5 -15.5v-474zM67 700v-79h79v-67h-112q-14 0 -24 9.5t-10 23.5v113h67zM55 609v79h-43v-101q0 -9 6.5 -15t15.5 -6h100v43h-79z" />
<glyph unicode="&#x451;" d="M55 292v195h36v-195h-36zM67 304h12v171h-12v-171zM0 508q0 14 10 24t24 10h79q14 0 23.5 -10t9.5 -24v-271h-79v-170h12v158h67v-191q0 -14 -9.5 -24t-23.5 -10h-79q-14 0 -24 10t-10 24v474zM12 34q0 -9 6.5 -15.5t15.5 -6.5h79q9 0 15 6.5t6 15.5v179h-43v-158h-36 v194h79v259q0 9 -6 15.5t-15 6.5h-79q-9 0 -15.5 -6.5t-6.5 -15.5v-474zM91 688v-122h43v122h-43zM12 688v-122h43v122h-43zM146 554h-67v146h67v-146zM67 554h-67v146h67v-146z" />
<glyph unicode="&#x452;" horiz-adv-x="198" d="M152 463q14 0 24 -9.5t10 -23.5v-475q0 -14 -10 -24t-24 -10h-73v67h40v408h-12v-396h-67v475h-40v67h40v158h67v-158h39v-67h-39v-12h45zM174 430q0 9 -6.5 15t-15.5 6h-57v36h39v43h-39v158h-43v-158h-40v-43h40v-475h43v396h36v-432h-40v-43h61q9 0 15.5 6.5t6.5 15.5 v475z" />
<glyph unicode="&#x453;" d="M146 475h-79v-475h-67v542h146v-67zM134 530h-122v-518h43v475h79v43zM146 700v-113q0 -14 -10 -23.5t-24 -9.5h-112v67h79v79h67zM12 609v-43h100q9 0 15.5 6t6.5 15v101h-43v-79h-79z" />
<glyph unicode="&#x454;" d="M146 34q0 -14 -10 -24t-24 -10h-79q-14 0 -23.5 10t-9.5 24v475q0 14 9.5 23.5t23.5 9.5h79q14 0 24 -9.5t10 -23.5v-192h-67v158h-12v-170h79v-67h-79v-171h12v158h67v-191zM134 213h-43v-158h-36v195h79v43h-79v194h36v-158h43v180q0 8 -6.5 14.5t-15.5 6.5h-79 q-9 0 -15 -6.5t-6 -14.5v-475q0 -9 6 -15.5t15 -6.5h79q9 0 15.5 6.5t6.5 15.5v179z" />
<glyph unicode="&#x455;" d="M33 0q-14 0 -23.5 10t-9.5 24v191h67v-158h12v170h-46q-14 0 -23.5 10t-9.5 24v237q0 14 9.5 24t23.5 10h80q14 0 23.5 -10t9.5 -24v-192h-67v159h-12v-171h46q14 0 23.5 -9.5t9.5 -23.5v-237q0 -14 -9.5 -24t-23.5 -10h-80zM12 34q0 -9 6.5 -15.5t14.5 -6.5h80 q8 0 14.5 6.5t6.5 15.5v237q0 9 -6.5 15t-14.5 6h-58v195h36v-159h43v180q0 9 -6.5 15.5t-14.5 6.5h-80q-8 0 -14.5 -6.5t-6.5 -15.5v-237q0 -9 6.5 -15.5t14.5 -6.5h58v-194h-36v158h-43v-179z" />
<glyph unicode="&#x456;" horiz-adv-x="79" d="M67 0h-67v542h67v-542zM55 530h-43v-518h43v518zM67 554h-67v146h67v-146zM55 688h-43v-122h43v122z" />
<glyph unicode="&#x457;" d="M107 0h-67v542h67v-542zM95 530h-43v-518h43v518zM91 688v-122h43v122h-43zM12 688v-122h43v122h-43zM146 554h-67v146h67v-146zM67 554h-67v146h67v-146z" />
<glyph unicode="&#x458;" horiz-adv-x="79" d="M-45 -158q-14 0 -24 9.5t-10 23.5v113h67v-79h12v633h67v-667q0 -14 -9.5 -23.5t-23.5 -9.5h-79zM-67 -125q0 -9 6.5 -15t15.5 -6h79q9 0 15 6t6 15v655h-43v-633h-36v79h-43v-101zM0 700h67v-146h-67v146zM12 566h43v122h-43v-122z" />
<glyph unicode="&#x459;" horiz-adv-x="277" d="M231 384q14 0 24 -9.5t10 -23.5v-318q0 -14 -10 -23.5t-24 -9.5h-112v475h-12v-442q0 -14 -10 -23.5t-24 -9.5h-73v67h40v475h146v-158h45zM253 351q0 8 -6.5 14.5t-15.5 6.5h-57v158h-122v-475h-40v-43h61q9 0 15.5 6.5t6.5 14.5v454h36v-475h100q9 0 15.5 6.5t6.5 14.5 v318zM210 55h-36v274h36v-274zM198 317h-12v-250h12v250z" />
<glyph unicode="&#x45a;" horiz-adv-x="237" d="M225 33q0 -14 -9.5 -23.5t-23.5 -9.5h-113v237h-12v-237h-67v542h67v-238h12v238h67v-158h46q14 0 23.5 -10t9.5 -24v-317zM91 249v-237h101q9 0 15 6.5t6 14.5v317q0 9 -6 15.5t-15 6.5h-58v158h-43v-238h-36v238h-43v-518h43v237h36zM134 55v274h36v-274h-36zM146 67 h12v250h-12v-250z" />
<glyph unicode="&#x45b;" horiz-adv-x="198" d="M107 554v-12h46q14 0 23.5 -10t9.5 -24v-508h-67v475h-12v-475h-67v554h-40v67h40v79h67v-79h40v-67h-40zM95 530v36h40v43h-40v79h-43v-79h-40v-43h40v-554h43v475h36v-475h43v496q0 9 -6 15.5t-15 6.5h-58z" />
<glyph unicode="&#x45c;" d="M91 530v-197h-36v197h-43v-518h43v199h36v-199h43v220q0 9 -6.5 15.5t-15.5 6.5h-57v36h57q9 0 15.5 6.5t6.5 15.5v218h-43zM146 312q0 -14 -10 -24t-24 -10h-45v-12h45q14 0 24 -10t10 -24v-232h-67v199h-12v-199h-67v542h67v-197h12v197h67v-230zM146 700v-113 q0 -14 -10 -23.5t-24 -9.5h-112v67h79v79h67zM12 609v-43h100q9 0 15.5 6t6.5 15v101h-43v-79h-79z" />
<glyph unicode="&#x45d;" horiz-adv-x="237" d="M12 530v-518h100q9 0 15 6.5t6 15.5v453h36v-475h44v518h-101q-9 0 -15 -6.5t-6 -15.5v-453h-36v12v463h-43zM0 542h67v-475h11v441q0 14 10 24t24 10h113v-542h-68v475h-12v-441q0 -14 -9.5 -24t-23.5 -10h-112v542zM107 700v-79h79v-67h-112q-14 0 -24 9.5t-10 23.5 v113h67zM95 609v79h-43v-101q0 -9 6.5 -15t15.5 -6h100v43h-79z" />
<glyph unicode="&#x45e;" d="M67 67h12v475h67v-667q0 -14 -9.5 -23.5t-23.5 -9.5h-80q-14 0 -23.5 9.5t-9.5 23.5v113h67v-79h12v91h-46q-14 0 -23.5 10t-9.5 24v508h67v-475zM55 55v475h-43v-496q0 -9 6.5 -15.5t14.5 -6.5h58v-115h-36v79h-43v-101q0 -9 6.5 -15t14.5 -6h80q8 0 14.5 6t6.5 15v655 h-43v-475h-36zM33 553q-14 0 -23.5 10t-9.5 24v113h67v-80h12v80h67v-113q0 -14 -9.5 -24t-23.5 -10h-80zM12 587q0 -9 6.5 -15.5t14.5 -6.5h80q8 0 14.5 6.5t6.5 15.5v101h-43v-80h-36v80h-43v-101z" />
<glyph unicode="&#x45f;" d="M79 542h67v-542h-39v-79h-67v79h-40v542h67v-475h12v475zM91 55h-36v475h-43v-518h40v-79h43v79h39v518h-43v-475z" />
<glyph unicode="&#x490;" d="M79 779h67v-106h-79v-673h-67v740h79v39zM12 728v-716h43v673h79v82h-43v-39h-79z" />
<glyph unicode="&#x491;" d="M79 581h67v-106h-79v-475h-67v542h79v39zM12 530v-518h43v475h79v82h-43v-39h-79z" />
<glyph unicode="&#x1e80;" horiz-adv-x="237" d="M107 700v-79h79v-67h-112q-14 0 -24 9.5t-10 23.5v113h67zM95 609v79h-43v-101q0 -9 6.5 -15t15.5 -6h100v43h-79zM225 34q0 -14 -9.5 -24t-23.5 -10h-192v542h67v-475h12v475h67v-475h12v475h67v-508zM12 12h180q9 0 15 6.5t6 15.5v496h-43v-475h-36v475h-43v-475h-36 v475h-43v-518z" />
<glyph unicode="&#x1e81;" horiz-adv-x="237" d="M225 34q0 -14 -9.5 -24t-23.5 -10h-192v542h67v-475h12v475h67v-475h12v475h67v-508zM12 12h180q9 0 15 6.5t6 15.5v496h-43v-475h-36v475h-43v-475h-36v475h-43v-518zM107 700v-79h79v-67h-112q-14 0 -24 9.5t-10 23.5v113h67zM95 609v79h-43v-101q0 -9 6.5 -15t15.5 -6 h100v43h-79z" />
<glyph unicode="&#x1e82;" horiz-adv-x="237" d="M186 700v-113q0 -14 -10 -23.5t-24 -9.5h-112v67h79v79h67zM52 609v-43h100q9 0 15.5 6t6.5 15v101h-43v-79h-79zM225 34q0 -14 -9.5 -24t-23.5 -10h-192v542h67v-475h12v475h67v-475h12v475h67v-508zM12 12h180q9 0 15 6.5t6 15.5v496h-43v-475h-36v475h-43v-475h-36 v475h-43v-518z" />
<glyph unicode="&#x1e83;" horiz-adv-x="237" d="M225 34q0 -14 -9.5 -24t-23.5 -10h-192v542h67v-475h12v475h67v-475h12v475h67v-508zM12 12h180q9 0 15 6.5t6 15.5v496h-43v-475h-36v475h-43v-475h-36v475h-43v-518zM186 700v-113q0 -14 -10 -23.5t-24 -9.5h-112v67h79v79h67zM52 609v-43h100q9 0 15.5 6t6.5 15v101 h-43v-79h-79z" />
<glyph unicode="&#x1e84;" horiz-adv-x="237" d="M131 688v-122h43v122h-43zM52 688v-122h43v122h-43zM186 554h-67v146h67v-146zM107 554h-67v146h67v-146zM225 34q0 -14 -9.5 -24t-23.5 -10h-192v542h67v-475h12v475h67v-475h12v475h67v-508zM12 12h180q9 0 15 6.5t6 15.5v496h-43v-475h-36v475h-43v-475h-36v475h-43 v-518z" />
<glyph unicode="&#x1e85;" horiz-adv-x="237" d="M225 34q0 -14 -9.5 -24t-23.5 -10h-192v542h67v-475h12v475h67v-475h12v475h67v-508zM12 12h180q9 0 15 6.5t6 15.5v496h-43v-475h-36v475h-43v-475h-36v475h-43v-518zM131 688v-122h43v122h-43zM52 688v-122h43v122h-43zM186 554h-67v146h67v-146zM107 554h-67v146h67 v-146z" />
<glyph unicode="&#x1ef2;" d="M34 237q-14 0 -24 9.5t-10 23.5v272h67v-238h12v238h67v-272q0 -14 -9.5 -23.5t-23.5 -9.5h-7v-237h-66v237h-6zM12 270q0 -8 6.5 -14.5t15.5 -6.5h18v-237h42v237h19q9 0 15 6.5t6 14.5v260h-43v-238h-36v238h-43v-260zM67 700v-79h79v-67h-112q-14 0 -24 9.5t-10 23.5 v113h67zM55 609v79h-43v-101q0 -9 6.5 -15t15.5 -6h100v43h-79z" />
<glyph unicode="&#x1ef3;" d="M67 67h12v475h67v-667q0 -14 -9.5 -23.5t-23.5 -9.5h-80q-14 0 -23.5 9.5t-9.5 23.5v113h67v-79h12v91h-46q-14 0 -23.5 10t-9.5 24v508h67v-475zM55 55v475h-43v-496q0 -9 6.5 -15.5t14.5 -6.5h58v-115h-36v79h-43v-101q0 -9 6.5 -15t14.5 -6h80q8 0 14.5 6t6.5 15v655 h-43v-475h-36zM67 700v-79h79v-67h-112q-14 0 -24 9.5t-10 23.5v113h67zM55 609v79h-43v-101q0 -9 6.5 -15t15.5 -6h100v43h-79z" />
<glyph unicode="&#x2000;" horiz-adv-x="389" />
<glyph unicode="&#x2001;" horiz-adv-x="779" />
<glyph unicode="&#x2002;" horiz-adv-x="389" />
<glyph unicode="&#x2003;" horiz-adv-x="779" />
<glyph unicode="&#x2004;" horiz-adv-x="259" />
<glyph unicode="&#x2005;" horiz-adv-x="194" />
<glyph unicode="&#x2006;" horiz-adv-x="129" />
<glyph unicode="&#x2007;" horiz-adv-x="129" />
<glyph unicode="&#x2008;" horiz-adv-x="97" />
<glyph unicode="&#x2009;" horiz-adv-x="155" />
<glyph unicode="&#x200a;" horiz-adv-x="43" />
<glyph unicode="&#x2010;" d="M12 293v-43h122v43h-122zM146 238h-146v67h146v-67z" />
<glyph unicode="&#x2011;" d="M12 293v-43h122v43h-122zM146 238h-146v67h146v-67z" />
<glyph unicode="&#x2012;" d="M12 293v-43h122v43h-122zM146 238h-146v67h146v-67z" />
<glyph unicode="&#x2013;" horiz-adv-x="237" d="M12 293v-43h201v43h-201zM225 238h-225v67h225v-67z" />
<glyph unicode="&#x2014;" horiz-adv-x="316" d="M12 293v-43h280v43h-280zM304 238h-304v67h304v-67z" />
<glyph unicode="&#x2018;" horiz-adv-x="119" d="M107 633h-40v-79h-67v113q0 14 9.5 23.5t23.5 9.5h74v-67zM95 688h-62q-8 0 -14.5 -6.5t-6.5 -14.5v-101h43v79h40v43z" />
<glyph unicode="&#x2019;" horiz-adv-x="119" d="M0.00683594 621.039h39.9971v78.9951h66.9961v-112.993q0 -13.999 -9.49902 -23.499q-9.5 -9.49902 -23.499 -9.49902h-73.9951v66.9961zM12.0059 566.042h61.9961q8 0 14.499 6.5q6.5 6.49902 6.5 14.499v100.993h-42.998v-78.9951h-39.9971v-42.9971z" />
<glyph unicode="&#x201a;" horiz-adv-x="119" d="M0.00683594 67.0391h39.9971v78.9951h66.9961v-112.993q0 -13.999 -9.49902 -23.499q-9.5 -9.49902 -23.499 -9.49902h-73.9951v66.9961zM12.0059 12.042h61.9961q8 0 14.499 6.5q6.5 6.49902 6.5 14.499v100.993h-42.998v-78.9951h-39.9971v-42.9971z" />
<glyph unicode="&#x201c;" horiz-adv-x="238" d="M226 633h-40v-79h-67v113q0 14 9.5 23.5t23.5 9.5h74v-67zM214 688h-62q-8 0 -14.5 -6.5t-6.5 -14.5v-101h43v79h40v43zM107 633h-40v-79h-67v113q0 14 9.5 23.5t23.5 9.5h74v-67zM95 688h-62q-8 0 -14.5 -6.5t-6.5 -14.5v-101h43v79h40v43z" />
<glyph unicode="&#x201d;" horiz-adv-x="238" d="M119.007 621.039h39.9971v78.9951h66.9961v-112.993q0 -13.999 -9.49902 -23.499q-9.5 -9.49902 -23.499 -9.49902h-73.9951v66.9961zM131.006 566.042h61.9961q8 0 14.499 6.5q6.5 6.49902 6.5 14.499v100.993h-42.998v-78.9951h-39.9971v-42.9971zM0.00683594 621.039 h39.9971v78.9951h66.9961v-112.993q0 -13.999 -9.49902 -23.499q-9.5 -9.49902 -23.499 -9.49902h-73.9951v66.9961zM12.0059 566.042h61.9961q8 0 14.499 6.5q6.5 6.49902 6.5 14.499v100.993h-42.998v-78.9951h-39.9971v-42.9971z" />
<glyph unicode="&#x201e;" horiz-adv-x="238" d="M119.007 67.0391h39.9971v78.9951h66.9961v-112.993q0 -13.999 -9.49902 -23.499q-9.5 -9.49902 -23.499 -9.49902h-73.9951v66.9961zM131.006 12.042h61.9961q8 0 14.499 6.5q6.5 6.49902 6.5 14.499v100.993h-42.998v-78.9951h-39.9971v-42.9971zM0.00683594 67.0391 h39.9971v78.9951h66.9961v-112.993q0 -13.999 -9.49902 -23.499q-9.5 -9.49902 -23.499 -9.49902h-73.9951v66.9961zM12.0059 12.042h61.9961q8 0 14.499 6.5q6.5 6.49902 6.5 14.499v100.993h-42.998v-78.9951h-39.9971v-42.9971z" />
<glyph unicode="&#x2022;" horiz-adv-x="79" d="M12 332v-122h43v122h-43zM67 198h-67v146h67v-146z" />
<glyph unicode="&#x2026;" horiz-adv-x="237" d="M91 134v-122h43v122h-43zM146 0h-67v146h67v-146zM12 134v-122h43v122h-43zM67 0h-67v146h67v-146zM170 134v-122h43v122h-43zM225 0h-67v146h67v-146z" />
<glyph unicode="&#x202f;" horiz-adv-x="155" />
<glyph unicode="&#x2039;" horiz-adv-x="119" d="M67 318v-92h40v-67h-74q-14 0 -23.5 10t-9.5 24v158q0 14 9.5 23.5t23.5 9.5h74v-66h-40zM55 214v116h40v42h-62q-8 0 -14.5 -6t-6.5 -15v-158q0 -9 6.5 -15.5t14.5 -6.5h62v43h-40z" />
<glyph unicode="&#x203a;" horiz-adv-x="119" d="M40.0039 318v-92h-39.9971v-67h73.9951q13.999 0 23.499 10q9.49902 10 9.49902 24v158q0 14 -9.49902 23.5q-9.5 9.5 -23.499 9.5h-73.9951v-66h39.9971zM52.0029 214v116h-39.9971v42h61.9961q8 0 14.499 -6q6.5 -6 6.5 -15v-158q0 -9 -6.5 -15.5 q-6.49902 -6.5 -14.499 -6.5h-61.9961v43h39.9971z" />
<glyph unicode="&#x205f;" horiz-adv-x="194" />
<glyph unicode="&#x20ac;" horiz-adv-x="198" d="M119 435v198h-12v-210h79v-67h-79v-12h79v-67h-79v-210h12v198h67v-232q0 -14 -10 -23.5t-24 -9.5h-79q-14 0 -23.5 9.5t-9.5 23.5v244h-40v67h40v12h-40v67h40v243q0 14 9.5 24t23.5 10h79q14 0 24 -10t10 -24v-231h-67zM131 447h43v219q0 9 -6.5 15.5t-15.5 6.5h-79 q-9 0 -15 -6.5t-6 -15.5v-255h-40v-43h40v-36h-40v-43h40v-256q0 -8 6 -14.5t15 -6.5h79q9 0 15.5 6.5t6.5 14.5v220h-43v-198h-36v234h79v43h-79v36h79v43h-79v234h36v-198z" />
<glyph unicode="&#x2116;" horiz-adv-x="395" d="M271 688q-9 0 -15.5 -6.5t-6.5 -15.5v-237q0 -9 6.5 -15t15.5 -6h79q9 0 15 6t6 15v237q0 9 -6 15.5t-15 6.5h-79zM292 644h36v-194h-36v194zM350 700q14 0 23.5 -10t9.5 -24v-237q0 -14 -9.5 -23.5t-23.5 -9.5h-79q-14 0 -24 9.5t-10 23.5v237q0 14 10 24t24 10h79z M316 462v170h-12v-170h12zM249 372v-43h122v43h-122zM383 317h-146v67h146v-67zM170 688v-621v-12h-36v611q0 9 -6 15.5t-15 6.5h-101v-676h44v633h36v-611q0 -9 6 -15.5t15 -6.5h100v676h-43zM225 0h-112q-14 0 -23.5 10t-9.5 24v599h-12v-633h-68v700h113q14 0 23.5 -10 t9.5 -24v-599h12v633h67v-700z" />
<glyph unicode="&#x2122;" horiz-adv-x="474" d="M67 514h-67v186h225v-186h-67v119h-12v-317h-67v317h-12v-119zM55 645h36v-317h43v317h36v-119h43v162h-201v-162h43v119zM249 688v-360h43v317h36v-317h43v317h36v-317h43v338q0 9 -6 15.5t-15 6.5h-180zM429 700q14 0 23.5 -10t9.5 -24v-350h-67v317h-12v-317h-67v317 h-12v-317h-67v384h192z" />
<glyph unicode="&#x25fc;" horiz-adv-x="540" d="M0 540h540v-540h-540v540z" />
<glyph unicode="&#xfb01;" horiz-adv-x="237" d="M225 554h-67v146h67v-146zM213 688h-43v-122h43v122zM158 0v396h-91v-396h-67v666q0 14 9.5 24t23.5 10h80q14 0 23.5 -10t9.5 -24v-191h-67v158h-12v-170h91v79h67v-542h-67zM170 408v-396h43v518h-43v-79h-115v194h36v-158h43v179q0 9 -6.5 15.5t-14.5 6.5h-80 q-8 0 -14.5 -6.5t-6.5 -15.5v-654h43v396h115z" />
<glyph unicode="&#xfb02;" horiz-adv-x="237" d="M113 700q14 0 23.5 -10t9.5 -24v-191h-67v158h-12v-170h79v-67h-79v-396h-67v666q0 14 10 24t24 10h79zM134 666q0 9 -6 15.5t-15 6.5h-79q-9 0 -15.5 -6.5t-6.5 -15.5v-654h43v396h79v43h-79v194h36v-158h43v179zM225 0h-67v700h67v-700zM213 688h-43v-676h43v676z" />
</font>
</defs>
</svg>
